<mxfile host="app.diagrams.net" modified="2024-07-02T03:12:10.090Z" agent="Mozilla/5.0 (Windows NT 10.0; Win64; x64) AppleWebKit/537.36 (KHTML, like Gecko) Chrome/126.0.0.0 Safari/537.36" etag="kfaWoE2bTjkl0jPacWCJ" version="24.6.4" type="github">
  <diagram name="Page-1" id="Xzjd9lCXlywjiRaTbi2x">
    <mxGraphModel dx="-40" dy="1365" grid="1" gridSize="10" guides="1" tooltips="1" connect="1" arrows="1" fold="1" page="1" pageScale="1" pageWidth="827" pageHeight="1169" math="0" shadow="0">
      <root>
        <mxCell id="0" />
        <mxCell id="1" parent="0" />
        <mxCell id="JDTxPwOaydVXUE_5nDYC-1" value="" style="whiteSpace=wrap;html=1;aspect=fixed;" vertex="1" parent="1">
          <mxGeometry x="870" y="70" width="120" height="120" as="geometry" />
        </mxCell>
        <mxCell id="JDTxPwOaydVXUE_5nDYC-2" value="&lt;font style=&quot;font-size: 16px;&quot; face=&quot;Lucida Console&quot;&gt;BRAT&lt;/font&gt;&lt;div style=&quot;font-size: 16px;&quot;&gt;&lt;font style=&quot;font-size: 16px;&quot; face=&quot;Lucida Console&quot;&gt;Charli XCX&lt;/font&gt;&lt;/div&gt;" style="text;html=1;align=center;verticalAlign=middle;whiteSpace=wrap;rounded=0;" vertex="1" parent="1">
          <mxGeometry x="890" y="410" width="130" height="30" as="geometry" />
        </mxCell>
        <mxCell id="JDTxPwOaydVXUE_5nDYC-4" value="" style="shape=image;verticalLabelPosition=bottom;labelBackgroundColor=default;verticalAlign=top;aspect=fixed;imageAspect=0;image=data:image/png,iVBORw0KGgoAAAANSUhEUgAAATwAAAE8CAYAAABdBQ0GAAAABGdBTUEAALGPC/xhBQAAACBjSFJNAAB6JgAAgIQAAPoAAACA6AAAdTAAAOpgAAA6mAAAF3CculE8AAAACXBIWXMAAC4jAAAuIwF4pT92AAABWWlUWHRYTUw6Y29tLmFkb2JlLnhtcAAAAAAAPHg6eG1wbWV0YSB4bWxuczp4PSJhZG9iZTpuczptZXRhLyIgeDp4bXB0az0iWE1QIENvcmUgNS40LjAiPgogICA8cmRmOlJERiB4bWxuczpyZGY9Imh0dHA6Ly93d3cudzMub3JnLzE5OTkvMDIvMjItcmRmLXN5bnRheC1ucyMiPgogICAgICA8cmRmOkRlc2NyaXB0aW9uIHJkZjphYm91dD0iIgogICAgICAgICAgICB4bWxuczp0aWZmPSJodHRwOi8vbnMuYWRvYmUuY29tL3RpZmYvMS4wLyI+CiAgICAgICAgIDx0aWZmOk9yaWVudGF0aW9uPjE8L3RpZmY6T3JpZW50YXRpb24+CiAgICAgIDwvcmRmOkRlc2NyaXB0aW9uPgogICA8L3JkZjpSREY+CjwveDp4bXBtZXRhPgpMwidZAABAAElEQVR4Aey9WZMlyXmm53ny5Hpy37Mys/a19ybIJkUDZghQmoEEDikbmUk2uta1/oJ0Nbe604xJF7oZ0wUlUhpKogzULABXAN0NoNFV3V37nllLVu77clLP83l6dQHoIQEQ6KUqvCrynBPh4eHuEf7G+y3+ecsBKVWp6oGqB6oeeAF6oPYCtLFqYtUDVQ9UPRA9UAFe9SBUPVD1wAvTAxXgvTC3umpo1QNVD1SAVz0DVQ9UPfDC9EAFeC/Mra4aWvVA1QP1qguehx7Q0N78hIa0HO4rn5+Q5RN3/bz5P7GQamfVA5+7HqgA73N3S37RCn2Sd5H7WtkEsE86/kn7K7D7Re9Add7nvwdaKj+8z/9N+tlq+JOAVn5XWoufrf+qXC9CD1QM7wt6l4u/eEtLS2o2szjr95JaWjLQPetW/vQwWCgcHjQzKPrXY+Xsg0M2aHnPllnKrj6rHvii9kAFeF/AO1dATND7GPhqAVo/1RzBja0JuAlqfq/VBDJz5k9+/pTUa7kCaa32MUOswO+nerfa8QXrgUqk/YLcsAJsVvcngcdje7vNtLOzm3Z3d9LW1nZaW1vncyvt7e2x7cdna2trnOv5tdaW1FprTR0dHamrqzO1d7Snrs6u+N7WnvP9ZNc8WwfpIHD5k1mq31UPfK57oGJ4n+ntUZjM6eNv/D5oQag83MOHbOzHQI59gtrG5kZaXl5OC08W0+rKetpY30jrGxtpG6Db2dkJVufJLVC4GiKuzC6DVt5nmW31Osc9VkuNRiP1NLpT/0Bv6uvrSz09PezrTm1t7am9nXxW5JmkSGx5h9JzVPTHc5j5p/c8U0T1teqBT7UHKob3qXb3T1xM+fIQDwSO/I88TUVNQCpkzXyOLE3WtriwlB4/epzm5+fTwsJCWl1dTbvbu3FOKT1A6BCcDvx85hrmkekJcG5tbW0Bhubxmoq+Na9Nnk7YXzeA1+hupIHBPrbeAMVGT4NjnakOEyypebAPUOcyfhwYDy9eMlafVQ98hj1QAd5n2Pnl0gF2MiWApoCFWLi9vZ3W19fTw4eP0tzcXHoyv5CWl5bTBixOBre/vx+gFWQQvNnfb4berZQXn+KNoBcf+bOItu7ze9kEwDqMz83vBThriL6iWUdnFoFlfYODg2loeCgNDQ6lnt4GxzpyXSyU5Lmm0p74Uf2peuAz7oEK8D7lG1BARDhoCgr8l1EdYlLa2dpNT54sAHAP0uzsbFpZWUkriK3bAJwgp07OMvwU8PyuaNnSzMYFDQ2CTOz3mAX7P66RAa8Am0BnOaZyXMZXNssQ/Pwd39tknfk67vP87q6u1DfQnwaHBtLIyCgAOAAr7Ioy/eN5pmeBz33P/o4M1Z+qBz6FHqgA71Po5HIJB3oMdnbsgwNNRUowaG+vmRZhb3P3Z9Ps3fvpISKrOrr9JoAGmG1vb6Gv20x7TcCOfwXsAnw4X2kyuR2mAmR7+3upBmAV0DG/x0wCjqAlaPrdY34Wduen55m/vb09jiti+9u8BRTN19qmkSOldnR9Pb09aXR0NI2Pj4UY3NaW1cQfu878B6zJh3WvPqoe+FX2QAV4v8re/YmyC+AFUHFsdXcvzSOu3rp2I925cTttLK0AXiBXaz3tIZ4q0ob4ymec29oEKLPYKji5NQMUAc3t/afgJbgUkDs4NFSYt4CdIGUSON3X2dkZn4XtFfZWADI+660YOND3AXYBcgKfYAhodnS2p7b2zPgsN5fZBevrTxMTI2lsbAzrb2Z9pV7Wp0pVD3zaPVAB3q+kx7MYB4/KQKXYemiAEIwEsjmA7v2PrqTbN2+nHayrrVhm2wCTA9je+sZmWsVAsbeHMYJUgGq3uZt29ndwPdlNTQAxGCAsrNaCHo5/li1oaXhobc1GiT0AUt2e1xeoit5P4PJ7AT+v4W+TgOdxmZ3HBSkByu8F8Arrc197B2IwgKeLi+cKoLI9VX9uvb296ejRGVjfBHnan4JxBXrR3dWfT7EHKsD7pXW2IOdWQC6Lr/6WCclnlmBwd+7eTbdv306ziK9LT1ZDRBU09tXJYYmV0W0AdqBCnGf1QncHyCmiBthxrE6ZypFNQAqcI+XrSpwELkFOQGmBmRXmFr/NQPKaglw7QKX/nrvz7IzcDkHO47FRhj575ZwCev52a0Ok7ehU94f7CqCndVfgk9Xp2mIZgreGjqNHj6aR0RFIbK6vdamAz16o0qfRAxXg/Qp6OeurAKywbiZ85VbTnTt30rVr18Liur6+lnZ3AKpd9HGyKsBl61B8DdaFY5sg5XcBTkb4bCrA5XWKtRYu9RSgzOv5AhNIFcAYgAoIqlPzvAJuApb5LNPPAxihm98FKkVm2WTrIUAWEMxA1xaAVwe86pQryBWgk+XJ+DpxZh7EkDGINVenaAH9yNSRNHN0CjBscC0BtgK96ITqz6+8ByrH419yFzuAA2godx1R9fat2+ny5SvpwYO5YFK7WFq3d7bT5uZ2au5lllOsr4KbwLOBkWJHvR1lZHDKrMyZE5bvFkwvgMtj6vOy9VSQ9PoCkvk8Pzgb32WggudTMPRMgY5N5+QCggJeAUA/oyzyWnYBPL+7BWBCNuu76PgAPH+73/rZrty23dgvu3P/g4cPeAkspBMnTyDmjlOymF9ZbqMjqj+/0h6oGN4vqXvBiAAXdWfq0O7cuZfev3gx3b11K23BaoQbB7sMZ2trE+DAQoorySbW1wJMBST2ETEFLYHJYwVoPO5vUwFCQUZQ2sfs66fHBSVnUFAIri/NsPBanpsAVL77aX7PK+fyleMfW2O9lnnMazJfSeU6rXXYIJt6PQ0boc/ju6xQptfV1Z26u7vS5ORkOnPmTOri+81b13khrKUTJ06kmZmZAETbZJlVqnrgV9UDFeD9EnpWQBDwBIoVpnhduvRBbDoNQ+PSFp9+3wXAZHgxsOvtaX0zM6ACRIXp1WFr5hHgPOanoFdSAaAAPa6p60oBvGeBSQCS3yk2F2CMulJfyzOvACbIKH76aZkHB4rT2RosYyusLY5RHvAYbS2ssoi0Xu9ZY4Zllk1dnsdGRkbSq6++kgaw4N64cT1mi0xNTaVTp04FOHqN0obS3uqz6oFfVg9UgPf36EnBw1RYz+NHi+l733s73UKMVfcle9veYBI/TGYTcVSQyfqwVsTaXfR2gA4uKJvMiRXsTAFIGC9+DOwoK67B5QpgmTcA7ynjygzOfAU04juEzM8CmALfs2W0HhokBKMMeF4rX8drlPIEPcs1RbtlggCzeZWmBXvLtpwCkv4W8PzUgOFcXdleLzMzXn39lXTkyGS6cfNmevToYZqemoH9nY78lu91q1T1wC+7Byod3s/Ro+JbgMXhOa0MctMu/nR3b99L7777g/R4/nGA3QaMznmuWxvo43AiFsBkeOrL8C0JMbPe3oFOLUc0KUwu8rFPyrgfbCczOFma7ifASwBPAR+BwU1RehcjiHXUWCLjs0z2BAC1wygFvW10hwJSJwBkmdatXkfXdygSC04Kr+YxqID6vH1cZXawsgpqskmqEAkOGNcw8soe3s8HzAHe3/N6ewBX54/93tmW3boB5oD99/7m3fTKa6+kmemjCU+bdOfW/dRyUE9nzp0CNPFDBPRbKTfjnkDrRStxN/d89fcX7YEK8H6unssGgywKJpjZVkwBu3HjRrp/dzbEVo0CKyvLcUzw2t5CbGW6mAxO1qdey2gmwEba5Xwtl4KM+roAO87RhUOgEdQCcBAvQUD+C0VZDC0MKNgWxwRHAaHWgtGA7y349cnA6oIG/wKoKEIdm+cKYrIxXWEESK2pXk9YsUxBPHSIAJzAZ90pBEaamSTZIt9Bi33C8VhTQ52jxg1ng2wEaMrwuAz7bM8B/bCHHrMzDfQfpPe+/35aX90M/7yFJ0vp1o074FpLOnP2JH3SSlnZeOK1qlT1wC+jByrA+xl7sYhZsg5BbO7Bg3Tr5i2ME8yQwBAhs1lbW4vvfgpwMiojmeywCYSW0QqwCSz65m1jvPBT66vir4AXYIfeT+QoLM4qBpMLODoEGo5nsAuM4A+/Pa8AEsglYMDzQowueTNYtwTQCl6KmR6La1Nfr9sJQrkvrkl7/S7gmSeLrzItAfiwXlibLcsUbQtm+LGV2H6QMfopiLrJ3HYB9g8//DAtLi4+1R9eu3ot2nLh/Nnom7hIcM4ovvpT9cDfqwcqwPsZui9CJinOMfAX5xfTtatXAbq7AWK7gN/u9k5awwXF2RFaZJ3o76AW5AQ8p33piiLYOOgFkggGALszCXgFEINlYTR4NnndnASZXA/3CSImD+vyZzCCOmXL2BQJZXg6AwuGMjmDfO7B3DxXJifIupVpX+oXBSLBWtZpKgDWiq5xH8dnAWhP4DMjyTaZgNv8SdnqAkudzZfZrTM+MuD5+ez3+/fvh8HCGRnOy71y+SpW3e504sQM17d9iudFvI3LVH+qHviFeqACvL+j28pgc9DevHEz3UXsWkZkVSzdBNxWC6tjOpjOw+YTwGRDft9Fd7W/+7ERQpASWARAp30JjOYVAEziCOM75tRGNBX2BUBxAKjjeNZjCURepwBPS02gcdbEDvvQtynaAnjqCAWvMCY4RxfA81zFXiFKtxHLye3MzsaC7w71qyP+FmYW7M7KsTlvpNQ3Pq0v/wo4FpBTLNbR2etbvnllin53M5VPz3Xr7e9jXzNdZtqdMfcmJ0cJmmDODLB+q1LVA79oD1SA93f0nINXEfUqrO4erG5nI0/od98a1lejDAsYG7C8wuz8LWg4gPcAuybh1x3sDm4BRLATHA0EIOCZz1QGfSuMTGyRoRVw8DPwBkbVyma9zC+bEm529ygPBiaM1TFQQARjfwCKZZFPhue2Q101oASgcswyrJ9iaamL081kiQKlYOdWoh6b33a4uX9rByMLIr0s0H2lXi0ttisDneVHfsRfjSX+djOVtliWInhvXw9i7nJ6770fwT7fisCj0Y7IXf2peuAX74EK8D6h7yQfB4CJALCFYeHixUvMfb0f7GhjNfvUBeABegFusCrdTASyYEeH4KfTr2GbtIA6YMsgz3kAxEMwcMCb6gBGjXhRTYBLlvOsaOhx161oAqA1pnJplKgjusrCNAykln6ARpalwQCxGeA4MA9larBYJa7e7g7TvbAM6xgsACr6bsBMuWKAq3YHsDbKk/mVNnpt674jsJFkbAX0ymc2mqgbzOJ4Sw09Hf+MpiLQ0dSoh/mbUDZFbFMBMvvAfM740A9wanqKs1P64IMP05e+9EZEZCl5Pa/0md+rVPXAz9oDFeB9Qk/FwGKAClTXrl7HAns/mMza6lpaIQCARgqnjTljYgdWojOxomRssDv3CZjqurSGSuBkSm7qzAr78zptNSbx4wvn99CHeV2ASsFRgDO5X5DpRDzcVycI+Mj+jEgiSGCLTS2tgB5kTyAwf2ZqGCCIZCJYCY5hoaU8gxN4jXbAT3eVA0RhgVtR26AEsk6T4GR5blknSUy+QxE89nMd89epWxvMMYCN83RI5hTavoeFGhG7nTIA8n1cV1oRyX0RbDe3o1zrWdouyLaAuE2iwuztjqTjx06nmzdvpo8+uJxee+PVAMPCQL1+laoe+Hl7oAK8n+ixGHwOJljUg9mHMeAEg3UciNdWcCA+VPSrGxO4FMMK2IV4KpNjEJcZFbpo6JIhGFi2YGk+wURgKoDiQHa/+zxmXs9xv3kECcuUoXWQx2ubT+U+dA1ylsVSTgvLa39/f1xLimlzdIexnpYxwGT+TWZ5bAuee3mVs1IfTo/kdQVoPwVM/fxkkq5w5jVMluexMMCEn16eXmY+mWdMbwvGmfWUtsG2CPC21b60fDfbLTNtHnSG3m9udi6NjY6nifFJLLmXUz91Po4Rw2QZVap64BfpgQrwnuk1QaYMprn7D9L7718M0AiQQ/RzgPs9gAOgE3Tc/O2ng78AhJ8mx6blCh4OcgHSwV1Syedvv5s3jgeqZGSxXPcbK68OI8wzFrpCh2iZnd0d6OzU0XUEq1IU9RwZk8DTjeuJqasLwGVWh+Klzsbq6Tze1ZWnrwnGOhE3CNEuaNkmy/e7bXTToiv42R7B1peBukhZbekL9wUjFfgA47JqmgwSPvwU1ENnd9he+9U20gshCvv1ww8/SufPn4v2vvP2O4i19ZiPaz+V+xQNq/5UPfAz9kA1teywoxxsDiIHq9bY61dvpJXVLL4uLS2FPmsT0Ntcz4BXBvezYCfIFHAC6oKptLV1IJ7JkPC7A0D0ORPQyvUKm/vJ+1XAL5x+KddzFAdbUH05+V7gEdCMkbenoy+zHJy2ZXw7z3VGh6ImFw4GJicSoGR+sr011slYZNWzJ0+eRF0EMNsuc22iQxOwQlwG3BSfTU39/EgClck6WC8BL6y+9KFtjOtz3Tb0hx2Uoy40hHT22V6Pd3Z32kVRlvXyWgGStEknaF1UbN8wCwVNTU0DqFvoLvfS1772uxFjz+tXoGcvVOnn6YGK4R32loNHYLty5UrMnlD3tImOToByipiT/wU8p2Y5qN1kP7pZCHICj8YBxTYHdUQNQeem8cD1dYK1cQ3z+j1AAfYTv7XGSrsOk8dM1kmg8rcAKbMSrNxbAElH5dDNoZOLNSywgnp9wS50a4BHO+4dlqFVdpV2xILbgIxuNUNDQzEzxDaaZHMI00+BSyCsEQnFth6gg8v1zr/tL8EqjC+UH3lpW9Q72so51Nd+0aAjqAliIdLSX55rXoHW/Tl5vpbnNa6l2PyQbT/9+m+8nm7fvY7l9r305S9/+TBv9VH1wM/XAy804GURKgOLwPbBBx8G49FXTQPF0sLiU7cTmZzg5IAPQDOEOYPb/bpfhAsJn7pV+M8IwfqGCEjOzIh5qACOriMOcgc9SBAwJ9RZdoE8AcKyo34gniyPU4JJtQF6gyPDET1YAIlZHgBDDVH3yeE6tb0spKPP3traKsaCNkBtOI2OjYY7isC9uLSY9mwPm/UXPEeJQhxzf7c3+U3YdoBOfZ0GEsHdcPJ7OEr7OxbvpkLWV/G5RlvKjJE8HYwesM4cV1S1nvaZzNB2uq6t1mN/e23723bod6cvoVP2NPYobtdaOtODuYcRVeXMmbNYzC+mEydOwvqOxL0o4PrzPfZV7he1B15YwAN7wgora1pZWk1XL18D4JYAgr2wxGqNdUqYLhQH+JjpUlav4diLEUBdlGDW3HcWgU7FyJns0yopWCFkhu+dg7mNgd6O5VFAWIFF1fhuDsGiqQ8ISWYmoJQUFlrKC7GXneZyYEfggX2mojHbfhOwaGDA6B8eoyDqR136e/rTwpN5rkM7cO+QlW2uLdMmo7aspr6+wdQB0HSSb5n9K4ivzoXdAOQwm+JKt5u6ezsDrAQsgScABQNODZqqNVjQc6Fwgctj1vGAfhKQi1gqExRIqTWAhh8fbduhjVF/QL4J6DaaXfSpLSU0FWK/LE9W7XXtq33a6DvDl4nge+nSR2mMNTGOzpxM3/3OO+k/+UeKtg1AL6sLSt9Vn1UP/G090Prfk/62DM/vscyiZF+KsY8fPw7GIWORbeh/t477howoi7PZFWUNPzxZi24p+rDJUnTkber7xuB3sMpeHKQO+OZ+tuKq75IdBugBRoq+wZ4Q9X4MPGSBgKzWXcFEMTTEUc71U/BzkR8n4bdxDfVd5t8l6olgYaBN14vQGutxfe5CN4d47tKPm0RvEYhHRoejLMXS7F5jPQB4riHQ1WFt+vTZdst1fxgrnJ4GeHlyALJIR4q6kieL+YI1L4XYn49ZhqgoSFqWWO93mV/uK3CU/faL4B/f+cx5sErTHvWEZ8+eTfPz8yxK/oQw8TNRJ69jvipVPfB39cALCXhloIIl6RYRie/duxegI9Ap1i0iyrotLWdjRQAGA24bwNB1wkGdGUweaIJDB0zGwZuBoTUU6zrdCjw67CqWCnbqshycu5RTWF0BizzIAQsJZABCvn369JkyQ4JMWgcAzxkX6uNcNMd91m9nV6NBLtvyWxUZAajRsfHIq5i4BpAvraB/6+nGzcXf+BcyXc56Kb56bYGutNFre0yAt62KnubzpeD+Ojo+617y5f71HJlaBmrzuT+Az4x897epAF4YQ8At653LyCzVPDLFJ0RUGcKIceHCORjfpdD7jY2NcB1zVIBnL1Tpb++BF0qkLQOsDKZl2M3c3FwMVkFtGcvlAnow58rK4gJYALcCcDIyWY+pKNmLXmoLsdHkgHZwF/CyXMHOFN85JgjsY/E84Lt5TRkwLFvR1fzZfy/K43zr3Mp+LZ9O4WrDYdjABXuwy1pXTxwXoLa2YJ6ba3G+9e3AxcSkjnJ66mjqR6w1Ht3K+grT25gSB1N16cRRIhGr2xPIGg1nUuiwLNPMOjzFVesiWApQGjesuxFPMiO0zlnUFfj9btM8r/SF58vgbJ9uLKZoF/lLf3r9mG3Rmv0QzWOAVHWUXd09iLPfY53b0fTyK6+kd975fupj7u309CT1VDdK3xtkgH9Vqnrgk3rghWJ4BVwceILYTcI7LTxZiO+KdoKdriiKuQYHEKAK2DnwPS/WgGWA+t3B6mD2e5nf6nevI1NcYTrXOoYDjQAOzFUMITtcNxiMd+MQ7PxqWU8T8eUsI8ryGJvfuwCZdoCoG/eTvt6++Ozns5fw6Q3AoAMgUuzMhoNs/VzQDYZ9itTLS8uhf9Q66j7ZmoxTcV4xuNHohtXpV5jByGtaLzeB3bZaLz8FMkGqr683i/WArclzPk62Ic/WcJ/nWpaAZ3/JXC1LgHSL47YWvBK849qcp86UbNRRxrwb4P3yyy/HS+mjjy6no8dmsrWYTJbhVqWqBz6pB559Oj/p+HO7T/+zB8S0c8DL7Nx0ytViqPGhDO4ygNR7xYA81E3ZMf52Mr6D31HqoDVfSerzTA5SdU4yFeFLBlKApHyW6/hpHq8vyBb/NoGkp9ET/mkNAE6GJXAJrEZs8dpGGilrR3jcTeuwbRXIpqamAvgUVwVFAdg1Jt58840w0Dx69PgpQAn0Jusn+Fgv61SAz2PmWVlZDcdgnaHLPvO5eQ3PNZ+//ZQ1C3alje5XlWC5biZ98GSRvnAU0/3cgHH7UpJR3r59N337W99OU0emOWcv/fVf/1Vcxz6wvlWqeuA/1AMvFMMrg8FBdgvd3SI6If3qlhaXQrSLwYVeKkcKcXAjzmKBjcVqsMruhzibB9WhZEteBrGiY4dOvUOpb2AgO/yCW02slQ7sbtw7BJk1tnAxkd3Ev49vSwa6DDCyyPK7fFp3dXPOf9UXD5tGlNUN+PkdEpR6Ip4cOjmmwS0gnnqNfc6zjMco+nVTEaC7GvrakWBairGCZnd3A+ZVDwCz3gG2tEtmKPio5xPABNAMXjkqs6KkMzx6eno5nkFQ8LfPzCfj1DXHfhC0dV6W2TljxOOKoAKhdQxGKZODFXZ2dIXFW4NQiKiUJzPeZSpcZ2d7mp17kIZHR9P5C+fTD77/ferbRLTNRgzrSe8f9mHF9rzVVco98EIBnk12YClqOil9h/mkWl2D3R2GeQpWAQgKZDHQ+CsAZhBUnyVjKVZEp4wxqR/RrgWwcKCrF1sGQDbVpW0zSZ+8Mq0d3Dl0XG5R5Ix/kd0qPU2CWt4CMkLs9GAAA/U2eX2ttIqKGiA6MFoINGtrOEkjsqpL1C/OcgSrPUBiC5YlC33w8FHo0EZQ9Ftn8wguAt4cAFJYrGxQIJJxqVPTUNCNuLuKuC/o5mCc+bjiunUSiGWX5i++d4KQwQDsI0HI69n/TYC0jmjud6/vfpmfFmVni6gntO8HBwYjQIIqBsHO6wqwgnEDdnuN2TBHj06HEeOdt9/lhdMX/oT5Ovle25NVqnqg9MALBXgOMAfD7Nxs6O70+zJsUujaYF9lsDqAHSgOeMHgqasK4pXAUbbOTtdryA7I6tR0EdnDtWMJ1rSxaXmwRV08ELVkMcagY5TH4HUcBssqd4JP66ZRRJ2VbFKQEDQEPPOi2QvWI9hpnVX061CP1tsPADRCmW+p2/jVjYwMIwoyP5V/Rm0RyNsBJ8vRWONiQxoyOoimIlBswAp19xDQPMdyFBEFl1XEVkFLR2T7yH0mAdL62R+LsGRF7OHh4RBRfSkIhq7ZYf2zLi+30dILiGfWl8VduuYpkNv3gpygLbiZX/AOgw4FaP32uvexsE/PTKUjOCI731YRfXBogL6zhjLNCvDsiSrlHnghrLQCicmH3wH7GF2VIqb6J1lX0THJTEJsg4WtLq8HaDlwTbI0raOKfpbjADQJAu7raMcosIyzMgNRq+eu7iEM+IgwLJAd1sHzBDVdTASWZ+vm4JfFKJEJJG7uE3gc3AKI1tluDBSCjczUQd2KQ3Rf70AAzhDrvT6e9/rOoCDY5+YT1qggdFSjGW3eB0ieoLvbpWzZ5sOHDyOv1zDt4dMnaJd6adwQgNXvNXBjEeBlu0Xk9Rz9+9ThqROdmBhHtO5J84/nuX4uswBkaYv9Z5/rpF1eHvabKoTc7jyNzr57TDljiK59gLuBRt3XQh8aVn+7tplW6Nc//qN/nX7vn/xn6eWXX0Wf950AyfGJ0aij7bK/uWQFft6sFzy9MAzPAexA0xJ748aNYCGbiIECn0AnkyvsxWllilHlHM9TF6UI6T7Zh4DT19cHuCnOahjAdw/GpD+bjDH84WRCDLY2REyBzijH6vBC5ATsQp/nSCRZRv7k76GVtoCBx7xutmxmXZhuI4qQzoX1u4AryKqTk62trauX68aVBUYJSOjOwiWDJQqA9XYszc6gIDpKOyzPflAc50IBxIV5eY71EIhljAKV1l2P218m+0DAGxjoD6anOGp7FT/9tO6m0p+WZx6B0LZlEM3GDVmrZRex2BdDMWqEFdq+oMwAMoDYKXo6WN+7ez9E7wF0qN7fsbGxsDpbX69RtqhI9eeF7YEXxkrrA28S8AQsxls45MoYHLhuDkgtqR4vYBRABYPJ1lLDIOVJ77qZeGwJlqUoKFMMwwTKfQeZOqkilsnuHNSCZLAcQQ+xtAzCUrfyFFqPMsNCqBAgHNjWwe9+Cgiys3v37obIKUOSgU5MTATDEbiiLbIx2qNI2wfz6gGYFLGth2Jq9ANGhR7Ymyuy6R9o/W2bSVCybDMai8/zbJeAI+BGG8ljvQQ+mbDW3wC1wz63LMuJdvFd45DszmS/5brnubY6N5vsE1mqyWsoVi/iQqQRQ3HemRrOB15j/9raBm3dTt/+1p/TH/ejH/7dv/0WrHQ+6uF1Be4qVT3w3Iu0PuwhpmL5dLCsLK8y2BCpdnSZQCkPK9LlQS3Zpjo3AA2TRAz6MpgFAv7Hwjq9DVwmYHqL8wsxmGQUMpC1NQZjhEAXKPLoMsS6b5QOwCBcVNBBGUrJ+bktAh7gYd1KEkxMLvBtGKgAHYABuAiwyO4ciLnWhbIoIBjV0sJKWnj8hIACAxF2SbBQrycTUxzdpF5NDBFLMM8uWF8vTKy2vZFW1laiHAFHQBKQvabtFiA93yT2WU8NGQKdUViyPhIHbAMMAJiLiwucgw4TK6qW2GYzOxOvb+AEfQh8xf/QduheYj1jLi8vGV8Igq8gt7OTQ0opkheG5jWdXqbY68tAo0s7myLwBi+Zfc7zJfT+excxZMxkkKR9v/dPvoFIPBLta5E5c2+8O9m5O5pX/XmBeuC5Z3gx1nzDk1bQsa0uMzgIBrDL0okO2nXAThDaRfzS+1/F+K7zX5uIWMSFE1xaBCWOG6lkByaxQpCBftjNyOAQ+iTYG8xqB0PB7h4x28gvUMhwDNsEUqQaWwNg6DVKCBmcs7oH0Kp4V9xU7HU7YPBq1dXPRFAQWD1XNpNnWDhDgTm+Lh7EbArBRVGzq1v22IJI2ZvGR8ciSvDm+nZ6cN/5wXu4b4ykIYwYrTC6DcTSBabM2XZFdKd/CSy6kdhNAoy6ws5OFwfXcKBImF8aAtYO+5yqJvgJQIJ2N7M5NNAsM11NELP9cW7kO7RK0y8yU/vaPt6jXEO++0aI/qYtB6y85uwQkwxQ4LU8N18GWqSdKqc1eol76fQ8XXQ6qK8sdpX9ewQymLs7x3KZW+nundn0p//PN2HCOFYD1IK5LjdUpUovaA8894DnfXXAOJrVsW3CXNQBOZicVlXEN9mf+2Q7zlOVGWWxS/BRBMyWVkXLYcCjv19LIOyLstSbKWLGwGRg+ekA89PpY2swmDWOy8gEwVZ80ILxRbVyGTIsN1OwQMo1RTACBrX0RwdmRT4NKYKVjMzkoO8Z7E2bgMbW/jYRT9CnjQ6nyWNH0NXVGfh3o53qtQwAarK9xvszWVeTIB3BCKiHABgzMvi0jSEWmok6l37yZ4Ag9VKULbMgbLdb0fEJVpYR/VE+D/vO/SbLlHWp95Mxe1+yKB2H4/zyO4vNq+FQbV7LUEy3/1Qr6ECuHvaAF8eNazfS//l//Em6fv1m3EdZnsBepRezB557o4UD1YGm+OqCz1pmZXKCX6wve6i/U4Rzk5nIMgJ8ONdBaJhyB6ADbXQEKyTszmS5qzjzlhkAimee534HueU4EGVDO4CUi3ULnDrdOjdUdmbeMugtU/DxWBaG3ZNZV1gnAZsOXGE6O7uDlcnSdIzWkkqhqUMWCaAJIQGa1N9DXCKAwDYLCKGvRLCzjn4XbEwCqBbm0O1ZBuAjwmW1gKJg7stSZ+ud65732z+2PwAI8LTPrKP5TaUcr1tcdUreAFSy8ap42h/5OoraWbS1bEEv6ws7eMnkCM3mC0ZN/c1T6qDsqsi9Chu8eeNmGDEmCDEVludDoC11iwpWf577HnjudXhxBwEtB7YhnQQUHWsd+A7IwiT8zAMy33O/l+gkAoIRSQYHB8PlApiK82RIskRBTN2TxKEMYAdSiGWIUAQhZtDS1QGcWBY55qCXmQkIDtAy8PyuOBuzOw7BJrdBqTcvvq0OUkdf59Qa7inmABMMwHm7iskzM8eCSd6C2a0sL5A3L+Cj9di22DbFSAFay6cAJ3N0U19pnDnJowC3D2O0btZXPaf9VH5bju31ZWJb1avJCu1rff9yf+aXgOebPNdz7Av3KR4Hu/M4HZihMYO8+be2mMlBWy1bS7r3T79ILeQGOnWflnFFavfpt2cfen8FR1UEA4P9xAPcSt9EvF1Dh/ult74Uus7S76VuXq9Kz3cPvBiAxz10kMjgHGxaEWNQMhgK4Pnwu5VBysgM/ZTMqgO3D90/ZHZaCx20boqFfm4wuNSVyRwckJaZB9FB2nLgM4q7HODo+nKY9Oyqog5L44N5ZYH+CzDiHBme4nO5lvsLI1R83kPk1jDR14fTMbMgNtHprWKBJtJmWsVFph03FR2jBTRFPNteZldYTitGBdmpYCXIeB375gCRz/LtH5Nttn4CiHpO26cYa19xUpxr3czvpyzRPIKYOj7b4P4CLrkdipVZrrSEKItruU+DhC8EU8njtcfHx6NMv1tXfRA1wNh2wU6XGa9pfd1kfN67ZQK5ajEfGdV9p5b+/Ft/QWToJ+krX/1KvMBymzNDjYtWf57rHnjuAS/mdB6+8RXRMvAdzkBAfC2+ZYqyPvyxkd9QTMVYoCVW52JFqHWYQjsRegU3GZDBB1Tke55sRbHO5OBzn/mcz+pABs6CwnieYKEeTquwVk2vF9ZPzvPTjLIkk3q8sNDGaRpEMjjKbhSTh9An9hNYwHM2cflYerIdMx4WAbRtjC8aFWy7M0hsg5cHsqhjjjCcHXOjdtRFEVKfw3oAXwAlYqHtOtiG4XGuFlYuFcAmKNlP5re9XufgIAdREOy0gHtMvWnWiWYWvB9h8bOuU8CL/uNF0coUvT0ocR1GbNkaQGSmBcgCSA/B1Ug3Rmtxtsj+vu4yuKnwYjNPrOyG6E8RAdZamfsH+mJWycX3LxEeazX9g3/4D8Kiax9bvwDwQ7B1X5Wevx54znV4PO2MTCMCz7EuwhMGiPNBV3FXUPzTT03GIEPIACXjA6gAIeyjMUOhG8tgX88AI6KVvIh8iIetzCAwjNQmllmtnrIbgc/kfFAHb9E16QiRLbFZOR+WSoGBASjgaRzRSCswO4tC1ui0MoEyGzYEogyYQB9sC/1egKVRlfMcVa3PGkJGWcc1RDpAawG3mXYsrQf4tywtKdZmsfDc2XNpYvIIIroWWsAH9hOzPqhT+OexUx2nICTguMn4/C1zcxOEslGHGj3DTM0bdaY99qes2PUvVmBjGn4812vJ33w5xN2BPfqpuK7FV8u09XKTkVm+YGV/qjoQeAVhWafHs7HIfLlvdFMRwAU6Aw3QrZll2lb2u7i6ixotwfwezj0K1juEtd3zbaP9XqXntweea8DzoRccZDb378/GHFfnzirSCnQOFgeSm2Jo2Rg6qavdVbQOdWWwO9etEKQENAHO80P/hEjop/sCEBiUDnYHv9d2k6mF0YHBawr/O0EvmI26QgdZFimDJXEdy3gWZCxbqJAlmacwKnWDsp+lheVgN71ELTl96nQyQIDsqoY43gqQOu1NHabMyRkZRcRtBDPMbC2mdVG2AFvAzmv5vfSN9Vc0zgtyI6oCmBmYspVUK3QBfNlzGGkAPc93f+kTmaSsN8oX8g7vlX0vOJo8x2vro2d7c3+xxCPXt78FKbokvnsv1R/q/Oz9LP1X/BwL4HpNyxSYfdFpwbaMEVx3NNjYdutYpeezB55rwPOW+fDqzW8Yd/U+ikeKPbozuJXB4eBykCiudQJ2PvLq5bSKtrW6PgViG6KmA2JhYZ7BKDP62MpZgMHPksqgc8AKiqYi3vndvGXAF4CxvsUtxX0et24yj25ENAd72SebM38boDYxNhFlz96bQ7fVlY4fP5GOsbW2dtHmbKzZJKDB2+9+P925cSNAf5Ppc4KELjYDA0NWKdx2gn1x7agLoPxsst0FbDzXPO6zTpn9ZQNJOTciKtOHxvIr9faTzotzbaOpfIZVmzJlfCUJbDI7GbFivH3gb+th8lreMO+rjNDjJkHVVPoxfvg7dsYpkX+eecKbvAxGmbPb0YXoflinKLecVH0+Fz3wQgCeIt/t27djsMjMHDQyAgeMm8AkqAh+Kt11JN6DuTlwYioWA80YdcZ9W8UauoSDq4PCTaZUmIifZeA7WArgWWb8BkyDqQVIZAB0v8BpHs+NQcY+y45jh6KW7EY25eAX0ARRB7fhlMyHoAmzO4ueaiDduX0vrMe9GDWOHj+JCDsZdTHE05FJgBEdne4aBh2wH5z8r47SqMkCus7GJvvGenhNP61DFjGzU7D9JYBbl1L3krf8Dpcc8rlfgPTTfqHScQ3rbtkmz2mHjQrgwczYbX8VZidEmcd+1iBjXco+z7fs4pcXAMm55nd/3F+Yvi8OmXJzl76OmTDqK1tj2ppRZAaHB2MZSa/5bIr78uyO6vsXsgeea8DLY6qFBXmWguEJdm4OigA89G46yzoAywANURFgceBpATWwpTpA4Cesms4mML+DqAy+MiCjHJiJq5Y5QBxkbg7odnzJzO9WBrGD1e8eF/AKGFie+/ztp1skPtTxWabHrKvnq/vb3vA6KZ05fYbwSEMBeM7zla1NAHKTE5O0eQu2q5uJQGeoK5yoh0cC7OyH0qaNrfWw7gpQBfS8fgEnP81b2i3wqIP0t3Uq9bZNJvdbjm0vdeaEaEc25pgrA58Mz/4r7Ta/53tchmey/e6z7aXM0tfW2e/e4zq61pLH8/weulbII0d40QCY9Jmw6WJGqjtmH83GFDX1j6Xfba9blb74PfBcA15+lBPhoOYD8BwEsjujguhD5yR2QcrBI1sx+ZCHGwOLV8ueDJ/uYFb/pRuHoZNMBSQdROVcB5rsIf/PA9iyHSuCQAEUPwUDLZqxqA2AoaHAgR4DlFHoQDY50Nxn0lDgAPUcj3vMCMauIjY8NBJgYn2NHzc9czSioNy4fYXFq38U4D02OkEp1APAE0icoqYOT5cPGZGzLDqIJswitLC+zSjb/rCtZcBH/wQAZfHcthSR1mNu9of5bWNhoiWqjMBX+iLaSjtKWwO86AMZnqlcy/zqYS3D/nS/eTPo5RePeaynx4y4YlLEtcNsm8n81ml3m5cDLzHZXtGJem47bd9i6t6Dhw9CL2psP9thmaX9UVD15wvbA8854OX78vCBUUXuhfhZ2J1Mbx9DhNPIgn0AJj78ipeKgvrMzWPVVZUULgv6zPFjC1aopbWAgINWtlgGbwwOYe9woOhrx5AGpGA/WHgVF91kHy1YUHVJkWmp+Ne/TfcTPx3AXs9P3S5kUQKdPn0mB6v6RoMfCAaGiBoCpBs9RHHh2uGn1z+Yzpw9QdikvvRXf/WXWJYXAb4Gn0uAEpbpPVxqcOUYQoyj2WHVBE7DwKI1c51o0DJTgdiXgOJpXJs6CZiljYWF6YZSmKzgEgBGPqO4lPyeH8CEf0sb9YTLscH8KNoADc7tNVAp6MSGaM0+70ULVugwkNCHqxv64BGxGQfsTvwN7XNfHjJAy/Z+qI5wvyoHX1idvLyKBdeXxC4Lfe9gxfXeRBRq2bM6W0DV52AWI5cvkhFAz6SoX4FedMUX+s/z64fHA+xg4TkNxpHf0vxkEMjE/IyNh1tWJtBpwZSR+HsBPV0ng91idFUxJJGDh6c+QEiAc3CZHAh+d1CXsh1kNSbDcygcdtsxfIThgt+Z5eCMzMDzHKOqmH+Hie9GUZGRyL6snyAneGjZNbpxDHqu7X6BRNADf9MTopUoHh4/dgIxdQzQ7qNmtBEH4/NnX0OkPZa++72/Tt//4dtR15iSxrUOCJBw7/7daJ+DOqILA/671MU+ce1Z62NE5XWMHjKkZ/tQQJbRFYCzw+wP95d99lWwX/Z7Df/7x8WSDExA4+zFvPG7yYtgn3p5P2ybM2ManegXAeED2tuHLtLlKLu6+iL4gwCpNdhr6H+no7UhuxRvZbDOIBHsnCljHsPvu2awAUWjf3kZ9fTwcgGwjTzT10eAVfSb73z3Xel0Ov/SeStcpeegB55vhscYcoDNzT6IASATUqR188FXbyWIOTAdoFnM3A/nXWO/OSC3YAuCAEQgn0PeMnvAc2UxsjMHfVHeCwiWZ4oBdcjYBIICBl5bHzX942Q1gpfAJ4VzilQEAeW7A1VnXN0qZFrhMyfz032D66q/02nZSCsGHQUu8DFUDM/uIxvrrIGxvkU+Q7kPMh1Ng0c2kFh3k8s3rgGw1snw9E4tkwUVIAtGRptkpQXsbIdAVvrO9lqem/k9Jssyn/vKeVSQvgHeADSt0QcAyx6zO3ad1E+bUgugD907INMB/SIYBhxS1S5eRgewMuP6CfzbbHQM4AyLox3eP5OiuW4zAp3XLvdFEdd6ZdeZPJ3PekXi07yyRNm07ZHRzrPanG4/gyODOV/19wvdA88twxPoZGo+0A5KB2EZwN4xH2735wGYRTRBUJG3C/cPwWwbdqNI44ARVBT/Ep4QDgQHRBnEsrTy2+8yuDKQAuTI7/UckH4G46E+27Co7m7WdUWs3mJBoSH0cK5spn5pGHBysn8TsdtrdwBsLn4jg3GRm2gThgfn41ruXpNZIIsr6fplov1OjqX5hUfp6MxxwlINHbIaFhQy3BX6uQ7cbgYov7Mzg30vsxV0H7FuioO3WNHNfbbBdrmp7Bd0bU/Zb343j4uwtiu+07+ZuWYwKf2f+4S+g8XVqYdiqjM3XACpHXm2BRE7MXe3piRbZ41c+kEXoU6syoZ92iS2XncXYquLgYNwhrlq9A1EH+nn2EUdvM/eL1mp8QE13HgvdeGxfn73pndj6S73wnr5bJhCfKYcGXf8pm3vvfc+EWi60zjh622LbbQfqvTF64HnmuEVdnH/3v2IDiwQqbvz0wdfi6cPu/8EOw0HPszul3ENsGqWyWgpvbAuB8gWDCP7eR08BZ5yHT8daA46v7s578prOFAEpthHmULBHspzQeTIkWl+kxdGp3vIOhPcR4dHQ6R0GUndJ3pwGUE+zdZTmRMFuPxjG4NYIG4wII9MTabRcRTtjNUlwHKJwAEGCdhm9bR9dFZe1Fhyu7hk6HS7yAwM2Y6bdbRugoL+ayV0lvttt+eqWyxifxn4Bdg8L14MfJoEZ8HYfAVMcp8IcLlfyAAfBSQpH9tqqm+spFMTzA+mD9fWUTtoXEGtYNiCVqLBbNFOdX69ANoQUWGypT3P7/Ualiuw2f/WW6OT98o6+NvNpG7UvN6r8hLyvhuVxeCsHAzAtt2ycOcEr6wup8kjk3GO5UQborTqzxepB/Jr7ItU45+3rjzjPrh5y4r0GMCUU9hIWOocoDz0jmz1ZerAHChOP2sg4kVUEQaIA19wVNT0ofdc8znYTX46yGImAdc1T/YX+9ivTXBwY2ThMsMi4AQkOHnidDgAC4C6wqzDYtQ/+V1XEoeqvoC7MC3j8Y2PjzlyAeWBNDV9hIOwM9xJ1H1pFJGh1QGJm7ffT1eu/4AlI5fRUR2kflxthgZzkNAhdFqC/zwLdUe4LNiQDLcYKGJQcw1/m2S2tt1+U8yznQU0zBsvDcDBz5hNwrkCUelv+8nvfu4CnluwMlM3kujSw/vp1ZmB9F/89m+nN7AwH6zhB4khxrzrTOFbJ7jqPkFOtbA3KXNicDid5kWx9mgpT92jnLgu9bBuftfJ3OsJyqoWTOVlV1yUBMdSL8/xvirax7xpWO8WLxw7/wHLWF68dDHy2n7vR5W+eD3w3Iq0T2+FxImBZ/KjDD4f2gAdQYs8jGIARQODoIWICLAsLy6H9/3k5BSsYR/DAA7HDFR03ICjLiEMSH7INHTn0D1Ddw5nZ+jM6/XqGCvARM4TiBjsrVmkDVbFAG6p7afLl64CqB3p5MlT6eGDR4R3h2HAfhQ9DdrpQjtGaRli+UGZ2T4MbWbqKOJed+iYJpkLKutx4R4HbdsBjtSwVFoLDgrIu+nSD3/AL9a8mJxGB8bcYCbvt3e0wijVdTlDIfePs0sgXWEgyOIfxdg/yp4YYTSMZIOBa2BkVxAtwrIi+zbYjyfQT9swMsHEvlZfZ/K3Srk6P9sFvhb888h+am8jvfFrr6VXv/Ifpb33Pkxbf/r/ht6sjT44QFzXyLJdY31f2rZFPy89Joox96C/gbgN63aqmMEDDDVvnw0NDYZbiv3h9e3fUj8jxNg3HhPwDIqaWWEiKjW6S8o5WNO9pREvIxcJ6unrTB9d/AhmOZTOXThHnWgr/xR948UQrav+fN574LkHPB/IADZB5ynwZZHER1bLXA1LpnHpfLOTLea+7hIowNXGThw/yYM/EGHCndTfzsDSxcTBE24aDF5Bb9sFsBlYe4iOXeifZGdZzHJpR+d3MrixCoaVFVFUZpgV5DC6gYN05fJVfiveTqX2Whee/0upGTOkWgg6OkL+bKk1+Of2lovarKfjR0+k3m6YKAN+oK8rddc7wwI5BCtUX+fauOutXFedYB+uJ5S/ubOeHs0vxdoe66tbaYBlHQXopywHEGrF6qnxw3/0Gv8ze2sBJPMgJzzTymIAnox2H4ODbiwOfDdBMeLh0UcmwUFji/2j5dc3C2QzdVBuEwPF1bs303/9O/9puvDKa2m3vzeNwlgnB+qxkHk/bjb1WgMGSLh6jBH0clpEHdEA2Hp7XJsX8XcDH71WDSS6vOyweM/D0N8p0gpuiuKKrt5/79vmJn0Saod8H62XorAAaBlZ9eBauFwPPa5BY9tgy74IL713Cb3uSBoeGw6fTLKjY81ifDS2+vO57oHnGPB8FIN4xCD0re3DXpIDU/xzXxnsfg9QjHF+ENOwdD6VVRllRdeUJj56hnSvqWgnTBTUIsBHlxJjs0mHZHxdnY0ofwum1QngKf5ts3COwHdwkCMW12A9ulNIiHA9DtDTF+zY5AkYnmGRmOoEILXhe+asjznWfRVyenCsdXDeu383TU8cCeDtASjWEOE22GRXHYCbFVhYeBiLEz1itkk7g/oIzLAFnZ2uNhoBZKJaLxWhM5ilEGsFAZMRRsIaHAYXXGAO9V+2xz60HgJ1uJAAlqUPW7h2vgPeg0N9JuWpNhAQBckDzqtxzrGW/jR14WwaQG+5h/6yg/4+efp8uvYA8ZXv/TCttbb5tIMF94Andm0TvSRg2Yshp8492N9nnRLKUd8GOY46LSwsIu5n52cNGjpt++LTAq4V2vsZbJM6Kd6aFM/j5ch32a311rVlY6PO/XTdkHoYQS5d+iC91fcW95RrP/NMRSHVn891DzzHgJf7naEWIObD7SAW0J61pPqAO2jd73FZmaJkC+Kb04tMApgDOT/8awF0XVhLd2EZnRgTNmCDqxgIcnj0jnDcVTGuC8gGDEF9niyqvq5fWY7GOzTIqltMVN8gvp6Ri2U+6pfUFR3sHKSRodEAUBlqb6MvonkME/7p1t07iL0P0tlTJ/EVg+3MP0p91FMQGxoZA+gAYay+HQBpO4DS20G5zB4wtPkybhoPcbPogn2CF+FYG6BN213YOibuw5Tq7ayNQV1kZeVlYD8ZmkrAi5cC/VL0d54rPCpi6lpiX7lQj5BXpoMJ6YKd92OPMppUoLWdvAur6dyZ6dR1ZCTV9HtcW03Ld2+n4xhflrcX0hP97eq9aWJ0ON2ZIzACgLW335aerHAf6FMqG4xMUVy2qf9c0Tnqv6fxSWDyuPdWIBPw1H1aT8HO9rjf+++zYbsEO++Hn7Z9Z9t4iMw5hlXeunUHZjyYXn3tlegjzzdf+fSZqdLnsweeX8B7Si8YEzzEJh/osv3U7YDtObh9cM3fyRvdz8foirLjatbVycjaYBU84yQtfawjAevbCfa2gzFhIvK7kPfIyChLIWb2MICeaBlmSPEhTsmohgacugSLEhxhEoae2uG8bZX0WCy9lmCbmrV09tyFNH38VKpxPdeeXQD0OmhPO+badZjgFnq6oyjxx9Ff7WrkQIzdZ4D39wEcK08wvBgIAUsvjE1r9AHgNU9k5McPiQmHiO2qX+ogBULXxwi2dPiSsKXOZDD8e5l8r0goMxQcXIbygHMFEFmQK4sZxFNR2j6yT03CnR3XSt85s2Kf4KRHEC/fevNC6hjBbQT+ukmdbn34I9xNuohJuM3LBzaGbvL4zFR6tL6cbmNUGR8mGMLyRlqmr3ZwUhbQFF0VZwU4X2DFIi5oy0Y7O7XE49BMm9YAVSoSeayXgOZ+wc9P2yYTHEGVUEBxnZeSLkGueMe7JV1GBTHM8ampibiez1Vpp2VW6fPZA1lu+XzW7e9VqzzEchE+/D6QPszxYPI9v40d//nt7Fg0mdekeCpjMHy7jsoh9mG1k5F1dOC824ZLCOxCnz1ZmN7+MgKZ3MzMTJThQHNep6CgaDyF24gDTSA1gKgDS+ZVQiLJKI1jpwgtcGhp1f9tgSget2/djWjL5196JZ0/fyG99uqrWFv7cEtBx8eaDbsA5N1b19DvMfG/GxBiYe02tl2jD7f3AqS43AAEk32sSwuQtAGUPVii+4gC7EA1jl6HYit95DXDwMJ3wUPLpQAf3w9BQ5DwPFeBU4Rug93hlky59AWg49aFoUDAYXeAndP4FNlBEfIDvPub6cKRwXR2ajR19qOzW1tMC3fuATYdzAwZTBPTQ0Rs3k13mNDfDVt969QppgjeBjCdjdKD8QKABOhjFgrXCoMLPex907qulXZ9I8c99Jj3Xqv32Ng461wQJZqXkC+aAG3ukffFNnofDSXmPbfyzmZxLvUS4vYWILuPvlIn9veJnGwEbM8TGKv0+e+B59oPr3S/3vK3b90OgCnRRrYZqA4CQdCH3P0aLRyfRt0dhZ05oA2cqf6veO2rD9LtQZYEWWLg4NiLBXEZnzbFN4OLHsES6gAQCBvk1ZXi1ddeBww70yyzPupYN9VxGUF5cHiIMjLTq0GvBhG1BmAXDjCV48ePygJRaAAAQABJREFUnWT2w0K6d/t+6ifvOJFPXCe3CzY4PTUFswG8AMdOZkYs0k4XtNFJz4FuNOY9dHSCcROGto3OrgcwrGN82HIOMW3Z5XjpCwFaRiabUySneYCJvchLIV4M+rKJV4UJ41foYca6EZedNaKhB7TEyqv3sGoCA5cyS4Iw8w10mVqPfaX0dqKX5MtLBN48eZ5AB+O9qY361BFVj89MIu5yVQD4yq05XFJa0hAg9qWzF9L22ka6/WiVlwGee9RNtxFBVZ+/DM681Ohf5/T62360Pd4L77Vzl73HgpRAp+9diMJ8us9j9oF9KuOTFbrffTEDgxeMLNJzdeGRCU/Aqkv6mOVF75Xd1efnpAeeb8BzdPIEu2jz9evXEUcc9Cz2whtcK6IzHAS5Jvs9JtNSzxTLIKLHW+OBdr6lc0j93Idt6PkvK5AZ6jIxNDQKI9rDn24R8XEgPXm8lNoAn24dhUmKPQ8ePkwvvfo6g7Iz3bx+K3VzvA4Y7COOrVGfyfFJ5tVifV3BpQXgMH7dAO4P26zYpbg8PXUEsXQ+Xbt5Nc09nAW00P8h2sZC1DBNZywI0t1d6JkAuZvXrqSxkYGYoVAzujEiYVcXbBTQWYa1NBn8LQz+FsTwVcDUQa1IKGNS76dbyz6shmKBOtAMK7QGFrszDBsMfgFRQ0AwZ8rbFQjJ51zXfsTn9pa99OTenXSwW8OiOUR/ECUZkG7juh2c20C3eAR2fGRqPA1PjcEMKR9R/tH9+2lt9lHaQuysUa91AG59tzNdvjKXXjt7Kk0RIOG7b/+bVB/tZ9J/Z+prQYdKO1oAIpOsWfZeRFoBzH1ZJFfs1CizGfo42bqgKCjLWPOWZ80IcIKXQOl3UJzN9mbg019SXe86AD2Eg3oP82+d6xuWe7Jn485zK0DRF1/M9FwDXrxjeWgNdX71ytVgcRFunYfcB911Y1Vk++Y3OXh92+vOoLiqT506tPBHA6Bkd06i941v9GM5kDMwZEYLTx4HK3C/FkJZoCKq7MOpYOq1xolK3GT61NL8PG5wMMVufPRgaOuwwsmxSdjeCGxQXdQeusAjiLtTMJLs36aeav7JPKHq76VHAKj6KuO3yUJcyEa3CQOdOqB1n5iffwxTJJ4f4Ly07ALkGxhYOtJjrm2Yqzpg1cK1ZSrOwUVNSJlYbHFbaaNeAh8+LOE+0iYjZR4tEElfZZBr4zz71wt2cG2UgOG7uEd/qkc8ffpsevmNL2Gg2A89qAadNdhnJygqXzrAXWYQ0J4kyvAkgNfL8R36be7K7bTJFLlO1uMYHp1M9Y7e9OARc4Mx8Dx4NJfOnzqNwWE4ff/GR7StIQKHW5D30peV91LgkmH7XeDzfhWDgiAm69YPUpG15FOMfTa/z0ER27VSl9kZPiNFfNXYJMApHej7pw62uO24BKYGmgyWdlSVPg898FwDnh3sA64v1ZUrVwLkYpI9g1Ixbgdm5sPrJqjJBBwgijkCnq4Lii3qtXyQAwx5qwuWIFl86rNmFA6nclmG/lwOnBKnzrIFRA0EkzC3BgaCNYwX4EfqhOGNcW4LYOEKXKdOs8DO1Ax+ZE+CLfSyeJAhnwQwdX7Ga2tF2+/APuAaGkEWAbAllh3sYUK9esIngKIDVN+zmzduRj2HsXA+It+1q5dDvHVhaiYKwyYR3SjbRYkM+qnv3vYBzrvMZx3EqXkIXaWgtwc475NXJ2rFd62gdZiP9fCf7AwfZmwdAB/55u5iUEF3OT09nYbRL64xLWuTUFNdgMwEM0Smj07FVK0WQGYCa6eMdRsWujr7MLWsbYf1eIf69TDf98jUsbSEz+EjnL4fbq7Qb/V0FFecVdxsnH2xSV3bYYq+yApLs/+fBTn3y8qNVuMxQUj1gy8lmdgaLxwB0fuq+iEcj9FXCG4+P5Ylsyvluz9vBEgAqD0vgqnSzwKgz4pInNmhT2GVPi898EIAnvq2WzdvwTBYqJrvLla9w2DLoo6zIzLY5QebQcvzqpgneypvcx98UzdMSzBz8KwDhgKLFr153EM8Uf2OyeloMaBgRIo/ioPWY5QBro/cLkp1rawD5BvTRQKReY5ApYZkP3P6JCzuEcDCSVzXZRYbDZ2XcXHhuiuLSwGiGhkUz1Wwf/DBByFW9ff3AZ7z0UbreO3KNRRsLbEY9To6vCWmkTn4FVndthmsvQP90c49ylc01OLbRPc1jNPvAP59GjHWYYh1pnp1w3yoBGtAbAIbtJcNzhMg62wG2XGNl8AHVz9M3/nhO6mdJjRgg/rbdVHfSYKNTs9MYyBBX0Z/qFfs7IQ9onOsrW6kbhigIn8f15Vxdjd6ccRuSbdv3Eg9TKmbZV50d1dPGsBVJ8I74cHsnNse6qqxRyDyvvopQMng/Z1fbM46EfAMappDSXnPy0vJ++Zx733oMLlp/hYMfelQZIBYZo3ZaOM1ItQUz9AQ9VNtYHk+LhXg2aOfr/RCAJ4P4E0Ab4HBrte/IOE+9VZGLFE89KF2kPhgG6bJh14gdF8BO5mekT58yPVTE/D89HcZbDI8LbOW79YNuzOmnEEB7t+bTSNYB40MsoOxoA0GVQN0Rvu7Uw/MbxdQuYcO68RpdFXTk+nRY0FvBzCdQwxdAlgb1AUEgZU8nJtFitxJg1ga1bOtIXpfvgSDI5rIKIYAxXGno9VwWl7AX1BG2yBCiJFXtgCXA+q8Ahis0gatnAHK9AfDOnUDIKbHuLu0M4D7YEJdANEmLMxBP4EzdH9PR9pERG1S5yaA3sQR21RnpPfwUhiiHzrBloezd1Mr3sBjGHealJ/7jroAgi38XmBWxKmXT9OOntSCbm2A/YP9DXSfBGGlyC0WGO9iCt4gLHAR/eg2VPIhbHiw0Z+O4JcouK5ggTbApyAToi0MV1WE947OCdDyXghMivAyPJMvPvMLesVaK5j5LFhPN++9Wzv9+PSFyLnmy3kEViE/W2lHENENo+WFK8Czlz9f6YUAPAf0HE6r+tTpL6a+xofa2RF+VyTxdwY2BgODRDCUHbjfB90UefhUDNSPzgnwuo44mNTV+amrgwNhCVcSRaN2WJHDy6gfMrF11sRVf6d4PDA4CpuBpa0yTQr92hguKg0A5v0PL6YpJtCrC7t77x7jU3eOdaa3PQgHYUVJo6RsAlw7urBQVh+iseziNsC+hTjoANZyaaQPw9JvwlZdH9Z6Gv1lhfPW2L8F+3FubgsKd8GwUUOcZzYINDStE6fp1sJDALCeRjDCdOEovL40H0A7gTFmatylDetpGUfpWaanyuKaTK2zfX3UZRC3mUH0bQ0YWxf9oMuKEU+0IMtOR2CWSwtYt/vasXSOpB7a0QErHRzsCQdfA4HGkpL436E5TXsEFLiHE/UWLLq2U0ujrLS2rhEKENOqatv0i9QaLph5P3Uy9tN7E6DHNUKMpwx9Dgv7k8l53LzPvuT8nrdsubWvC/B5nxVlvbbuSBqM2ugPdbfe8/w88aVKn5seeK4BzwcO7ApdkyuNCQagVoizPuACmmAXi28DXmSP3+prDthvZJJ2QEOlvYyJ3bAh3vQ89GY2dp37nHa0jcXPBbc7cEo2aGjoyRBnXf5PBtCB2NbC1KhFjAn6o+m/pw9dFwNlextxr6s39RHBt4fzxwkfcuX991Ln4AQWzkmmsqHEZyB1oHdaxSrozAZ93BxsGi6W2RRFI+w5/m0ySa2xnYBeC7qoTcC5hQG+BZgsUudN9rlIt6KilmkNGoqtHTBAoIEBDljALPuZSteJ0eQuLwtMvriRAFI9w6mtCXg/WkgNmFgHjHIAQDvGuTuIpzUMGAZOfwKwCcxTtO/CyFA6DoPrA9yXuP596ruFWdcV1nbQG969/lFEizly9Gi0QQv4Lv3QSh/JnDfxzzto3Uy9Y33pwf0V7hF9hjFkg7u7xRS1x+jzXDB9gPnCxg1UrxjhtLg3gpIvlwJ43ndTC/V09Tett2FRpf/Uv6mf1Njgs1NYnOfmF2LWWwp4Ap/7fKlokHILAxD9OIjV1rLzOVSiSp+bHniuAc9eLg+dwKYS/6mVFmajOKpPmYPAN73J7w4eJUdFWgNFWobWxxoPt5FB1P84iGQUWkx7VX6zz6Ud2xRnyB9Rh/m0PMWdHWLSHeDWsodeagd3E4OLthLSSUW/IOn6ERNMDdsFLN0/ij7o9vXr6LL60yCi7P279wDaDurTE+C0CIOMgUqdjEqyjGFABumg00Vim7roQ6jYG6GauM4udVmFEW0jEhslWP+8DtqqWLjK7yVAchuGVkds7G7QJto8DpMbAbAu37yROnE3aSCu9zOgndbWfLyQRgHhM8xAOMN81xMA/ykMG6909KU3sK4O4yN3sLeSBpCQZ5gqNj4xhBGjFya4m+4zpUyQbQd4tqmna+M6g8QlJNmJ0zQBSLlGDw7gKBVw35lP0yeOoT/tTw9ml1PPMKHcYXvMqeA+aWGFnXH/nO8siMvAXe9jAzAXvNwEP/PI7HwRytx6MfbUYezB7jjqanXOCxbU3Odn3GuqZaTr7MKSRWDXEbFMDVdGt5E55pJZ2Bs/Tv0B8+8K9OiIz0V6YQBPq9zdO3exbC6FHk925wOtSOv3mAQOQAluPtSCl9/VyZkKIBosoJzrYBAU/fTRNkil4o1AFCItLMk5pQ4URdkGbEcr4zxA4eDoxjdO4FDn1Q5QrsN8jNLrzFR/zwx3p7W5q2kDK2ILc0TnqfvqxiqDGCMLzGSXQX6AmKgDhKxUXaS6Kwef9ZZhCbhbtE/QM0SToCf4b2CgWEBHt8Ex/Hphas7KgA1yjNzhS1iHuW3DbMcJS3VsbDQ9xhJ9Y/5usMkJ9g0CDtO1zjRzbDT1DAHGHS3MAe5LU5OjaWpskPm/Q2ly5niaPn8+7RPVZAeL6gi6OJxJ0sKa0+eINYi7ieK+YfQHANOOBt/RER4AJiOjY9EP6goNrlDHd6+zDpgjEs/jBtSN+NrcB3hhV+u023sk6NtmLeOyLGdJyNi8R7GmCN/hd/SZkKcDMvfaFxh1cD5zDv6aQ9n7fJj8FBx1qv5YxHXeLb8BtSLW+hkGLfqwH0OW6wDTpQG2UVD15zPvgece8OxhZ0T4lhaE7gF6vu0dHAJXsdBqkHC/48F5qDrV+tuBE8DGgPLxd/2JkizDPKETBNg6YCaMC1KTuGxPGHhYBylPt46mFkdEOi2ZTuDfZV8nANnJORoRhrCutiCmOfj6cC/RenmwRph29GR7WHS3UMzrAK3RpAFYanhR/Mr6SOrLubI766N1OYCOPGtYU2Wlm7R1w3M4fsCmv6BguYzIvQ4T0wHa1c4OAAajmDykr1r5bX3mmbc7govITD/+cm3dae7xfeq/jUP0ZOqEIa3uYmyYmk5T515KHVNTaeD8mdR59mSa5Pfk2PHUjmV69OTpVCOcfTdTwnTW3iCclgvtgJ6ZZdJrGjz6MFbUMeB0YOQZZwqY4vgGgNdKTPeNrZW0MLcQxo6ZKfV3W/Qlc5VhmMJXASidyP1uH9sfheULfqoTfDt53L6Trfvd/pLZabzxnGCD3Ds/FW09LkiWYwX49I9UrHW/z5i/4wUIEA4zM8b9pvIZP6o/n1kPPPeA54PmW1YGZKj0G9fyjAsfch2SBS0fZjfz+pb3oVex78NuPj8jXp6Dg1vlPh94z/G7W8Sr43xZlmXKtFScQ0A4h8ECo+rgeBegtIBPnWJYO6KrvzdZQGcLUJvAwocqCUB5gGUUURp1k07J/YjM+s3BUcI3cBCQGWKe7DpAsIVOL6KU0D4NFKVOBdB3ADtZne4n28EKAVUMFO6T9YU+EgQw3yZGnC2YrQCpjnEeFuZslO3dlnTn1j0MD+0EKJhE9B4N1rhAnWqI3EN9Y2lriSgzxOYbGZ1OAyPMFGGC/yjr4DroN9GzJWaEdHEc+S+Nwha1vGppfrIEYLHPwAa6zAzCEI3KrOiumLoFeMthCVmIrnI1zd+bTx0EHTh5ciY1MHpcZ1bGMjGjvL89AJ9g89SdiMvKrr0/9kcAUTBhQI974X0tBivz2HcRr497bN4c8irff0Evny+L11czz8/WWOFaF/7WlcVQXrJ8Uy+qBY1HBXBjZ/XnM+2B5x7w8ps/v5llV49Yo/bRo0cBWE4wF3h86MsDr+K6C1HJAJ0CQoAZt0jXEssS+HRlcL8DoDzMRjRWX1NEZMuWUQh4KgQPYBNtIK/rZCwjyu1wrAuxdYBB0QnoKTr2IoZ2wQKbRP9dBuhqsKEajGoQC+5IB1eHFWllnrt1I64/gWW2k4H2EKDYhYl2MtBsiwjvYLYtBiyR0ck0wTn0Ylmf5dxYxmfe2O9cWM9p5aXgwkEblLMP6K/vAxiIrXvU4z6OzktL+PFR1m+98WY6yjzfd65eD3b4/kcfpfevXEnHZo6l0V4chruNwox+sgPXGdrVZOW0bsRG9YPbB1tMCcv+bvcXYHCs7eFrYQc219sg8vOx44jG47BfZnPQrz2IpoOA7Oom7jhX71IeK7Chw2vi1jO3spGuPFgNlxv7XpbrvZG9q5vzdxb3XXNWa252uVG8t70Cny8v76NJ8dck+Hl/zeOzEC8V8tinluExX5BufbBzo+GokxTsXDFNNujsEsNQlXxRcPXnM+2B/Cr6TKvwq704/I4HzocZ1oLz7pkL55iXeSXEXJXOzqrIC1m74EwGMUUUKBWDwEGJE6tUizJcK0JXk2zNcy6tuh4ZE24tgiDfQ1fGd0lNhEpHj1cjgnFiHu0WMwMOmgQHbTtIS+StMWvigHmgp47OEAdvM/3oww/TK2/+Gn55DG7AZY0oLR3MVNiivFHEwCHcVjpm76EbqqdLH36EeNmWzuFzN4po/Hh7Ld1GB+iUqU1Aa2cLdxoU+t2AqlPHagxW/f82MJysM1cWGy3TxrRoioKKxIrwmAeU2Inf5AD3n1PWNpht0QNzaR/pSxe5xt0rV4nG3JMa1G1nq0mgzmvpjQsX8CXEZ28AXdyAodER6ZlHi9cO9WykHfRv8+gxFVlXcWNxcaGjJ0+mU4ioc3PMnaWtk8eOUhcqgJtMPJgAVzesra2VFwFuLtMbzXSr51KqESHa9TpqzD32hbW6tZp6tvNUtz0W//GcJrM/ZHqCkGGd3GTdgp6sqw3GF6zP+0Q7BUlfFHv0jw9HjRu4yb0xvzpRreDed4HMf+W70a51T5qYmUpHWqdhrfexjDPzhBfIyrJuQ/oIUjfBEnDkInE9r1qlT78HnnuGZ5fWePh90BzQKpLvzc5FyHatrD70siLBjmfykLUhAmG1dL8A57myBMFPUVDRJcpjsLgv3FoK8JHXQeCg4IJgB296wA66QSj5LWZVYBygzNmFNfRiOtsSXQXxdRo/tNnF+fSIwT6Grkt3mF6PU/esg0uxItnMDKCHfmsYhf7jR4i+WHiPM6WpDwDpBZS8ro4Xrtm6A1NrRXQ0jl0AN+OtHd1SN4zGd0CI4dTVNWJxyKBdtJfB2yS/ALmgHpLpXC+NDaU+Y7Lj+PsKxooZWMvctRvpGkxzBSfgxvp+On3iKMwOY4O4Qb/19HZGpOJ2fjtNrwY4b/Ji2KFPakzP26IunYBzA+B6cP0KDtPdqQ4odQLQI1xjlDbZdsGigZW6G/F1c5VpZ7C2sbMzaRuAXJpdS9+5OZfmAaR9rLH2Ow3hhnO/aIPszPsq81O/JjPzfgfs0L6ih+MMriW8e27ctqeAxiPDM4GKg76V1ZkpWB710GBhGfr9vf5rb6YTJ09giOpMD+/dj3Bbxhxsp62ujZHBzguUFFcrP6rPT6kHXgjAC3DigXYGhW9snYo/uPQhLCaLMgJb2XwwI6oKgKdCO/Q65BMcd8gXRABQyQMkDyrf3hkE813zHDeTwKLvnlPO6jC8UcIauf7D40VWJWNwDOB+sb+6mGYAlUnYz+zND1M7DK8FsXoFa2w7EVCkXY8eL6ZHsIdJFPmGezcdO3Ei3WcamdPTpifGUgsGim6u24AkNfdXMVAQ3ggd3Abgtw+Q7IJGbSjDepptutUBhui1WEQoAnsC6AYMUJxvAEQ9tPd3Xn01feO3fjN10b71yx+mr584ks5Sdvf9u8TjO53+4B99OX3lrZfSubPHCQrgDA6MCvdvwW720ysYLozTR5F0f3QCYNIa4i8XDNYku5RtrWA40WiibtHpbQ2A/hguKH24sPRj6RXsmpQ/N/cwHSEAw8jRCV4kTULeL6VvXb2RNoma0gVTj6l+tD+YKeAmGPmSy5/ZUquYKWhp8PGee0wg9H5m9UVWBwS4RdXzvVa357NjPu93EWv99F4bA7EDcB7GQCOTdH5uO0CoCmSA+ufZF961kirAKz3xaX6+MIAXTzk96wPrIHvEvNUnjx7HA+9bX52PjMAH3aCf+q85ANzcV3Q8BrC0DJPHHAQ+8H5n7ES+kjc+BUMGi4YQ5LY0hnuGrilriInbsJ8z00dietYA43CcKWZjOPN+NPskDWDAUFzTYRougqg4kJbniVCMov/MmbOhN+qF+cycmE4/uvZROoJIdf6ls6nOYOsmEEAvy4K172ykoVov4AUYAbYI6UI1ojnO14jnBgRgshduKYjmYTjoS0PMXe2AKTXQRU3jC4j2LQ1iXPln//T30td+97fTEYwFAzOTiMowRUC0D6V9P+cI3OPMrHjlwtn0G196PY0Ns/gOorHMWAu4IG87vL6bjtC67ChCtwH8SwRXWCZKyjCzS1Yw4pw8c4IwWWOEdHfJxf00yyyZdYwok0SRadF1BYBbWN5Kf/jn30uriMHdgDSwGv2v5T1P9csWVu9XeaEJcN5/p/+5X7HX++59jHsKkGZ/O+4Z+928j57np/dZkCub+lfXsj1z9jR+hOP5uvS37k8u6q2qQLVJH+2wB8rLtzyPcdHqz6fWAy8U4Pm2V8QxrI9s79oVdHkORh5kQc8HWvByVoUOygXsyoOvr57s0HxuJgeCYKnHvv57Jo85mNzMpg+dA6MVPdv0EGvNwqL20BE9gOVNjRK3DnGrFXDqB0AagKtx+BbR/7xBEAHn1166eDHmtI7gn3b3+s20Rt0uwKCcvTE43JsmTx1L//p7f4Nz71h6660vxXzdPsStAQZaN1OwWjAKuEbHJuftIZpxQSKNCHoaEABABqUSq+tBLBKVZPPR3TSMj97xY+Ppy7/xWvrPv/7VdP7C6bSODq8NEBqePAIQ4XyMHq9eVz+JI+5AL9PhptKJMxgcYKtdzLVtYUlK9VmyIwGvKDYPaDu9CONUfIZR0e4NLLArDx6nIcpWruxATzlE2/Z48SzppExH9hmhuWsg7SMGd9HXS/Tfv/zTP0t1rL/dALSKBu+HDE53Gu+1v7PjMHWgndbFCDhaYDu5D95jRV6TFldecT92372HvvDcnv0ezwT7jOysRX94fDREWpfuNL6iIcHodAAzW/OdgpjnaWd3pwrwoss/9T8vFOCVh0wdjOB059adePgzYMlCcM2AIRlFRP2W4OeA8WH306lk+4dg5p1yAPim93x1ZDID9zmISgpgZFBocWTZnzTF+qYq97fw9l2TLcK0TqGsNxLwJBFC6rCZng6U/oiv44p2E6Mg0UH6y3e+FbHhGoiz3/6jP0q9OPeePTGDhXMVIOhNr5x8Kf3FO++mWm9XOv3ma6kP5tjAJaSjBxDtrqfhtq40hvGgBhtZR1zXGqvGr00mCDD1EW69Rry5XwOU/9l/+fvpG3/wj9NXf+fLRGp+iXL60i4W1x1Ec1dra4MNahjowUm6gzr2jozANI+lSa7ZP6wfHTMQYGFGdqmhRwRyMerIkHQD8YWACw379gDhfeLiGYW4BgCvoyNcJjzUMCGxVlafML92IHwiXbZSH0EXDu+qdaMLZCU4uvjxg4X0P37z/0NkHEaMxppsp4ur3CPvi/cs35u8xoWHyz3dRIT2u3OfnfsqCBoMVvA1ea5JYCv33zILeBYQbOe6vrDQAMNOWb4R3aNWWtm5cRH1y/N5EOyMW5hflPllGBeo/nyqPRDGsE/1ip/JxRRB88a4iYduhAfz5ddeJk7co3igdScwZFSwMx52xS7QK2Zg1HhgfWhlgg4EvwtsDoYygPTUV7RxvyziqU4vBiJsBpDpFBAZ7BH+CGI0im5nC1cTLavdDFqZ15RAhV5ue30gXXr3u+l1rLbn0c+N/cOvpr/54aW0UOtJb33j99L//i/+F4KEjqRff/NsOC7P9Iymb3zta+mP//03U+voYHrl7LnUD5AOoXebuHUvrT5YI0TWg7TOot/b1HOtFeU9bcF4mnp4AcxM9KfXvv676dd/7XVE5hMR2kqnQOe6rhC0VHGsCyK0h5NyXg2M7oHF7XfBclgprdcoMLI6QrfXcRIO5eUu4FFHl6nXCX9kXE0ijTZheLwD6CN2t+I20o6zNTMTjh2dTN9796Lz0NLywyeI74/T6IUx8vMSoch23FBasPy2UW7zgHm5WEBNXfSrYrr3w/tX7o/Fm7SiK+bqRG47/C3bN68T/t1nLEE/VwiOGs8Ax72XUUfKKPda0Viw8xomgc5MWmNj1g11aAPkxpkm56LqPh8+W84AGQMQBc0qfXY98AIwPEYKHCMDnhjmb9/gsDPezFeuXY2HXlan9VQRyod5V50TeX2sBT8HlP53ZUD5afKBNj9QxgYbhAV5kuDnAs0HgJlXRBBLA4hvk7CXAdiRYs9BDSdkRMdB3WWOsIwixotpLJA9/YSRx7frLmLtJmuwDjOgRwjMeXb6aFrHCPHDy7dTC8r7v/ru2+mNV8+H7mxzixXEAMwR5qReZrHohtZBDB4jsJcGvn97/J5jrux9podpaTbCcQPxdhwkOQ+j/Mbv/0H6j//g99PUS+dSHT1iTFtzUANSrk+htVrRzwXHm64PSyNdzKZJ6KduxPVerM9tvQzmbnoCNgh54zzywJR1caGT+A6rwyFml5cAJcJ36deWTo7j+kH72lqYObFIEFDuywTsdJcFc6Zmjqd1zpXZNmDJOmDXYMN4n6TvXLue/uTbf5GOjIxjHMhGIgHFexMGCUTfdqbvWYeIQEw9BDWZuOoJ76fPgC8y9YlDgJ5sL1t28wpoSgKCY2F6Pj+FPWr0EvxiLi0MbhyVwij1dv5vLOOJS4xrjIShhGfASC4uDlWeQZ+fKn26PZB5+6d7zc/N1cZ4QM+eORP6OxegiYeat3E8xOheyoPtAPKY7M7vPrBF5LExz+73WBkUij9GBu5Sz8N5SKYsXtMVc2cbik7MLe0mMspFQLfGb2ciPEaXNcxCPRMz07C7V9G7YalFTF1hDu32xmL6zTNH0m9fmGJ6FeGe7j9I/+r/+vfpwSoDmrrtAQZTGBqO0a4bH11OC7Oz6fatB+khIdJv3GatiFWiCGNcAB1SD2A1TN3OMgXsK//06+lLv/Um4ZoIV68AukV5LPW4S/5tZkJsoEPbwo1mi0n+e7iD7FPHA0TAA1iTYnEngN2OG0oNB+lax6HPGkpBp4PpzsFl6D/AgU1rd7x+6IsQdflssr8FsbwbVqQz8xqBFDoR7xcB2cf4/a0traZ2oqvUdbMRhOnLLfwb52DCpjynNYui3qcwQFCuLyOqF/fRe1LunS8/7637im+e592+fTtAfRSDkcDnc+C9NZ86WpP5jKnoPr/76aZIrIU2/P1QcfhCneQ++gwoVvtSfIKDuDpgk3Wp0qffAy8Aw/vpTvUBzSAGSMAMrgE4hlwq81N5goMBOBtBJpDz5ilKfnfzAbacp8DHODRKh8ljPuiKMlrqOmEJRABIR9B3TTEo+nnLO9gfL8wzk4EAnzgZC4TnTh3F942oIMdYmJrpZN2AwNVbt1gFbTyNHxlPT2avp92Vx+nIxCRRkc+kBUDrf/3r76RhlPkucAPdYtEcAorC6HThWGf+7U6zA4fmG+mDH32QlheIqML81S7qOUr9zk1Ppq99/XfS67/xCjo5nGOZTdKC6HWw+CitPyToKH5+q48fpjXE/l3Abo1IyzoI7wJCB4BPuzNDuHY3InQnursauivkc3kbbFf+hgoAcRS6iK4Stgxm7LpeLfXeZ7859HJ09THmpPCdTsSR+c61W6l1CHccwNPoxh3NOq42Hfw0ujCO4rDjOZjq//bNP0uXbtzC/cXIJHlql/fmqcjJ/SmuJ94PRU7vmYAXLyMArdxLAdCAC1pt3QRNQU9Qk9l6n/3up6zQ1cp0UNcp2X0GcxhFZD1x8jhsGGd18roQu0FYXTvDsn0ufCYExVwPn5YqfZo98EIC3tMO5uFXzLhPlGEjqThQHCAaL5qIsNIDATHGCIPEYw4Qkw+sm7/dZC1lQPhg+13fO10StB+24xh8coJQSzihtuKcp4NtC179d2Ep/UybenRnlkjCfSHKbcBsjkxNMZ8VnROWxbt376Q33ng9pljtrrOWAwCpe8bZs2dR3C+mf/Xtb6c3z55JJ/AF2wSQdvDH60Gc/cF7H6YfXL+frmDZ/egH7zErYiOck8cA3jPMif2NX38tnb1wnHBSKNZd04J1V5fv3Ul3Lr6drl38Qbpx6Z30+B4gS+ipfabKPVwg9h7bAlPz+gi+2cBY0c1Mj57p8dSKCN7EMLJHXxgEoQZ7dTnJsM7ShzVE3wOmqe3yGYAHJDp1TeF4j/7IVlv0cczXnX/4GMdkYgQCOruA9vnT5+h9prkZW5D7tU+/vvPB5fTf/Yv/mVkqAAzxBAUhLa9aZ3OEG8qF4XmP9LlTjBXUwvE4JOzM2t0XTJD7V0DP+1dALqKuAFbO1in3VTAs7C8zV+4loLe0vMQc3+MR0str6iRtnRcIcirA+kz4DBmU1PN9birgczR9eslx+sImxmO8baempxlQgB8PZYhDDJJYYxWwygwuW14LuJUIKv42qecpLikFCB1EWv3UfUXUDlR7OtI2enGJQcHFcE9TTJc6hUFiFgDZYYA8vPcwrLRXPriCy8VKKOMvnDwGyyTSLzMaxs+9mkZOv5GOHmWt2is/TJMsGPHf/ldfT7//+oX03/zz/yG9f/U2A4mlGDn37u05rKkd6Q//+A/T29/9PiJnNyJXL2U208RAR3rlS+fS1ClcQIh0sv2AgKF3bqf3vved9M0//ZP0/uWr6YD5sMd+/cvpwlf+cTpy/s3UPczCOYi63337+8ShI4oMa0q0snXjRtLC8pTbXMv5tk3CNzE/Ar2YjBhLN0YPDRhhxOG75qAQZekB2Z+ifisvFzzbYHDUb3gkjZ1h4Z45VnZjZsXq/DIMEEOHrKiXpSu5xoO1rfRv/+bt6Pverv6YLywYybYKkHgfuY0BKM66KK4ngo46unIvLaR8Dws99y1Ca5FPMdXFvL2nLtQkM/N5ELTc5/cAQT797Xxay/a7L8pdmG04HQNuXt/9sswVWF+VPpseeGEZng+fflnqlQyUeZm5qYo6EQGXASiWFb1NMUz4oPuQO6jyQ3344FOGoZTiJEuxbAYgpaCc5xNZrsE0qaO4mByfnsK9hOEt+8FgUWfxmQfoyTYXcBIWlAiyqRXRiMVHEWUN5T48NJJ+9KNL6diF13H56EvDePT3Ie7N3viASfWD6eSpk+lvLt1PF7/31+nlc2epYz29/e6P0nsXr6S9bpYkJH8PU8x6Mck2MDj8Jo7BU6dmqBt+eUwfu/PRR+mj779LgIT1dO7Nt9KF3/xKGj91NnVgDNhsaU83HjxJl+/Mpb9894cRROGrv/PVNEZ04sYUojdMsQkD2oeZtQC29A5rWOyxMcCVYe0HBn4T44uuKfuwvB1YHiuBRBy+PfoBjKDP0I1xvIneD3NCuv3Dixh5WOwaq3AfujCBsB2AXcPd4//+N/8u/fP/6V+mV0++xnxXT5atybjzrArvk8nXUYv3RpUCyXsii/PeCnLq2WThGQTzko7eO++v+8p9lBXqdqTDssDnfp8J82i40MquL6PRUc6fPwfbNGgBCz3xwutEVWFYMsHT8z3XzcWW8ss0qlb9+ZR64AVxS/mk3lScYLDIN3jA95nvqcNAnQHlilrZkVj25ptc8PPNrdiaQdH9Dikf2jhOUVFa7OfQITjuMDe2A/FsrJcBgHi22cqcURTynQM96AyX08jsVvrq2HT6s+1r6UeLs6lxqz29ee4Yc1QfpauzN9NJAgsY/Xh6cDzdvHotXXj5zP/P3psAWXad933f23rfe7pnepmlZwFmsIMgBVIkQUiiREmhFEm0U3Js2XHsKrmi2I5LTqQkFbscq+REqZRsl51IlcqiOLJUsijZEU0SkgiJCwiQBEBgZrDOvvdM7/v63svv9915IMzYVUpKYBGcuTOv33bfveeee87//L89tvCr62bimZVk6dJZkg0Mxd/6wcfib//mp+Kf/Mvfj/c98mi8CkjNnH0z6mRRHuhDf0TY1+rOrfjID3ws9qEPrCP6rlJAZ/rV16OKQ/HUkx+OI4fuocpYB8kAZlDgz8TrV27EK2+8GTeuXY6LZ88BYhH/6Z/7sRg8OBEdE4AQgFxvszAQVklieuv0524TKy6hZXVYLAEawB9gwL+G/SKI0JdCWiZ04KOyoRa4qdT5bpvfm6+vm9C6Kvqz64j73KX417/zqfjQD32ctO8kcUX98HtP/QEd7PHyxoB3LjDej4J16efnJsPNs8EsK1jIDfRV3FbXqquLLKyCe06r0pwhhcb00sq00BsOluUfGR+CqPV83XShERRNTJBgCniqm5O5yeTctwN9ZicLjeNDEXaeNPSK9zX6ybKhRoIIhgXw3tGCVvbpt+rPHQx4TgU5AO5vrLz9VNXaQGHvQBbZfJYNaGErQE2ldcHuHNBOFgEvLYRM5kwgwHsL4cgcddvw8Na5qMKuRjEkKL7t4g/SrSIeq3AN0XR57kzsJ1Pwg5Mj8QenX4wL9fYYI9/d8Eh/XHjtLCnWR3A36YyR4xPxzBefRZHeEyO4sGwzwfonxnHl2CWI/nqMwHL+4iP3x2+99BpAQV0FQsn6KeRdYbJ3wE5GcDWZ2jtJ8ZutuHzufObV28ZP7IHj98X9T353zDNBzyxsxPVL5+Nzz3wxTp88CysDkKh4NoTe7BMPPRKPPv4IbiLjuM3QfiyzBs/LYsEQrlXmYtdx0fkoAMg+UF2QLj70C6sLrjsAEz/Jh6wsj0MfsrOuK224yfRx3a+fPhlTR0/El3//s7jiXI5nLr0SP/0f/VVCzvZFvITeD72o52upEwrm5iKliFmAqZ9JIb0f6tkS9HgSqGRats79ecrXLdHY1F4prgrSfGNUhhlTBDSNGoqqWrw1dHkKx0qL+bk4OkYKXWJwz4bxyZuF5ZEWC32pVl6lCgGvaIPnvrt9K3rgjhVp7VxTOxk50U6yS90FLp+/gBimwcKUT3x3++HA9+HmwPZ1S+/jZCkMHEyL2zNOpuBkVm+lHqcf8HwQy6txqlu4V4zhMNxJAs8KhgUCITAK3EQMwgEY/dfsmdmYwbjQgz6oxuQXMPsJsar1t6ELbMbspWlcNyYRj2AvsJYSLMTknRfePB8XYXVl9JArWFOhWvjgDWYuvc76ZtwDq3vg0GRaWE8/90XqU/TGB5/4cOw7OBWnr8/Gv/rSC/Ev/vD5+K3PfCFefPkkxo9VLLjfHx/54AfjBADz+L1HY5SwshIip7rIPt029CnjfFWzwXjFOt/B5qqIs1XOad1ZyB61MXA6NuedIisWV9cKvgEoYHYuFrA8Mkbh3wfzoj9rgNgmhplTT/9+jB46iiWjN2ZgpD30nynYrTHcSc2MwpGYUwqo/BNY3bw33hOZm2CYfniyOwAugQ+QlQXme/b1nmrU0AIsGJkaPkEwj0ZbuQ5GQC6CLVHXseHvNSxpsYWqZi3ixx57tABwjmPmlAR7rm1udi5BUHDvwF/SMWaUx9vPc/t0d5/ewR5wXt6xW7G6EqMJ+EyMo3xnsjmgtfhlvjMmgwOy2I9p5YThMx8OeL9rvU/PfXrSz93c1+91iG1nQhguNQJrKQFO5rlrIwNwe99Q9BOIv+fACOmXduN+gOW9H3gwrlGS8Y9ffTXOwQquXroZ506di/bV3XgYRlhioty8dhXxiFRJFhjSggh4lUku8Pr5yxgOmGKwiFuEis3jw1fF4HGQjCNHEEErnPvqubNx6NhD8cH3vo+MLO3xJRJ4/sLf/+X4hV/7zfgzP/mT8df/1s/EAdp/glqxHViNH/3oh+LhH/me2P/+h6OGkUU/ugQLr12gEeP8A8CId2rLJHj53u9zcdBqDTsGWAQmN92xTZ1VBtRLsF44NcAEOJm9GMNEL1ZgI08W6ate/AN1qtYZ+sNPPBGPPvaeuDpzKe+Vx7LPWyn5vX8F6+aY3juASIdyt/xOxnb73vje33oP1cMZ/iW4+VnLjcTfaWH1+LJ999Ug4j5G5visNLCONXbq0MGYnJxA1N3OMER/6/6eh6cC8ABbjWMCnsdr7ZMv7v55x3vgDhZpmYx0r4OfoAgGuml8BmIV37gK4UuKPC2w87kFbu7vAG6Jut6hAvQK1scBi98xwuUbFnC2IlgJBtGDGFTuY8IxQYwf7SAsq4F+rffwVIwKGNdmmeMd8X39J+KFN8/E5z73TOw88X7y3i3g8FuPhx95MA7sn4hL6OYqKNRG8cfrbOuOi2s71JlFtzQ2FHOEgRnr2kPEw6Xrl2Lq8IG45+gxQL09fzcyOUV0xoNkD96OZ19+Lj7zpc9Hc3hvfHS7Jz7ze7/LtW/Go/fh2EzMbwfZWIb4fQ3Q3JmdweHYdPMkDYBxlWhnmVCvBsCtkSTD6WB3Zgc2wkIx0lkuINi3qtD0a0w2jM5O1xx1fHRXGhbo1dy/RBYWIzl6sPyOHL2PuhczMXboSAL9wcOHithX1A97OvexmBRGpDq+jN4fxUjBR2ZXQm/qJsMqXEJcnHRPqeYiJPC2JRDZJhtik4vsNx7L4/js/fa1DM/3blpuveceV0v8bq0wXhmx4WYBHw1PXr8HFkg1dly5cjV/43HWcOxu+eflj+7++Zb0wB3N8BiROXCdlIo1WtFc6QsRp9DhOThbDwe4E8CHn7VA0TvlBBBBM5LAiZH7EFiOWDOLvmYRX7YmOqA2WFI3caeWXhzqJCqAEoiBrm2YSX3k2IEY7tqMB5l8P3r0Xtjeo/HC1evxdZjebz/1bPwx7iWyRZNzXjt/Li69eTbWiUIo1YnVvL4WI117oheG1Iu4th/WN47LhkYTozDmVtbw6cVSPHWYyIY22ODVePmNV6JnP9lNUK4/QsRF7fXPRP/CM/i9HYmN10/HPcTijg0ifqNXLK0TJYIxoUHuORAP4wK+exgFmrzWAAAFSrAT0GR1qQYA9GRYsjv7R0CSCSeY2Fc8BKREG8TZMtlaQD9YHqIixoP9U0di8eZ12o+4CMvr5P68qDUZ144jxw9R+3c1J0neL8DL++J5ivvD8Xjvd4qqBcsqFiHdV9gxf+vnsjp1dN5Tx4DPHsPv3r4Jkl4DXxYWV/bzM69VVum5FbnTrYXv/Nyr8/qHSGrqMdUBbtD+1nlb7X37ee6+fud64A5meHbqbbxHv7N3ZJgJ3Yv/G3owxNC2MqFVFZhJFbEDBba6MiemYFMwAhliMYEcyA0Yi2nFma6EkzH/ebZOBPDEBKWKGW4Zq1jnephslW0mZ7Mb1RRhXrAOyw3uMDma5MqrEGq2cfZStFO/4SMHx+KeYWJjAb2zC1fif/3fT8f7PvxBHJQHKIO4B93YckxfmIuVNerrwvjwfot91nXFt26U0K6pRyYpGLQaV65eiw7aODFMOUVA+wp1PU6dPh8/9Z/8XLSRjv1/+ce/hMPxS3HfiQ+Q9qmD+N4b0UvSgg8+/iHqV3TEpfPXYnPuFuwK/RvXWMNgUUWUruqKgjiKWjKtsBVYawVDArQH3R2MCODS1USDRlb2Yt8qi0sdEG7gnlIGnNVT4u2IiIsoKjxAt02n1eigmA9qBnPgreP0PL53b3zluWdj7OOfiAWu6cwrr8cw+ec0ciSz4r4IVHlvbs+XxOG8zehCAWR4XD5quozAcN3X35jZJKNiYPW6krTzmftYE0NwtR5xmVA2YDBBtB0QNadhQ2Ukv8lYXMZQLwx+Tcst0SQC3243bWKRS9AjrrcMwjfpn7a2HgCvCGUUbF1I7wLf7Zv2Dj/d0YBX+H7BTJiEHQxw07+PjI3FHDUW1pfw6mfipeJbEUkDBwNcdxQBzkHslpY/JxMfNAED1PDkldNqq26ICQ6jGRkZQLy8SQqnw9HBBGCZJ0sKOiFFQVwV2pD32mEw22QaGQBIahgFaiT77F7YpB4EonCdCA10c5fm1uPsy5fifPVy7Ds0EZO4hSCIIaIBziUMBQD0CHG3A4i5Ix2lmMTBeAgQvbVkIZyeGMAquIol+qVnvxL3/sCPxSMf+G5KKHbFXxv9xXj6qadi+rU3omMFUD5wf/z0v/8fknX4WNx48wIi9Q1qbywxuRvRj56xnWOWrOfB2V0cmvSP4WFVmQ4TOot/81pAaAJusjqQkb4SlOwjlw582HiugUK6A7XRpzoYa8neAQi3uYZu9J59eyIWccyeOkz+P1jy6MT+aOMa5rcXsUzvwwiEgQldmKoDmfrbt+RwdHfhiwdAAUoCn/pDmZ+bgCfYzczMcp9GsPUA6Al2wDAMTzATOGX+UFcegCYielqZuEZHgseQxa1gbFoj+4os3M3zsoxxnZ6PhY5FcdfYaF4voZsUcFWj3N2+dT1wZwMe/ewkaBXQbnPl5uFAZylPViLgKX5UYCoCWoo6rOqp12HAOtid0IZRqaxXzNU6t8k/xUnGNh74RD8gml29eoVMwNQqbaOuBdNgk9WdOXF7QlKMmwMIJHUC8Wvo1Wpk9O1Ff1fDEtiJo/FgdS4WuinCA5OambscX0JxX0Kf1Y8+rW8ZVwmcksdgPaNkTu5Gh1XaodA16ZkmRwlg1/GXNt6cuRUj938gPvjB785Y1VWu4fCDD8XY4SOxTBr5NnwFx4jj7UYcPv/yqbhJQH03YLuLs3ADxtOGw2wbfmUlFfy0w4wpVXwLZb5NWFADNmxCTPskxVs+FxSc3GZWaVlHLQ4EVieztUiSWrI2xNldgE/LbQ23nQH8C0cm7o21OZMUqBvjL8czEehD9zyAoQDdqPeCe5Zs7bYEmsyb47gpgnp/dRVpvXdf758AWQAerJo8iIqbb0XRsL/33X00TuhKIwtLow0H8rXH8FmrfA19pnkJ85gwttb5bC+dgTUXVQb9tkHYn2PKceY5ZXgZ3ZOtu/vnne6BOxrwnBgu2VYvK+M/MWJhHFZ6J1Ang3OLWqtldDNVQK3uBGb3HL+CIZOhpSTXLWGLVb+k4YF53A1Lc1XfIaOJbK8dGbcdEFnE1eLWzAwqu6n0x7PmK2QmGYSFdJx8TMXoJLqhwQQBEgG6zugYRPxdHIoBsqMsXp+JORTeXStMoHXAbw1FO2JXByxxAL2got8QfnIVKpUFWZQ3EHt3OUkHYNKAXWzg8X+EpJ79MKj6LGnIie4AbxB1qTa2j5KRWnAWVoi9PR3nXnkVI0qJlFOIr4Sk1UjR1AMLqmIdNv7VojkCfJvMjZZn4lQmMOiTMa0Ci5EIAoJAUMEHzwXD6zTLimBhxEmN/WrJkguxrw4zbpTb8HMbjNHxQ3Hhxmn6sBK9+w5l/01MTMaxe4/Hs5//Esy4KJS+DbNK3aA3wNtK+/KJlwKMjr7esyIJqQlBC3RsLVwJbDBF8+K5GRLod9zGbK8Htb3J7rkGX+diJxDyTyPWGNleRogtXkFn20lOPD/TbcXNOF/r7a7inOxvraGruCzI9jA2/MzN49/d3rkeuLMBL8dYMcDMUrtnz3DmNFOBbcaLTUBji6Iyqa9hYjcAPT2ynDg+WkzBwVoFvPiwYGwctwvfvl2UW7uwHlziMjVUgiTHtTpYA13PJq4m+tNZ3lFRr8Qj/cBw+G3imLaLLNXAHaNMWvP+4S5y5PWQPn1PDBBf2n1lJvYtb5O9BAsqbK53YjjGD0zFwJDFvGnnOskAsDZ37CJuwjS1OjRgF71UFhPAp89dir3DPdFHQoMy2X+d3FofZ4nD3V6l1uupU1hkOwBPnGt3V9HbdcUedGoCt/6AgpiKetM1NQGbLG8IoKpCdGWQ7Wq5FXVklm+fxmBEAqRCseJlOzubbQSyiAqAa0bU3wUgurr7Y8/YRDx/6ylCyu7P2rS69AhgpnLahOG199NPirL8LtmVAMv7ZOKyde4bDXgLSIr7prqhcBdxaimOur9sSwASqNSryby0OruwmQhACcB77r72l8fye5lsP+zOIkIaSGSBHsOiPm6eS3BMdxZ+nwsBfednnu/u9q3rgTsa8BiXOWidjIaMdcFczG5ylCI5S1gAdRZ14Ddwe2hgCW3Vv3DAujnoPYYDXhCpouepAj47DHbdS9QLrjGh1xHzVMyndRAxcHn2Bis9WVLQ1Y1gpa03SH5J0swsqcgBd1DuawAp9P0wKMLe2rCUbnUj6nUNokNbzIwcqxT4WSETRyeV0EzP1DM4jMPyEBO0SV1bMn5Qx7W9RA0NU6uXZhAh1+Px9z8Z082+uHjpauzr3R/bpH9aJvEoCIbj9TkyLQN+PQMU/kYMI+yquWNB8FKMUB7SDCmJLYqHgHSJ+raKevU0NAAEsLRdgDyNFgIe1870zondVHYvuo2eExABeQDdVPN656G2px9YTFCGas3e4prLWIB7+0leyi820Q2OTe6P03PLeU9kYm/WT2cZxw184Fqb4NQCLIFGcPJ+WUpxg1hhG5HOyDJO7p/3zsJM3ktDvlYJH7MqnGDkg8tIwCvD2DyeD/eV1SWQ3T6+jsvmu1teWc6meI7UE3qA25v7t2qlmC5LgNWi6+e28+72zvfAHQ14jLNcjVNuoa+NebSAz/4D44DOdpy/cp7suopsgB4hXDtlxNYyYi4TUvbiINU4YTZkhTqNILtMrk0U6TuEdokLu1ozSrVYZ4JdxRDhObsAUQd7FUAcwjqsMn+nQQnH4UGSg1L7AGLQDZvoII15N7GqZfZroNszxbkTqQ/mUcGvrmOUELTG3gTqtg4KVhOS1YaP3BqZgis9AjWgR8YRj1UdaicjyjpgAFuDIQ11U2iaYtmz1zEATF+LteUF3i+SfJTkBnXiX7mGZQwrPbi6jOHw3Af7TcIGqJV5yKJkcg3FWfpDATETL2jRpg/YJQFOwqeeDU7F7qrwgTu7hL7znz3nXHe/Mt/DGYnnBQChe9tYMvtGccw+fjhr5I7BYBdvXSREazUOHT4cT/3RZ2P5zVNxeP+R4qCei2NlfRHYF0rMNDboGpO6Wi+Ac6YxwnvGNehkjm9NgiQ/TWAUqAQ1WayZqYsL50s3LiCNVx6Ln7rpX1hcDYwNi28vbDir3nF8F0FZu1vmVnT/29cvMGc/8EFrEb0LfNlV79ifOxrwcsI5WB3pbFrPukgJXsOl45HHHorLs9PxzFNfIKUSei4+2yC6wVRGThoHZhkgZHoxWBEdcSLeTMW3IpAiHw6pAE7BFDDMMvAXFlbjKk7Cw4i7HUyY9fVbMfv866RG70SMXKW84kYc2Es9iq7pOIYxoq/3UNSpddEYZAKNUzMCi14Xuje4Q/R3jsRIbYwJi/UQANMIAsnIyVeHLbZXBwkzwziCaFvGeNFT0c2D9EXr6JX4rGtzPhaml8iYDqPjWvqI7+3A981C3PX1JbIXE79LYZ59h8mXhxjdhihbQhfJ1WFJrUY752yaJID91WGa0l6XC3V2Fb5Xv5e58OxY4Mw+MrV8BYBElQcYohIAM/S5azmM6MLToJ9ljm24dsjy2gfHYt/E4biGiF1/jFTyXR3xxc9/IZNzPnD8IRKhHo3PfuqPYH/oFukAQdeFJ9GWNmBJ4Xi0iXtmyn3vW4rjME5T1wtMFj3Htxo9LAoLxwPX4Caj18qeTtXK2/w2i4rnZ+p2EZkRx6jnRucAAEAASURBVI3n9diD/SwKXE+XbBKpQJ1uDi1+J7AL9FqB1RHLRM2g4vNdhpfd/S35c2cDngORAd4acFaYUum8TCLHkb1jFLR5LM689EYsXbiOPgbLKZ5uQBkuGpZlBMz4vXoZAXJ3EyCALdRhO+rtQJlkBxUG9w7nSACgt2Vy86ROr/L7dhTnK4iNaxgJBmFxJeJlT712Kp54z/F48MmPR+d9R2OdNm3MLcX6hWucdz5q+010iSMtRo0aANWEPTWZsB2cBwiBTRC0Tpt2AeM2UsZX8L3bXEXMAvTa27tI1b6IuHsTF4pVrhuRNS2YhcFEwGg3vpe6GKaZH56ciDYqbUEtGYwFyMvWnPj8TzCXtQgg1q0QTAQJkD6/b4GLgKM476JR3y6A0M9kTrkg0D9aedXpZTSG7wUS/llSc2RkL4vP06ljVI82Sg4+rb29JFn4yIefwBgwEL/+zz8ZR48eyDaoF1MVYZtlooJK8f62CkPgYUHSWGAbdQSWhQl0hoh1dZGgE4ZYlOS0mQJWXraHZH0BWAF6Acz3rTCxdRYSf+MxPefbt5YuUEOFQGd7WudPnZ76QK777vbO9sAdDXh2rYPTgebEUIwxoHsNfy/X+FEy+qorWrk0TWHsoVi6hg5oUyaFoQFKkLo7tPRaYvf29MflC5djhUHfqx8divdmw5xwFHvGJWTT/QGYTVhFQ3GWCdPTaEtw6oBZlvDhevrc5fh4Xyne/4kfj30PHY9FyiO2E+c7emAqmqP74/obp6grMR8Do2QY5jdNgG8XICmZeQWQS0svrKajE3GQ81b4rNqBmEwaqSYW4y1+C+pEN8pBnWopd5btpGF5vAoGkjYiDdqI0ujoJo8eUSF1+gQZkH4qRHiD39OfTZE1Zzyfc/10YvajfcKFI/YWjMg+zryCuKQYbpWiW/7O3Cges/BP04fPzagNjRyKt6B5WjkH0E3KrPvNFl3DD4/rEXgHcN9ZgxkLHrJE9WOJQPwtDBcFo3v7ouZrFykrr7VcQmSlqiLEL6uYydRdNHxvW7hVeViZmeJuAWhFGneBWTG2OAcsETG1BWipA7wNYr5usTpFWZOJ+pvW9vY2tj67+/yn3wN3NOC1BpwDuLVZkf7Glcv4XmEB1PAAw3K0H5wilIkMIHM3WIkBx9W11Zw0DmKrzN/3nv3xEO4eJ18/i+i6QDr1lfQdq8FoegG6DQDDkK4m7KAKWzRwvs5EufLqa4HJIB4BxH72Bz4aP/T9H4r2hw7GTYC0jAW2xHkWKquxW8Vf68Bo7GJkmEcx3oc+D1sC+jhAA+CrkUnEokBNJrLGAxmXhhhViKZFt8COivtuDA+Do2uxuzSH6LoKkIBnApD/aZv+dR6vzMRWRs58dYCq8bJyLicuR0zg4ids6B9V+tOHWjtltHX98RKwtGAWVskGFmv7WSsmgnChz9JRWzGTYzSMfQXUxBZ1ngqlioQ1SkAOEt7Ws288Rc8BnJ6XAQxT4Fcqw3Hy9Mvx65/8TZKlHk5A0YJrG4vzFtbYAuBk5cX7CuFxGgsEJ/dN6zn30e8VX91fEPU+q6Mtcy+0BA/hg7gXt5+rV6+mKOyi04nD8xbp8ZcwIBkz6/XJMPtw9/G4b988l+eQ5dkXvradft4ai2/f/+7rP/0euKMB79/WnSZ3NKh7Hovb0PgEcxD/NowJR44djZsr87hgIB0yoNfIbVbGiFEoyMtx8tSL8WP3/GT8+b/wF+L82Qvx6gtfofDNdNQ5Vh0g2MHlZAcgWkFcnnn59QS5URrww//ex+KxRx6JY6RyPzixh+SXbbHU6cSDie0weQGKjd0NFPhkXRkk2zEsR/89H1tYFAdwwnWC7qIXLG1TeBqdlGKhzr/MJkAQ9xSIRIPY1wrZlUmxYr1AQBAw2yQJgJEQiNdgDtZRwBM9nYlRm0xW2ZdGEkHJZ9RuBQC4H4DqZEV45TvcNJj8IF9OYsFT/zzFRPPgZcyxI03SBwI38Rm00LkgKbOyYDfLAF/aUCEPEOCvgCpodNDmBvq8Uy+/xG9REbBwuO/169fidz77r3CsPsi+AojgUbD1AsiK4S2Y2Na3g4rf80HeP6/NTRWFn3stsn0dRmR49u8G97wLo5bZWr7y1a/G1198MUF7hftrHY1txNT225Zc70GzQWooLkDG6zFzYbRAkm2RNdIet9az+7Re5xd3/7wjPVCMiHfk0O+ug7riOuBc+fvRYVnUp4fU6oZHtTGQmS6p22FaIOFRfFqmoq6Oz3UiXZy7Ef/zr/yT+Ms//Z/F/ceOxzAE6czzz8TNrbXYQT+3ujgXbz73UozfS2YSsgbfe+xIHD50IPYDquqpqhgaME0CbDsYENDNAQHb0K8yfqudDRKUwkB20bftADbtggSW2E2K7izANqqr29F37wA57vqdQWAc+jmxjn8aLIhdoxYEQfIo2UtcSzpbsEMJ5kcJMIAKxb63S9EUIIGzoadSIa/TsKIqfSMg5kOQQOcne2H3NvYTINOiqUgJ6KjArwCc7peHFVzUbXKeYlLD9vh5hulhCaaTE1QzNA8xtk4bmP6Ixfjj8XUbgNOOLnEVdYEp3gfG9sc1WPgOPpLH90/xGdciurAJKAlmvG7dU0VIP08Api2+1xG52N+/hf7RfRRzV4nVbef+FsWc6Gs+NzTs0qXLjIGuePDBB+KFF15g0VtDJwksog9UP9rtfWPfdNOh77KDPDzbFqxOFmgVM++3bTD1u5XR3OyX1jXkB3f/vCM9cEcDngMsJwKDNLfbz1PHjsWXn30OtoXPG0C0hTXy7PkLiC+dgB9VtWYWmdDqnxL+mK876O324Te3FH/9Z/+L+IWf+5txP2nQcWMlsJ/6sfi27eLP9pd/9q/Fd733EdxPRrA2djGpCpET7R5FcBBPAdsaiS3bFB9pUrmkpQ8mhN6txGdVI0KYeDvo6Zrkz+uCtZVJRLDw+oXYeO1q9D94T3Sga2znODtNc7VhgdwBfDCo1GMj1jpAD47RB3o1CAfbgWmVOY5+c03TSjFHrc1Qh9mpI7MNTUDXZ+EE/pNgZl/5GmTMyV7FEqrI19AQYV0Lzlu3CpoKfIA7VXY6Vcsc8wHgqRvEP5CP0wVml6iQmr9t4m8IOEI7o20Nf8J+Xg92xuBIb6xM4xTN2z7iju+ZROy/SoU1+sK2tliUwOHrwpmYY9MuWWLrke8BactZ+lrA1h+viVXYGFmNLgJjywG5wmK1DSD3Ysg4TYHzrzz7TDz22GMw6+6Yu3kL/SgO5vwGpQH9iBUXFxcBsKkvpf1nZ7GtoYZYmp1HFYEhCbSXNaovtr2tNhZ73v37TvbAHQ14b+9Yga/FDPYSIrSHZJ0vf/2lVC4PkjlY44U1C0b2jsQS/mrbRGGowPc3Wkp1N+hkUjwG6Dz1mU9FPPmhjE6w9kQH1bY+9sNPxvu/6xGO14HuqGA6dWc7x8iIBfzvyurPEmiYtEyVdt1emDyKqKlP4zuoBi9lH+jNYBVtuqnMXI35v/RzYbKk2T/3gah97MkYfOBBRLCR2NIfDz1i+yb6MybhNpbSLdoscDJF0VMVLLWd8xsLW4aVCVAJcjA+9oR+AFD8s494yi+buGnI0HQ92TQDgPvCtKoYJ3TJWW0SmgWgtxs/68z3nCwSGi4M19MnJQ0cycwQwbl2CyE1BB5BkdNUBVDBTIbHQlPiXLK/dYwK6vc6YWEWy9lJ9YJXQ/PyeLfbf/t16zPZu36WAkwmBeB6aHmey2cZqbq7VrEdwcj3sj71eeMTo7jAfDpmADqjWbgw3Ho2YaGAJOTaRVD9XC9uRAKlx3xro3/W2HcTZue5tfJ6bNvUGndv7Xv3xTvWA3cB75u6NoGPiXKAqlwvvfQyzwepRtUbN29Ox+joPiYU1cLQHW0jTpk2qCRAqHZy8jABZFda+UzBdN/U/hgnOuDIkcMYNB6AwWFVdTKjZ8oJTpyqGTVQuDFbAAFeK1A6uWQZghp/5EiAHlZIppA6sYLtYd0EpATeBq40Xf/w56N0/XLs/vE/j9W/+mzUf+S9MfjER6PjQ49EtQ+rJtJmTeYGq9pGjSdwAJ2cH6MM5zU0DJ5GM/gMf7pkHQIs7RCwBA0/U5RN0ZDrlaWJf0xhkIZau7RRfWAZdtaELpqhuGIUBvuKKlp6VfQXiGqXKcZhicWI08ByrF4SXHyrL9OSzG9ZElhM+tCdXoWnGvVSBzx0ot7it+guiXl2897ZTh++brmIqI8TvGRtnk9Q0sCgO4+ieCYE4HuBx2tU3DSwv8W+fNZ1Jc/BBb+I/k6XEoFQHW4NVUERWrYa07PL8fDYA9wjgJvf6aPnFRg6ZzaVHXSmZkhZJ+pDkdaFtNVen+9u72wP3PGA15oguerfHvR2uQNRnzwnhwN0eXE5B/l1Ct904Em/OzeTDM8JbDEZNxNVOmOtfHXtFkYP8qPVMSw8Svk+uURmOcZSaqSDQNckk0kihpMi9VhMONqQ6YeYeHUmnoCXE5nnBhNU4Ki28yeRASsiESFtZP8l0DQ2qTq298T+2P3sp6P82vOx+kc8fuiDMfRnfixqDxyPJXSENSwPnciFO2Xqx1YtCk7Dk6zwAnHXduBUmG4hBasDzDi3tT8EBFMc0ZKC6LGveq7uDUADPeEGQLrJd1UKY/fjwVMntG0TgNenrbAEA0icLBkf18mBAQZPLijI6vwHqCK+F7n0CnaoD183gGd/rFFZKKuH0QWKkrqU9CJemtPO9gkyiosF+BUgm0DNdwKZ4Nfa3FdR130Lh+UCKAU7x4Xfy8TUZfpaPVw3QJcWXsDTsSE+txP1sox+7vc//VRMTo3Fw++5l08B1bK6X/tKZ2P0qAC0efC8ZoHW8xiOZloq21C0+S7ote7PO/H8jbv/Thz9XXTMYpV1gjA8mUxuU1NTrOYvMZEMtULcQeE/snc0J+cKvnrX13A9UQzVFQTxKyccv9cdZAe58MK1G7GP3yCMpbNyCX0aFUshOLcnOZPIQe5k4k/qknRXUblvFECDScXMQHzje9kQ4myD9E27gKU+YU3Epi7K/q2PRazsXImtzzwdbVcukVbqalRwzh0c6Y7p33gmXtycjgd/8e/HDpEX7Vu0b4uEA4CzbMfz07yc+HntiL+eT7JhWJUTWpTN/fhckVSQEGz0JJHJrCJ513RivjQXc+fOpTg3SGr4dhIPVIjsyJAqjuex7FvPo1FD5b5iZDYhLcJcrnSZY5Y1XiAOcwK+t63o4QANHIVgRkuwwQK8bFcrFVNxD2/3Z7ZbDYAB/7SVc3p/fF+nX2V7/tZr8XNda3zvfjI39/NZsT39B9XLccwEOfa33QKp6gyhex11x2s3byJm78bJZ75MZbURymEeIJnDAIanjgTrTZya9+7Fp5Bztvz1ZIpuntt23N3e2R64C3i3+9fBJgNg6jOwiwrxR44cwUVlPb76lRdyApxjMh86eix1PEtLC4i2Vwqx1oHKTJY9mOl3W0Dh+dz16Th6/4noZFI0mWC76xxXcIHBpLMu8bmKh2bHTdGK49gOwUaQKTnJmHQWodELrqxFlMmvkh0NP7qrdfzmiLogLnboyHh0/ugPx9pzp2L5yzCxq8+THQU3mKMRYx/9QULQyGO3QZqpbcKaKmRw4V+NYkECirHAqSvjuHIswVUQzqgHWpLnpE27MFknegPG5bUW7URRz++Xr98gU/M5dHi4y5DR5M3ZW7Gf2hlDME/BKeu72k/8KMGH69Dymcyayc5JaAKLDeJ+wfaAET5zX3V9hWsL4ATICEBmszH1kn6TM+dwDMd4kAsH7bUvi9+5oMjiCmC37R2wvwQqrsf9BTX3FXBam24pqic8TzfxyfpcNr1ujwsAej+2uGceW5cZf++x212IuPfr3PdzjI3zr52JvVSLM5/hKsDfRGSvAtz2nSzRc8tG3TyGj7vbO9sDdwHvbf3rRFCp3YbDsZPBwfjAA/fHZTKLzJI5ZZX0SWUmweTkWDz3FXQ6sg54C8FeQCS6H9Z6phYExTW/QcD7UizBAhswE1NLGW+6i+jFWRjcgJtMkOOtc07dX0g5l8VudCeR4WlAsI7stfMXqFR2I/ZSnrGDzCjm29MtRt2X4qKvTdvUGB6Nnh/+vmh7+D6C6j8M23ozJn/go9F/DNeNbcVEz61oTBuZ4FqAQVX0e1iDufa6xYa0EMtuAFv5BpiTBoLU2zEfM6xKNgf4aWTQbbhxlZA3okm6H3koaj1YmpHwt0hKcPMcqeLvJzkoE1xLdE5qAE1KRPeyoUfkvfG1pmo3rtbFpl3VJedad3QqUgpMWMrdquggNxGZG1yzLLETcEoLMUBkWxP0ANaqIMf+is95NziOoCZQ2g6vh6UljQ8aILTWuuDxMqNPBLbtDZm7zLRom8lOzXpj6U0ZofvIUml4bJNCq7/HED9E37UFQJb+JHzv8sIt9H+7cZGi5jPUHzm0fzJeP3USV5u22INBSx2gW8J8qjVk0wKfCx/P+Zrrst/+LZttu7v9yXvgLuDd7isng9luXXUXcRA1y0Uh7lTi+PHj8Ud/9MdZgPkmBovxibGsPr/BhOhCf9OGOFbPIPVCX9UAyLKSVibCE0AYlkxQp6zJLZ3Wumw0+I3B+qaPMgC/G1cVsCi2ACGGOEk8ER+32zKIvwGTaeAisoOhY4EojgaKeuNxmzCKTmYlxdAICdsTu7g9rPF5vXc0Jn/kkeg9uj+Pr69ds7KZfnxALb/lB7TEELkmERrkdcLtg9oXRGxUyamn4UEwE/Tq7sPENpVThQmtIn57ayOjPKyBu05C0mEiIRqyJ3zntF730EdgbCYn6Fa01TKbWzFxGzog084MIeMsWi79rMEkryHKbnJiLcqyzQp9tIWuUotwF65BmbOPPjRG2X5sN0u0AJY4Ye+iFuB9je8FJVlzSwT1OcGb75ORJ6iwANA2f65OUCan75/MVIu2PnlL5Ay0jYXoextYwboqSSNkjZu4Hu3Dst+ENa/MLeKbiXM37Lu9g0JK9N06i58JWJexqH/hqYsxTKz2INmvJyfHAU0kC9qZAEd7CqCjMXn5BWAn7iW2/ZsA57t/8xM+uLv9O3vgLuB9U9eoU1lF17KCWLaHWFpFD40Wj1LU5oUXno/f/4PP4XYwiOPwPfHVLz/HJIWB6FIBKCQjU5cne2MUquA25VMmEGXw7pZI642VTu6hi8UyflkIStFvNhLiVlNHJ8VoY5Ib1sUE8zF6eH+MMfGSbqDjkilqLNhFrFqhGtnWjZuxehaftNMnsWSW4+E/+xPR/8h9pJTCurhGUW7aKBMU1I100DxQAUhkJgKeBgl1ZB1kaEmLLADc7v6wTs8DfrPRbqtlAwYmKu1GTN/CQXcJa3S/Ex2fwXRC1vIMq9peXYMpkxwBsbvaQR9xPRl1cHt6cvaCyTCT2T0XAz9D20Y/AVB0oK4+urioc4N+0SdYpjnOrYWbeQ2dJA/QeVArqyBRqAMK8dJ+a20uXJ7W6y9YfJH9WAYvAMoK9T/0Wd2d900Dg/q6BEX6PkHI9sGEfe2zLjEdZG9ZxeewixCzLiSDdRJBtNGmKrpVyGjup8P09RtXqZdCaUn8MjlNLGP0unHtUhzEX9PmVRhD3cQw1zhGZmRBbcCJJHq55ZOX9I3Lymtyl7vbn7wH7gLe7b5yEDshnDRGTizAXLSiaa2V+U1OTvDcFnML8/HsM8/EiRP3pUii57z+ZRovFM+2sViqAxJQzK83gHOpVrldgZCBnumccLJdW14i8N1EA4OIqGTnIB0TkWHpH2d8ZqaXchLCltI6CwAIPIqRgqmilsaQkX3MliMHY/d998XAHOyClE9tE3ujuYd04jDFCoDX5bWxr3NDduOmXk73DrMtO7GUzCqwJ3VM+tiZCt4J39r8dVpaeW5y8hqPOtfdPz5GnyF+bi7DtpjMHEtQLcPSyriabMD+al3bGFdIKQ+jFdyU+OVUOiHzrgA828NnQCOAR3u42G3apttNE2bUQNzuYPEB+tiIMkEM19etFx9JgVT2RU8kaLlHC6C8p4qNAnfrHguAaTi4bbjw/gokfq9vnEDovd/Eb85QQ9UcgqEP92kxRrOqeD+XrGXcXgPArkcv19Q90EPiVw5J3G8bTPrKlcvo/DZjH4yug8WnjhTR2ECiyEWNbDnENetMvriMXyXW6HaTQQCYHcRLW9ujjf2q9E9eE33NJb215SJGm9x87Zb75au7f765B+4C3jf1iCu3TMIgcdnbzIw1LgwQ3yJD8WD82Cd+Il49eSq+/IUvJZORATjZ9E8D8nIyNJnwbhus7G1MpiYgUgcVzKzb11mO7o4mivYr6KH6E/DUBfroRPGuMaId9lSHvQkHDX7no8TxGfOAQR46wUvFeuqoAJ6mTr4ExXd19MYCLjHLX1+PoclJxDFiOm8nI/WXmaOPCSJoAXcgbMFeMEOwb4VqbatxDWujqNoJCJuKyutXD2cqKeNt/S1mlszSopGmuUX4GhPaEodcSE5Wp94WotqmoGKNB7KvZH48ES8Bzwth9vKkb6GAzMqQoLfN+x0eWwCMhhIQJ3aIWZXdGYXits75oM5pEOgAbOxbgSENHPSVoOTm5DcBgKoK71Xx3poWWGu51y1W6Od+Lzia7URw87ptlgYK9Xv+xs89lq9NT7VBAobtbVxliHdeRgSv0pZ6iXhs1B0dFF6aXbsVly6ej1FcnPbgPrO9toyqAiAHRPtxYq9YcU51MIuceQAbdQr7oKbYQv+3vqqBg/7HXchKaIKx/oMtdYv9lQ3MKy1evQ0Lb3969+ntPXAX8N7WG63V0tXfAd3V1Y8ldjquXb2RDKGbqmA9rPj79o3Fya0XEmzU75h+vGAS6t7cVDwTgQBD2IEt6d9WZAXZiVde/EpM9RAvy+RYpOjOJvsRjJTH0lgC6qDzAewQB/HszYeGBON3mZPFsfmrWKrYhiq+KIJDiBkCLjGzjega6oyNWRIgnDwdnRTm6e7vtkk5uTOpAG+M8rA6mO40itw1ojcWr92MG5evRpkU58Z41nCpEfj0GRRw042FOabhQ6ZoyUHrc+hC4nedRH54nCqsZJfr3ixR46JKogX0W5vE/gouJg3AlwNGCcTZJkHO65Cl+XBx4HN6NBleHUV+U3GW8ym6ui8dGgskYRCw2xApO3DoXl/eyOProiKQ2f+ez+Pv0kY3wcqtBXotptfa388zSQL7yfAyygIQt2pZkSW5OLbH6cMZXXXHNHpPs1R3AkTXb01HO6Uzb5J/0HKVYwIeEoH6xD2oNmhJ1v9o535aWnOIxK9lQC5XMm8QRiU0DCSb4H5rPGLh3EG/Sv4IQuq4Fu6BUTmOTVmo7K+CL2X6Ld5euPIC7/75d/bAXcD7pq7JicLANy2UDM/CPloBT596FaYF64GFnTt/NqbuPRLTiDDL6PoyDbgDlodKcoFJ/61yB0xj3QkLSyADyu7cdGyeezUWemBj44digJRNpktn5haDm0nmoIcTgXU4twEusil1ZsiHvOUfiiHOkBM53UWY2E2+36UObQmW56NRhVlWyIRCge4twq42VzcRzQfTfaWuVZQU7lwMcMEExvlZdjh/5lLMnr8S1REKkgN2ZcEXMM+YVyaaDFSLtIwH5R4PshJrfSZl1gaK+mqZLM5kTVYcE9SaJDoVSNNJe6NM4PxKgqhirPoyJ7nYZf47xeltUE5Gt0NIiKBnoe7MKsJ5dtbpYwBzW6ZGf3DUdBUxrX0vZV3lOfwAQOCaSEZg/7QMLptExKRbDL9VdNXB2HtsRpPOCnpTblayegBDB2dLbFpoe4NIDt1OdDzWkp7WYFikY0EgHETfuYTVfod21UirLytvIIbOowoRuPfSh0v0/a1bFFuiGt4AapJk7RpN6E71kjX7FFAznT54lmOnrKUWNier4y5nH3l5qjIy0wyAuLvBb3wvCKIqqOFfaT5EU3PpumTihxLX4s3KNdIDcM1vvfvGh36T3+WzjfgO3+4C3u0b7KrtRHDwMwKYzKbhVsfViGHEkYNHDsXZM2di6Y15LG84/cIqOtZI1cRKrquK+e6wFwB0sBSfGcjGkq6r2IehmCxgfJSVeQBL47FHY7WdCmQ7y+liovjmOQ241yLZRRC9NKckoACcMh4+ZvzKBXVcRrwVfmABTm11f7u0t3PL8C6ZEgDIna2RTLSBt//2SiOWpyn8M454PdAJQMMOtvH4J8eeBXqmr1yM7TfPUTCHqtfonySXatOy1i5tKzP5+ANTogl8l4wE4LIVfl4mBX6NDMxVdFrm1FNsy6SfWHqrVO4yoGRxAeNFlfq5lHzcRtcHV8FwA+dBRt9t4AbDGRVlN/ERrAPIDS6qCfg1m2SbWZmLxipMkeD8Ou4effT/Kpli1jdQP5RILIBR6crVS9Ec1hqMDyI3IMGEvrP2rwsXPcixZH4uHjYbJn0b/PT4sMKYIq3FmBI86Uf97Xb5jTrajIAByDRyGPSviLuENX+QBBOrgHmDRWeUpAa662wsbcVqB8WaEI3XcOQew8Lexjl0Et9hIZPdusiVKQxV4YGpnvNyRzH8lLnnVdqoD6ZgnKyTtlQYlzlKNCLJ5jiGANYoL6Rf5A76vm3UF+hQ0Cf6jDsQrzUkVXOcvIVyOc7pEDbawSND/3yb4/Ab+/nRd9p2F/Bu31HBrhgAjHcAw4GWuhKBh386uLpi7iNR5/iByXiOnGirGB204NYZYDempxm4rMSwocYuKy8ia5OBvzyIYeHwUAwzjuqIOoMnDsf4+x6OBUoszr/4NSYaui0Bhd8q1pWZIB01B7+oI+vg4UDMcehnKPD5bNsHeh+LY9u+LlZ+4CB2+G0dcoj0lO4yG13otmjPDpNqhvRGY9WDUWfirZdWo9oLcKOz2z59ORrk4ltlkozgICsAVNQ9AggCXx6MtnjYBqgnCNtdNimL4Ai/tEMRGTjhxIAyoCoo2K+KXzswXBOjgimIZIbjcQD62eLcAoBvjUDxjOQgiE1EPuCKy8UQQ6bmLZjeJvtqFOkFWM6du3AbcPpTtKRVCUoppnIMRVlbmGIwv7EdgpVgYdt1TnZfP5dJ2Yc5Bnhvu324P5eUz7q65L4cSx+6GeoLa9CwXvE0fbivH10p96OfsaBxaYUCSbcWZhkf/SSM6CEem1yEHGwbRmtB7nbcf0wwm+xO2Z7FVTZd4RrNXJ2b953f+HWV71Uj2OfW2fAiEhAB8ywYhFUZmgdbx/2J8eRzieM3AcFdjVFUgKvwvdZyf+emv19eF2/9xD74Tt/uAt7b7rAiArMQnHFSMMrY1Jls4iE/TzlERaPjR4/E0XuPZZIA4yfncQnR8dctFeAwO8VaRZD5S0sUZ94T93SRcePLL8QrX3k6Nqd6Y34DkQnA21qdhYUNM0l60ioLmWAwqhtDH5WD0KnIJjDIChjcqZdyMMMEdFxWlLGamTo2Wd02oq8Sq0rutOy140AN2LXXO2Lh7HzMw0pG3/sYejrcSpi0V55+Kfb0DMUCE8JJh8YenZU59Pi9Yv0mB4PyaWk2HGuXfmnAJmuIk2ZtYYqmMUE9n0DIBSCyoYeDyZSYaLxiUpH1GZCyXsQcbGhY9xcmtfo2U0p5TB/MdcgOgMelbhMzW7FEJFEOKywU02tLMbtaGFKKhJ0YSRQvuf4+QEWdnxPZxYqDAiawxGTrxT30cxmc2za6VYE5AQPRz2eZfVrX2WcTg4ihXwJiZmbh+5IoRrsEb/PlqUdzm8cgY3+sYU1eB5yHST/fyZiZx2K+ha/i/oNEmxgry9jaAkD7hsjeDOBx6aSWwreSRaUK2leVCHhd4f4runK2bBd/cgyUEXtNKqGTtCDuNfpsmUxHaoa4MYAaJpNgnybjw4UHuoc/o+wPxoeOtQoIWoTcjNbqhWXr/p5Tcq84J4/v5O2OBrzWiu1k8LUPB76WMDffO+hXqNu6gPL52LGjKc444LtJIPC+73pffPLXfxPLIdZD9DrWiMjAeH5rPOzw0eG4fuVifO6zCzF55Xrsf+BYXOmqxWXCsMbJPjx+78MUyRnEB68H66tsI8+K8zCgQhSBLEWgcYV3gOvMbIaQMnqpGoH5JQpRm40kmR454yoDJAMApIxxVQeULihcW43XuzVAB+C6/rufYpUnOcKDB+P1T34memaZAN87FZVFHJg51hoirsCvaN3A+tgggWidvHQZQ+ukhPkJvrZ1A1DSjUV3nTby6xXGDZge31lTtp3IA3VvxhrnlTFBd5bLsNtNXH8U7RRZ6Sv+bNNOnbCNQd5Bj2Xx7+rWajQAlOn5pTiPvmyzyYQFzWWIbtaA3Utsc/Y9710MDNMzGiMXKgCajuC/U7mIg22Bnv3a2iy8Ljh6HEPgrEfsvbdxLaDUrcXfaqF1jBjlsoZPnZlxFO3XSRKxhiS5556ptMAuUvHuwNFjFBY6mnpN3Zd6utBxApjcmNT55WsWGZvXqdjJdcvMBfT0m6RP0gMgRVz9IRkTtosOFux0BFe0dZ2hofwHFG8vOg36wHrHVIhH3YqaACDc4X7uIuLuau3lmqsslBVAMQ01QF1eM4dqMcBW/3wnPd/RgNdazVxPc7KwqnvzC7GHgcXnc3Pzce369VRS9+oYCrsyVZBFm91PsYc5lQM5RSREPo+3ySQfxLXl+97/kWjbvhUvXPpi7FurxNSJD8fU3oGYu3gxmm0jgMIwYikDENAQ1NK1A8fVVKQxqJ0NsresCgYvYbog3jD5AFQoRdSXV3FinY6Vi5fImkKd2tExoj8Qs0l4sAVbKJMZpaQFl0N1oFMcg6le+ZVfjisPPhSrz3whxv7Cfx7rrPiWouwZhN1Q7DtTODGpd3Cd0N9Oi2MX+reO7mFlWHzksKIyubReqrPaIuOyoFpGX8gcZGKiOOdcTEWujX5kf8HX8DHLWc7NLgLkxKHCNrahcxotdrj2LSZ2A6vk5vYK/YpezAQNFy7Gm5dvxBV+W2MC99UQDT0JmwV31K15H7B38nkBzF1YT2Vga7BVPkww8P6qj5WlywrViDnBfWig0NgiiC0szmdhIA0A69xn2XqyRo6UIq46Sx66qjgOtnFL6UenCKeij3BfYhFaR9Vxz/FHYvKeg5n23XjsNnwt21nkdHnC/sq9oA4J59RQUmOFKnM/q/R1Gr3oW/Wntl39WurYvGQuxfa6EKYRg2vg8t0LkOJa+F1ugp6GEHSkGc1SwVDCYlmiELtigDrcHXS49U3Eb2KBBT6Zn/pYx/x3MvDd0YCXueUcIYwPmZkQJ3vIicBrV3ILtlhnNP3pWOW78E1bY6LJEJaT6cGqGHSLuEkIhmVcNcpM5me++vX4O//V345jQ/uiPLMUXY98IAb2Hoj5i/Nx6oVXYgxn4QYTYLds8WxW2g4ZB21gRU5TBC4pioiKGoooHDTFMEUcKAx6OiIeULQ3hnqjey+uJ3M9BPDPxE2KCPWPjEXP2BjAhMvKBo3DWltvdwLsRD8TbOXcYsx98Qux92/8YOwepZ4r18dsBOxgk0y+HVhbpi5n0lthrUdrKObQRm0gnYIbAE8NdqZ4ZfytER/L8wvR2U87sVBU7Afxhz4VHMA+wKLwg6vaJnRJBuQX1d/4jsmtY7YiaiZSwKjh5FyZv0nc6em4RJnKMguCgKWoqR7RTb3pkSNHuDeI9YjXhn2p+6zBYnSaNm62RhJVM8vIzExAIPtUlHYR8fsumM4WPnMuZubPs56JVlK/E+hks7mQOToEJK6FO5LOyIJeL25Eo7RtaGQg9u8byf3bu3pj/9SB6BzqLkRFdH5GUWRJTZhcB8Da65gS9FRLMF5kdzp2a11mAL4ljhcGBc4NFqVLDt+l7o3dEG5pCUzeptHWXAe43dnE/AGv6VNhDM0y+yHuYiSpMw5kfHUYnyGCZfR8pjSrYG020kOG1wI9r/Y7abujAc8byVjJh4NJMShXdEUGZuwiq30PIV9TU1P4W92Mdny++gjet/LYzZX1uMFE3MZJag+hSCuriDb0ZhtVtubn5+Jnfuon4r69vfH0U/8qeuenybJi9uEVYi6XYWFTUR4E8BjsVsRSxjSaQoNdHd+tiro0ACBXXNphW3wtEOZAZOIzTXgAeuh9gtx2teGJGCV+du7y1bh87nzsoQ37RkdoUDcMDlEUnVknDrGvk/1jgey8kz/zM9S9vT9KtL2Cvq2B/57/sog159bKzIGZKVh0e/dEs5t05DAjXWHKiKlWR6MBKMh5zYRuENC/MneLiQ2LoZ+2uQ6BuQ0RtEQOPn+Xynjiedtxvt6aJ3/eGuCO+mAHx+gd3FC2sMyuA1ol6myUUPrPXD4T1+YuowtkuqKHlEEpcqr/8vqXiFlVYd9BPPM219fYIsoBxiLQriIOq3fbAcR0EFZ81NAgeHlZRUUyjSqEiGFx7wS0dCJeBcAF1mRz7Ksoq5GCD/gRDJv2+htz48lMx/YMxL1D/ZTpHIyuwf7Y7cN634/VmnHT0GIMILbjfqTDdo17qA+eDFPxOEEOVqaEUGUclFkMBFOXXiCvuO+CGf1cUsHLp45PGsC37uk+9q38UkBzP/qZ7wpkZsGkkYrBLGVcC9+YhIFKVFrAG1i37AfBbwPgK3EPNaIZ0SLoc9BiywPefv0uf+Kq7uwthxYD2WcnQw4XAGZ2djatihMTEzAGA/tJLMDkcTIpRpmd1zRQk/sPxNrsDOPLzL0UZ8HgsDi3EH/uJ38+Do/tidOIaGPfdYJBvROXXng52g4eifYDUyipu9gfIAIUZFUOLhlTiUnSMBmB6zLvM3een/NZ06QCDHxaygPwS1ykPXy3s4VoxETux/G1ExH1IuULd7ASjk/dFzu0PSfC4GT0fc8PY9GFbd7/YCwTldGB6Ntgxmm9S7GPc7UBdlpDnVRZ75ZJqp7NTM1WUzMoPl12eG3G5BRPAdUNkqRuE13CJQBHlqTkd07EZEocj8mYmUlYGTpgeTojm1JJ9pXRDOTqM5C+hN5wGdH7HGL/rM7b6AdNnGkNWIHIPpGtLSHOq8syTdQGDGkvQCKwGSnhlkyF32hNHyRKxjhpY6SNPtElRZ2dLL4dUDJ2Vmdm07VnkW2ulx4GRHhwz9WPySQFKp2S+RKRV4/J7YyXHlDkRz+7qzNxt75wtJVr10CQTttATo0+bufa9dH09xqoipsootBpIhtHdHMs5kLnG9pAA2xNsY+75X72qYtUoZIpdKvuxbHcmwHiuNQVx/vlFWV8oz/37np+2GWT++vY2gUctzG8bJHJtQODikXZHYOePw0l+bt39587HvBSjGLgGrbUUmirjF5GST6GWGh9Awd9Jzdfn7CZuVlcJvCv4/ttVnkH6RYT1sGsD5gp4UuItVenZ2JlgazHGiSYLNdI593ePRI9I/tjE6tZP86z3d0wIMhDhcHmGp2B/U4uC8E4qNXLJBgXA9hBD6diTwap3zFYVfBD/fgPIFOSUTDuIEXTgXsOx6vPvxDbr+7G2EEYZXcfxXEQ7/bvh0nujyWYqLCZLJPJBafieEwcrrXGRDERZwPRR2teAcgAjfofrtNQN+Qx5gIAQJPM5Oz86aRk5BZGho0FskPLEmBNVktTVORHHLt4mF1Go8/GokWOtJgC8rJaHm3bhlTNxRVS6p+fniMmlSgK/PSMWa0TvqUqQQDqxO9vjgD8TG4gDtAzRiJswFY2Ac12F44EWnV0G+l0rF5PnVm6pPALdX8Ci+x+GVFWnZ1psWSG7isQtxT4gqPMZwMGqCOyRg5B8ipheGtTh8hWw3Fon8zYvHfb9FUJVUDeK4Be/0xVKNxsXgNSMC31blratZaC34AK3QRTbQFYIVYWjC3D7/y9D7fExeI9R85rSCd1j+HY8IZwjQmuCbACpsfiurkX3F1esXTKCGGxQB33FwMVKW7qO12MafoMi7OV8Nq4tu+U7Y4HPFcv7nyCnbTfWgnrsJTJSeJQYQtOGgegjrSygW0eMzMLcQk/sF10P7uIVBbE6XJQyAQJ4+rF7eJ/+qf/NM4/90L81E/9UBzUhw/9yIHHHo2ucm8M1nEj6Yex1LC4AmgVAKNpJmOeTcWk+CKDkRFlML5iCw894WRYtle2xY9xaBX0iOLgrZmW+SERC+iyYD1HTtwbr37u87F1/XIcf+ihWGYln1NEGx6Rf/FzQQbW6koPkHmOnAAAVBnQsJKZRgV1jFUrpPEb55kuDyWiFMo7gArWEMOjjDYRPNsR5bbNA0gSgy5C50q9ReSCWX85HIuBrFErOMCKvmgFXZ46SvtRMbm5vhyLFBt/4+LluLi4Glv4BtJDKcpqOZZpyGTSkr6+gIvIcgwhMh4a3kfWkiK8zKntfRNIDE1zkxlqlLDvvAh1Y1Us4YbaGfmhTlGwk93Z9+7v/S6iM+gntg3ap5VcAJfx9XbW4pWrV+KhW7diYGKc8pmMIERzY2E1ILVhzBB8FFXN3ZdO0fQdzSpAj2P6WYvJpYO07WNLVkm7/K4QYxOq8r3X5n0owJjXXo9AyIsCLPPb1Ffm+RknskyXTc5MF9AWX3IcXaA4Af2Kvyf9apZp74U63Lwn9EkFT4Iy+kYBuDinP353bnc84HkTNVS48mtZ1desj1jSdBngnrZusM+6XZg9dxpl+Qw6vUKhzKRnJA3gWHr0nnvj2a8+F5ewmFZhcY9+7xMxeOgojKkce/ZNxjaRDCWMFBA7xFDWWM5dh9XIODYBWfVRtdTp4U7gKq1uhoGYgxUrKEjDROB8ABV/kxHYHr3zecI7X8U34AWTq6OT6yGv3RGScn7yv/2luHH+XBx6+ET0HkakZiVv6hwNi0lPf8yuglVRkwMAIIVVijbodYzjFDJ6uP52fetkC/QXjWIiO1FYDFB+J6NgUjjvOgA6a7au4Jox2OyNMpEJQAltpp8pe4kJmYWDvtQlAjZkn3NhgOc6/okLWMVvxCvnL8cuoIFaDtYE6wF8ilkqLykmtFNuCWNJd51IBs49j+4vi2HLstyH/nUTuHzQ6ASwdCWhX9u4HgFFpiaYuU8CDPvpeNxyf9HgAmxlyn1Zn2FpqfMVnGBxpy9diyP42hHklTrVMu4nnegyy/gyKt+rp7R9gquMrgQAKp4XACSAa1Dic5gfu3xjzAlNjjseaWCzc2kvF8YT9yyvSTAr7gN4VWwcWybMslTsn7+X8RW/tYATRy0AjHOCfJ4UexP702eyTA1RTQ0/iLjL3J9eDGFGH73bQe+OBjwnxQ4g4bitk6VC0acHa5qxlK0b67NbijiwiVuLC3EDNxUB0oHvZOhjQteYQOfOnGGwRAyRH2764tl47L6HYv/IgRgcGyUCAsfPDURC/OV26PUBgI4SF0QVEEGAOFVjwHXjHuCQ3MawYD44K4gZiJ9xkRxffYuDkZPmYxfxaoOMyibvdG7pGpIAKRjhZoJxNroB2omPfjw+/Wufir9y773RAzspERkgS9jwePSBCnVDwlSwa8AA+Tgk7BNW0o3oqC5oGReRDurjdmgNZR9/YyaVMhdsRmL1dGZyMQWUzKZvdCgWz83HOtmQ27f3RHViMrZgyVsb26RjH0EspMElxCZE/g0Ykb/XDebm9I14A/Z8A6NQpQ+rMP2pwcWo+g5AxJRMy+juzI4iAmo8KMGgxeFlXg8Cxi4gVYBFfaBtFCe07nYCEKm2oM1tdhjXbj8IbnkAdYwwIT9zIXJfQdAh4DgQGGV3sj8XGtaFGMQgcooIlu++5whFm2CQfNfX0cNioptHweB0aFYkF4I8pwNOcVbQUcfWAjW/SBUG50/Aoi3uzv9iMeJCXHA0LNkecD1/6/F8zRv+FPvngpnf82sHFZsgnfdb1shrVSIOKxcb3rIDb+hwLb5ldM91VDi7OHxvYDDC8zOGhxBxYerv5s27fudu3GSV6Ors1Of0otQuVjE1HNx0/jlAfHbCzNycjYvnLmaSR6tkbTH4h/aQj4199P5w4h461B/9BIq/8dwzcfj4cbIQ98XV6zejF/+4fd1DnI+9GYjO113AYx1L5Q4xoZ2DiL24phAqnwPXc4I4MC+VfHjf4WqB8x3fIWLYbs5Xc2ITolQHhEtYSHcAkDIApVNpGkCYAHWMCSfw++s5sTf2dFVjcQMXDwL+8R2hojXgDsAr/qaYCeuUZTIdGPvoyQCjNgBmFzHaHHXr/Na8bb0wxwrMRuPKrowD8CgmDOIg+5Voa5NmdyDmzZ98Hv++oRjfP0EihZ0wZ5xpkHoRQ9uXGXoU3sabG2vsTazbuKHA7p6jsHg7YEfeBYkk5+FeYFmswUQrMkN0ngVgwcpRK2g5NdloE8fvSg8pthIQ1FCqi0SEpz3q+nYxkhiq18GCVu1AbwbIbxBVsgmzTIMVYyFdNgC5BALvLH2tWLxB25M12mT+CR4ClRDmJ5dxCdpPPeNBwLyTtpex7O7CZjXwaJVtg+nRJcAGYMu9k30VbJkjAIger4xCVD2cWlq71SGQm8AF0GVbuB5+mWNIUHTB8b1tEfBUiwiimUiBthfX4RH9ms/5DesZGOeXnI/nItkDz/RtOjIL8jxUU6jC2QXZNdhVdkZjaHySxd9F0HmRB80mvlv+tLr03dLeP9V2Ko6l9Ymb183EboWIOaDTkTOHiQ6uWzE3vxgXL1yOS29ejL17RqMfsHAf2Z16v+GJyXjs8ceJnRzMTBgf+ehHqVo1QVIBcErRCYRrqMth4hkdscU5N5HXlpewKAIcJrMs9+D9TrQExCKdUJ2cMglmeK7wDRx6myWiAkqIrExqi+kgwyVgtQN0iiEW9qnDlPSqN55Xc8Q6MazDgFeNAb4Mky2R8WXP4YMxcvRwDB+ait6JCWrXwqYAQYFNyaYNIKzhilInx55RE1pJO7SwIOZuomMrYe2sAI5OFolBxoECLEWigTZC3BDvaNvIwQPR88i9sdyLzxnvBw/tj3mcimuA9x4SCQBF0Y8IOAAoXrwxHc+cOhWr+LEZc0oHO7VhgzAuzvXwI/fHwQNjmStO1smSkX1v/+hrp7tFOyAmwOnrJ7tzU+cnY9uASbdzjdYZLhYdwvtgbevcv8yiwrk0wChimnJKV5Ft9Zjsk/o1jtVi/DIxmaALQPdAb3ztlVOxRrs7Jg5EHfeUoDRnDZG8y0WDdghw3DGaqv3dxZSN69MHcYeHfS7LNAmBjzr3agdWa7ElYDv3TaDlnFpmORw/55iIti7WCZ4OFQaPKo40kKR8XHyn8aLEIlaI0oKkjwJTXeD0AeTs+XAfhx0jgX6D6a3Mxu7MFdKHXYjZ6avYlqzv6xHefdudzfC4Xw5aaXr6Wnn/XPhYCYubCeAwmJbISPvmG29mrYt9JA7QxeEWFtjjJ07kivn+xz8Qc6RaLyFibuLLNXfrZvzg938vgw8HWCctFklDxzhaoathpMnALMy8y4BqIEoqXuQEhamYESRXWADNmFnFTSc1Yeu0j2cmTcnMGiWtAKzAMIld4nXbd7AiEoa1RZbhBgp1RdYuyqSVqj1xfWkmhtChDY4djMEhAM42IXpid0gRLRXV6Kf0zK8gWncyeXVLaMqOoARbALbe/7pbbBDh0agvRN8ewsoAwRRlsdjqd2akhCFN+s6Vl2GunKc82h8L5MiqE8fbAESsj9tJQoDB7j0E2ZsUoBn7cMoeGr8nXlv8dOwfG49FUlrRdRgAiK7Arebh9z4EwPNbjBqgGVPTOwSIoWOiUclGnaL2qynrOw2xYyExVlV218V7o1gycSip6k3RJHDowqLommKsQMJhZUHqyBRndYR2cmsB1qDhfjnZ3Y/PzXrfxcIwS4zwNUL+jhFdg26CO92MHkC2w0WLdprthLvE8TlHawNYBFIdoVuidEoWApgXn/+977x42+Z3XpOGBjO5cLm3+8N2ckMFTscJ1+C+eaw8Ri7lfPe2g7Veei5BjoMVYMizh2LcVQD1bTJab8+xoHJe9cgjE1N57ncbgHBJd97WWqXVxTi4TeToZ/k5Nz4HEOOS4QTILcerr76OCwSZPlip24m0MNGjIDTK4L7/vvvicYLx91KopgoLefOVV6h3cTTGqV9gtl+sH9Yo42AwHv1HVLYw27ZQsJtFuQPQqanI5785zhBSUyyVHSXVywHsYHR1dvKgZwM8U2Tl1ulgUOMYhAxk2zoAqCWY0vrsrdhG1G3iTNoFe+s68WD0TR5IcbSO5dNsK7scc5sJKHgUk8L5DqwCdJkPj2OVYUp1Jk7VECSYntfQjpi9C1Bs4CtX2gDo1YEBWk0ABhqX+j3JRVtXOb721Wdj5iuvkIWFLMP7+qjT2heNyzcxVvAb+kuNUIXfdtZ64z5iixH648r09Uyzn3OeiatbBDgTz596LZ55/iTgQB/Rarc1Iza4f1rGbX0nOk9T5LfrwM3E3wGEkrEwcddo6+rGCosIPnGApvdHwGkBnkYAdYl+59gwWiMBgzHSYnRvjZM8G6ADhtVET7YvY5Vv4EIz2DWMAYN/ZVQFiIltfN9GWwzTk90pSrpQCdgKsA1EfAuqKzp7vgJwC6DK8/NZa8y23hftkpNx1YwdxVuBTrBPcRsQN7IDxMpH4dbCdWSnemx+k3/4vWOf606Jh2P4sZusUGd8MJVrRKeLSmNrjuprF8/jlE+tFDYXgLf3SX74bfyHS7mzttbA8aoLhfQ3JnsOgOwORYVqllm8fOkKk4fU6YCANUg38E3rISXUMFEMI6OjMTY+Bgigwzl3Nv7w934vNnFePX70aCrCmasMZAcUCn7EUSMOQLFke8s41Dquurrxx8NZtQIjaqizY79dfphJIJl4jDlWXSYHk6HCxCCLG0p89Cm8rzLYFI/1X9OwUYLFdCFeuf/u1ekYIT1VxQgFRKzDjz2YERDM72JSARllFNSmaGcevjVoC70dSndcRmyPIV+2SctvE+fasqmG6A9jTzdWl/A1nEHml91yLo5TlI2EoSBe1sl4PDA6ENd/+w+icn0Rsbktbl28EPUXz9J+3DfQDbUD4uRKQDVZjwN798eP/8h/QGPoF9UA9EOnTsH01dOf/yKGk43YS40Rr1fjwCAgtnrrOosE+6HLpJXgvvoyj42FkXal2w+jfIPXG+jqOlAbKP4ZQpbhZvSbVuLWWBDsWoCXQ8E/ggj95PaNMcIt4fOsHEe25YOj++Psa6eJdLkRQ/Wu6MdA1U7+vjbYEHkbAAy6kN+7QKVfI4CnazKm9eLZ13znZlsE3BYQtQDFZ8//dpDRxzP1fyxgmfoJdNJqm8YrF1lE+Eyoql7TBYlnII3jsL8U7vaWRhJdZ+jT9A1kMcyvGRw0PcGwjTFXXl0kSmY6FhBtDeVLnSDterds37jid0uL/xTa6aBpDXCfteq9fSC70t28ORMvv3ySlU8nVCx9DNcuJtUxfNv6sVadOHE8jhw9FNM4nn71q8/Hya89H5deey3uO3YknW7NhGx+O2uYmuixjdVex1t9zpYQrVb0b4JBGZvbQ2iUSUUFrSa6soqGCvZNPpdshkHoYMedpLS7xAMxDv8ps2AIWjVkSp15S7CaMllI+tAfzb12IZrnb0YFQ8oOdoHasBlZBEgGKW1CW48RAZYF06ShKbrrhqFbRwWnZKtulQEdJ4yvE/BUVgOEMgdD4tRxbSBibuJKUoFJVZl8ir1Vy0luLsZNLNUDgxSlOTAQi2ScaePcN8gcPX/zGsYTRFnkQclOG9dm/d0BROkffvJ78g7PX1uIXVJoNew/AGofetMOLM+sN4jdAiIxrL24b9OXirRae4FpQJfEDYjOOzggy8rUT2mFBRZIx0RxHdxl5lFHpKUVVpTjgDMq3iq2CnYmGHATWHy4j6Dy9q0AHfbh3yb3Qgu327Nf+lI0sTD34UJUAfCqAJ5ZjdEu3DYweBzecOFGWsjwEugAQN2NdIS3ba3xmXtz7v8X2CUM8VPGqgurRyr+Fa/9PMsCeK94yIqTGfOar956pFhMPyhS58pn22yhcVn8AABAAElEQVSTgOfNsY0sIE1jkmlHO0kImqsLMXsVlocUkZt98039U3zx7ff3jgQ8b4MDSGW2YMatZYAVg9vvbs3MxvnzF4i0GEeX1U6I2RyKbpxbp8ajV+U/Dqyqd+dvzcaXn/58fO2ZZ5iEpDwa6IpJimXrY+eE29aAACgZXtQJiJUxNsDT0ENpFSxFTzt+Yejemlh1dwlLgzoBPBommKToplaxXNaXFvCbQ/RDb1Y2XdLmUjSJx1VfaAHtzH9m9lCC9nfQr62QnaR9T0+sozP7wj/61biMOL4Nm9ESuI0IvQsQbzNgty0QzjHR2EcJ66VRHp141kOVSKhRsM0S7a3gXlF2MrczVAC4EscpA4olLKNpqFD8oz07HHNnG/0akRJ1XFjmbl1DN7cZM6Rn7ziwh9Msx+68YvBmtB26B32fjsxONBYU2Qn9uYP4ffTA0fjpT/x5dH7z8cRH3ovagN8a0ILxxBq0XbDbPQD7IFEcowTnA8WARGF0IvcvocNd8fAHPoCagL6mf5y06qAEY244Iu3tyA7uvXM0a3xw7zsBdxMJqKfTsivQmEDATbDzX2tz7OTm54IN7HyB9FCjWOL/5W//Vly/egXJvgAIz52sLq3vsjjAnb8uDIULiguuri7Fw/HCKktvcA7aq6jpc4aN0WafZWfVVJHA1BRlOaLFmazrW+LzMuCUxiOOwpkK4APwWInynvmdri1p5QXoZGmK9gnwCXgekYfnYSxmLkDYn0Y6M7qYOGJn9kYsXLuUOk7zH8pTs0PpEyHzG73Fm2+jjV648zYHrCuaIkVmGXalT/CrpM7uzJlzGSI2QNLKCxfPxdBwd+w/MB79AMLmZiVWmYFnXns9LpN2fObM+VihpsMsA6CJs2+JOha7LOcqy0tYNCs9gIb6JAZYGdFwAzZg6vBh6lr0daLXImfcBiyvDgB04KJRY06Q9Y5BiG6OmNJbVy4AVA18vEajhFuJVKGLqAeV6StLs4AvvnIArVZK2Y0pmsyxN3Xs3vjS+h/Gq//XP4sTP/Fxwsr2YTAglpMMK80dwA6mVoNNmqxI9lbD2bqtcxCWyPeKRU4oWKmDuWF6oQyFKiYXHI6xzcRqYuzhe0f4ysp8tK0txAhW68uIPOsws969+N5h0c3oDf0XXzgdfWNT6O1IMIBeqwGQC3VQyWSN4F3qCj/yXU/EC1/7EoYG7pGMQqs0Fu29tGOKNO6K0ysw4G6iOLZuXMNIQz8DEscYyjr5Dg5jRe8GcBduUjmM/Zm06+yjK5Fp8YUgoSAD62l/O8c3sH8H1osgnjo9fSy5Ybxj6roz21tAV7wt/tIO2f86jHWC0Do5zwsnX4x7WPh0QcoiPYj2ePHxjazu9uEEBticeJX6QYAkXXrwOSzb93yfRIt2CSCK4eCZr/iBB1G09UlAohcBJ9sB188+bcAs/dz95JCKu74WQCtKGpzH0MGEJ28r5/d79mQfQVVtredRh6eHAf6bLHiqIsqbjFss7StXLsbC2JEYnBjVlxwGyPXRNttpS74dtzsW8FzVVMjuoA8qlMSIZ6z+N2/eAuwOwO72UYDlZup3Dh8m8Se6sTYAYoPsu+feeCNmrl0m3S0OsDCteay4N9jXZJQW5SkrAjFhHKhVspXUOvoYQLqSkFEEHUg7z7IJwbCsrxYgxjDhdwx2AI/pj5TWHRsofz7/4hfi537+l+LjP/5DZOYYjj5Ct/pwtL1w/kKMI77++JMfiF6TgcISMz0VwFeq9sckBoDxH/poTH/mD6OK/mrh6sVYIyuJYXAV6lagHOOcDF6AxxW/E5DsG96TcbfVwVHAEdEKxdOOkwYepTijCjJFMNpJ5/E57I7r3YQVqnCvvH4Gvz/Y1nunYs/osWjM4nLD5Jk7eyEafVXcdIboR9jnIolG10gYgH5RA0gzlf5MRL0QiQCZGJuIB48/GH/86U9Frb8vJjFC9CNWH8fbf2p8JJY263FmZjnm3oRhEBlV5/o62isxONKDEWU1Tj3/VVqGjySZhb0fOqdYm8JEBWalMfSuSL0F2wLw0poOmzNOtgZzFNgUKx0Xf9JN96ENjVRsv/fU78fHnvhIjPeRpED3ID4Dluw8/xbsLkcHIwSASCBNxuc+sEb6jCWTf5qw+AwwS9nfH/M+v2V/21dgn+oFE6/mDgnUnk/QcmHPy/AP71M05zn1fMkIAUZALXPpOWBtF22wra3NYykON8uqDxyvfIn+dYVY5rkbV6N/3zD9aNv9hXt/+253JOA5EBxk6qwMtjflkHqiazjFqu+ZmjqU8bSGkHXiYDvQP8wNJ/8dHv6vvnwqblw4i+SGWLlM4WkYm0WWtxikJn7kDXowfOK08DG5SmUcgdvULplQkqIuiKT9+J/pOFvG14vgBcaYk10HWRCFFd0QiTcuXIx/8X//6/i7v/yrOXp+9Xc/k8/f/KcXRveh9xyPLnLiGbxfwlq83UaNi4nBOP6Jj8UmPlTT6CPnkDZ7xvbH6Phk9BAFUabKmZEI4AHSLm4oJBdY4frOvHQyDp24LzoPHgSgGeQaD0gjJCvgBWPaQY+IiwityOhkrALmzW6Y556ueON/+z8QZT8aBz9KtTe+6987HldOvonBx5TmA8SswqDU4MO0NohbM/FnRWsHk6gM66jDHM1nN8i1XOBi/8z4cAxzTSvE1R6eGI5Dk/vijWtz0bGvN6Y+8j3xVRy8V2dvRv/oYGzMkIl6DwW7mbM7LCw43iCq4mgMI2zDeorwCPDBoAU8riRLIcJsBIEd7kGGgnFOwe5PukmMnOkyrBVY5AH699Wzr8QZxsjkex9BDKe7BBj2ygf7ZxYTWsDHee8TKaRFjsv8R3fwVjWLySHM0uK++R1A55jVQT6dkfnca9lhkXXsOE4zRJCztZIjeNcKoLOtbB5MAPQkth+gFABbvobp08d9aW2WGC2nLk+dp5/iZqOojmFo4eql2Dp6CHWOaftVDrmJnBz/9js/+XbZ7jjAE+zcclXl2dRPG9y4ZVJwC3ZWpNJNYXFxOi1599+PdZPBsIWe65WTr8XVcxeYPOjLKJTcxmhehzUJmBZIuUF87TwgOcjvgQTYDnocxFi9stS0r6yTP4/fVCnArbd6GikAki5AlZJfFMHegD2+Hp/7gz+K//4X/4eY5hijRDV0md6JAZrigpOTwdeBvu4WOr6/+Cv/Z/zdT3xv/OD7H4zxPXuI2CCGk2wpnIU8cN0xdM/9+IetxPEPf1fs3z+einsSfcPMipTfdc7fa1YM/O72IQbNEelw9pXTMc75ho8ciw1AEbMCk0jdokMZMGBiWTnNgHLFsi7EzSUAcHuSql3veTjO/NI/RtzcGyMfen90UKKxlwzMwwPDaWwwkB4NJQ7ClkzEp4+HLjYuOD5oQuHnRwTEf3zfRDzy8AOwj914o3GBqmt4EuKYvXb1ejS7BuOv/o2/GY9/z5Pxyb/330QXaoeJfV0YLOYAagwtMKth9KN7MOB4z2v2G3rNFQw1evEJQqnSkOFrnOH9LmJ4A/bt9idld4IQgylxQ06WYMLvv/biC/H4g8dTl2dJS3ZhQKi3c3+lClk94ORrfu3HMrQW8BRREY4b+iRRRljzIHk6FpMCHHVA75Bhy/h4LYjJWmVtPvsLry3ZoO20jwEzxegUeQFPFz31xnnN7sNnxZlu/9ZjePOTJdoKCAIsv0rBqbUb12IZ40UvgJfX7oW89WtefpttdxzgtfrfQeC98SY70Yyj1R8vK1ExAnRVMIGABZeXl9fj4sUrcevmfA7aLWJqyeSZrgasi6yuAAjHMr7zjVMnYw96pG583xbldQ5IvndQL2PRNH52F1ZmsssuyirWEC2X51bj5Osvx6c/+3T8g39cMLoudE/3TuyLeVwe5nEvMQ24A06fOIf6IvqXPmqSVoe34+998mlYzkp8N6Fsk4gXA/sQHbsH4uqF6VjE2PDw931P9KhnYQIsAs6rWFSNmGhiWFFk3KAvjCaxiPbgxFjU8J87/+YZmGpvssKNMuAIiBcb52eyVjEKaNncLaNxLBGahyNxfawvBj/8aGz/0m8Q6raCH9purNLsdhxzeylWZEHxdgw1WWINvaRQqsCn7k4XFBefHUSj6/O3YvnWjXj0Pe/HCXk4plEXDOPeMjgymIVwaoRvdayV4vmvfZ241fa454EHY/Hym3Fg33gsYRm9PruE+0p/jKBoHzQrNNdnpMUCDtntggH3qsIfrc1gderCvE+6Azmv/79MWI+VP/FXvNhI1luJX/ut34if/PjHYurAKNICyUgBGSXBfAbU0+EY5b9FeGRU3lNBzmMJiglILpRsGlKs/yFjE8RUxQiYazDKsglP+X3qiOk/uRWHSfcgncgFIXMsuglVeXz2t7F5Xq479XkM4KyXwR5addUyKFprLU4c5z55LKGQbs1no1I2MFDN3rhBBu97cuFyUrkXd5SHZ/v22lqj+NurVd/S1gh81CMg750gqOe9oq61LIbQaele8vqrb8b8LFZIM5oQhqQPnDfbNED6x5l7zeSJNXzUvv7i1wmJLccDjz0eVayIfeiE+onbXMY/bwOn18Hx0QwFm8N14RYT++LMrXjq88/GP/mN38mr3jcIG6Jw8yJAdxUgFN6yrgSDXt1NZq8lDkn/rk3OWQbQBkf643/8/Nfi1z7/Yjx+H2UgSTzaB8gsXroef+nPPkkG3losbpFVBFHUVVnLbgWRuw+A7zAzL/G2aYllbMvouihFeYAJcfnk6TheIzRqb1csENnRBmAJTMAFfaUoCpNF/FyqbkQXzLWnuje2jh2O43/nr8SX/8v/LiaffBwWoc8eTrj9Q/ymEI26iUSo0XXbnGuJbCmUCkoLcCfH2oCZnXz1VFy/fDYef+wExhwyEWOk6d9/AoMKdTdiPfZiJd8E2H7jv/6H8f4n76d/ybuHy84Q8chtazBQ+mUcsX0EJXsNUG5y3XCSmIXdtcHInchttL8N67N+hrcQlw34Uiw1D+D/n3maYML4Mb56Ynwf6pFr8eq5M3Foap84AXpw/2iLW+Hqor2eUzFWhCIhzw1MzO+FFFUI9jOIliDmLh6Dns/Fz3KPujEJSqaf8nulERdxxeGsWwy4tfR2BQhxXE8l6CFGpxhLAzVqONaMn1Vk9usMd7NFzA8XbB3j3Yzm4D9jgbaQA3BlfjY9ANKBP3cp9sudv83+3NGA56oqu9MjPzOFcBNvkdusglm/jsVUd7XXX389bl4+RwUt+Aj+XYF/WQVxVv88yzeWmLSDgBFJxOMm4LdW7orf+OJX4+C5y/FeQO/Rh++PbdIlXbt6NS5dvRwdN6/EKcbQBRT5X37my3Hy+tUcEhMYSXrZb4k6GZdIHqp4okuAYLzLoK8ziAXk3NSnJF0w5AvQIah+cnBPXFubi3/96pkIH2w/cf/R6CaqYmOJLMQ4N1excpqOqYHO0dW9ZhUt3GEUva2NmwyDEbHO9fRPjKOn3IzLL70a+z/Yn0WuLa3ozLP+LEMeQwZMQpcWXFzax6iNQSr4wfadGPzRJ2L52sV4+h/9s3jgY98PAB/AjYV8ePzePkfajvZhUmYxb9f4/cwqQfzo2Lqr6zF74Ux86Xc/G52HD8YuLkCLGDFutY1HZfw4hglSdy2/EW1Lp+Pcp74WB554gvuCYWnmWhzEoGOGlPbS/8PemwBpepz3fT3nN/e9szN7H1jcAAnxFCkqlmjZtGxaiUQmtiyXXawklTgVl3VVbJWjKCkrtuKyrZIiuyLLEqPQkZ2SKcsUSfEUCRIgQYIgBIIkgF1g73t3Zue+Z/L7Pf32zDeDWRAkRXJQg555v/fqt8+n//30008/PZuGewaQZ/ZFRwQLRZqb0yCz4Pvh8Caw/jFN2WlqfYDOwvwvIWp4Fi6+xsRPjNij9F7ej2teM5gRDZ2QeuCub9V94vEn0pvf+rrUAxjJTTtsZK6TTZioh+C+lBc6KwzY0MlS1aJdBYJIHL22zoMbUx4s0KmcjlFV6E89OwetcqtSBjnFPwcBCU4qjodMj3uDzi8JU2VGa4KHgq+YGjwmeUFCSHSCrQN+7P7JzfsUDlMZqHLpVZY+rsK9LzOJ0UBnOX3jEgZx2dOEDhQfqACZzopWjXcHuV0NeKUeVDZ1GZFcXj8c1hLsvYT4VRayq3PUAvItjzO7iq7UksTCcHcN7k45kL0nmiEYg2xNF9DFUv8LhYn0FWR9H33s84mVlakX2ZPhT6GHNl4i5dzV2pNOHD4S4DPFkPrC1RvRKDQ9JYUq35Eo+Y8jCJoH9vHBUVSEatuZI40jANhqL8ZI0Z07jSxujxaI4VAXZlBsRlesgXw6maLhzy5mZd2hftGhFg0DVgwQhTugCTl8Zj+wNHL8cDp1/cl0+Zmn08hDD7I2V11BOSGkOEzWrC6g3jI/njqw89d64I60wJrdidnrqbN/T7r7h9+envvMV1h2thzm8eWcXB/cTGNRtWYNWV57Z3PaM9CSLrLs7Ab6hstzy+lrz34lfW7sufSj974NTrsjPY88sf/P/0S6720/khZPn0pjn3shnXvmi2nfHQfTpUcfTgus03/g+3+AJXN9sY7ZdbdtiBNY18ZQG1BGnikwNzZcY+XJZNo/VUu3mDzqAIQGWOXSjSmvKVDq62MnqU/K71top9ZPOCsLN4PaUhcc9h9+8MPpp37iHenBI4gTfCWQCE1RqRUIxTdVCLzKIpa6zo2aLh2dXJsGJXRUWwQTSwwBQv3E2lnDF74cltI5eeiio4l33uCnOrI6S6apdUqLJJpW0wggRhrg+Kg/6T06RjnTCGYtzTh6weKQMccAwB8PH+wwt+sBTw7KSYrQNKdy3CV+FuvDCyxDOn3yZNqn4N/3PNMCcCcKpYsckwx9O2j8C/RkyxBhjR6vadXNoZFrEWbvYH8aoBHOYsJ8gqGUBkF7UanY4+wsxGLjd3Z3doado5TRMDxoBnhcC2maoLGqXVSNQcLJj8sLb8NpUmgB7maBMAWw2A2IN866LmgyCbDRdp4cg711G1xPjTy0IP9agvAFuui55RoC8FAQYWnYArO9B+47BpfHihMsOXcdeiAWyy8yjFlhMXnLGsYPVieZKDmKLHAYLo1GxnceMwxF72bSYgBlXJdwqRSr4QEVgV0XHMMm8tmNOaeRvpZ0E7PuU4gRLly5GHkaRTWmCc716lmWaqGP18nM9gTlM9s+kE68479Osxj+7N2zN917392pxs5tGixomWc9M3LXFmacl5i4cCPwNUBNEUQ3OLtwgz0+JtoSGEunUEPO2p26R5H7MWGUvg7gkfvgbiz/b8NNI1tzSD0NN/nUV55J9x4ZoYyZ9NHKCFxumGMiDrmqDEdVZEQbHJdghBPEpBUKLOo66IbvTJ2/oasHqEdnZYeFv8wF+kzQFOgFHr4IAOKac15Py2PfCaDQrFnmLjuveafllVCRYRRjunSmOYLkhxjgXKEtpLFTdCamy/eRtvXA4rMd87OrAc9KFVw8x5IiGqamw2fZk2GCxdEuip+8CmAAEH08d0f6JYZgbsRCdxdEElwL1dlDY+7juILwf5He1d64CUJR762tB5UIAY5jhmFVBjTIA6CTdLVGIsEF0ZGWQiuZtDdoJb6rboNY4xpffCOBxzDTBlA1I2IKTlUF2yXStQCbEcYoGcI2Ii9zltW9UVe5XiNPMbtnKKSlFQJfYKVEB7OiQwxXrzz9VBplT9hV9UsYyiA2Qwg3Rc9+K00//wwzxHsxXtDDxAeb5iDEnmCNa/vgYWa+6QhUbzFz5B/dZzoOOgXOLUzytMAxDzCs7GdFy9kzzHJjyko3wgTENBZohg9gDurMs+n338uwdWA4tTB07+rDrNQQe4sAbn0n7gbsAXyAvRlgd4vIJYavruRowBDnEsPWBuR27QNLbGdJh0OnhPCV4S55J83dR46m43sZqn/kE7HzXK/KzMjhNso3kvOyfjItkT86HcPQPfz5x9Pb3/aGNKjCd+x5kQHPyrba/EbaEMyUiW6NN+4VITjZwjn8ch2WkwlAhXmRJobR0IB0QGDrQJkTLn3kK8/G649041/wnfE8A2ys7sBLNiaACINrAS+n0WF5zlsL6VC+3IBOnqa3TEo4w8/EXD3YOaddDXhWQyEwuTwXlLuJs2oQly+ex+oGwnBmZMdoIA2h3iBXpq05KhyOCjKAaBjewfn1o/i6j+HTuetYkWBoSZdOnUMcMYMLUUHU0ej9DCeYSXA+y3/5uZ2xzmcv2xGPagMhdPZb5VY4Da8vIleaRK8PEb04hfaLppQAAxo8aIfuGSoZHEy78qEzdpA/aW1bBhAJY4mPevYfSOefZonaYx9Jo3ccS9N8N8Xa10EmS2YA0Wc++Qepe9/+1H3H3awuWUw3L46ltUkmRva4gxiTObQEG6uypibW2TokVv3EhqLRgY4mZncxkT8Ol/DUFx5BfeZeVpW0o0N4M9Wmb6SpZxnWDgwgU7yextjBrPsoxkThKlYBv7n+/eiqsVa2FSVnwYNGqGFVAa+JSY4mJi6WWHvc1IM+28Ej2CtEV5GJkZCPwkU27h1lNrctvenNb06PodNXq/XSsWWTUFGI3+SP7Vy52QRgPTIykj79uS9i/eVdafDEvgBCDTs4EeE0gP7yMJd7PixclFFKlwJMRS6Rt0w/uW7jvSBo50sHK9AFPQl4QQnZ39bkB8QRbkxDUNdujk5UHPX+5dKMMqfLMKKdWI94VuSyhjxYiWwr32mte56RSswKQ3sOexX37ES36wGvVIoV6c5UYTkD+d0KoEafHJZr55mkuIx+VyPD1pozU3I/gFxUqrNj0Fsjs7fDCL2HWMt5CT2LFokVqgn7YhCAJFRm6QjAthlDXwlL6gpCrBITM3H4yesmvzHhGA8TegFQ0i04wqxAd3ru9Gm4tLfBybVjcLSB9Z5YECFtw1h2VjfQVIVyNLI9t+pzf9NICY2yEUSqsXRsykbJEPHo674vTT72gdQy2cB+sNPpOmuJRg//+dTOcqy9A3vTyccfS/eybKwdJeXZK3NpeM89DC/RvWOux42ALAzXYYJyKFgTL+XDbAx9BlwCcTTDZY4hJjhPCv7bH/2L6fiDD6QLf/KBNHfuC2ni0+RtKKXBA4fTiR99Txqs9bBhzzQzzFhe7mLJnBtMs3m35ZaVvWmQKEPXmMF0ud8MndNS53JqQ6Baw/DDCmuSrY/V7oE0y6qVdvQEj564IwAv9B2/zcZqjS0wG77HjgR3CpWmB08cCLBwBY5dk5AnoMhF2RnovI9hatyVnww+dpgBSpRhTqNg6LCT8TlcfWwFyTns4PE812QVhsFT9DrjlfjkQr00/tgoinPlJXyFZ8IpLsAvfAjExKx/h7mMZFxXtkjHJffpaCiHs/FtCWMnnHc34EXNBOnBtjNzB2BdYeLgzNmLoR81g/mjVpSSO7BkopmiG+iDTdy4HhyUi6UdBq8wZNPMdg/fghOYLmciAC1/ZUnSQshAJLBtDklMDNBlgqq75nkQFd99Q8ckg7NpzgCCa+gDLmBJpCOdQjfvq+evpINHjqVOni+jADvJ0quZqxfSMIv9D+47iIXe/WAOS/CR1wUXptSeISgmTOBK4cbIwxIqIN2jB1PL9/1A+trDn0TPcCCNouc3+/gzaYkVGcff+pfTM19+Mp367ONp/9Ao4FVL/Vg3cTvHRfT0FpDzNKBaQokFQ9NCXIrCF5ncWcaSDEZR0mU2yX7iK09EVkcOHk4NWI5u3Hd/OvBD+5mNvclysltp3/HXpb4jAilm01tRQWmeYFZWsOwDNLuYmaSsiLPmsJ7ncpKOz0PdRCsD6D+uoIO4xEoYBoNwgJhiZxUMCoepD5mrblmdScKwPupdqYvy3PvbOb8UFOxcdF95mkmYH3gjdYDKM2ISgStWeVjWjvEDbAAvgD/2H5ZuDJ90rOBXYIvhJ/kKCyhydTznJ4NOcM+ZIzQs61EuMpcy4ZCgkhupPas6E69OupTddkSi6MHvOJyv9Y9AZPwpR+OTJvBvuuCcFSUsQ3vuJrfKZFgMt6ljO1+ZAL/dae5VwKNGrOTgDiAolzqdPnMuZF6zAF4L3MEMs6+NANoI2xtOUtk3J28xZJlApw29Lr5xf4l+FXgn0LMD8PoghlnkgTrJbn22dQvoSWwbzjTk+3LeeJev6n1vficRchBXpjGGKvS2Ut37H3407T98PN2D3b4mVFg6GBKOXRpPf/yVT6bXv/UH0wM0do1ftSLAb2CoGpTK8HaN/RVWyF8jm2O7cY/m6NtGj6W+u2bTo//8N9ODcGDH33lPWhwYCR2uY3fck57DMkvj9bG0f/8h1h3DNSIasJkswcktw8kts2xMjk5tXxsNXQycZwsWVeYw7PlY+uLJp9ObH/qRdPrpr6ZOhqGaR2/vZTewGnLTeayuDN+ZlrsGATrgEv2+tHortRMOY3IUljmoRzsuh/YaLKAZRhG3wKnCeGIFhqEuoKOqiuuX25p6Gf5ii5DnA6xS0YWNNxq3isr17nZ1Uu+n/lol4XkW2Tc1dKT3f+ij6T3v+ivMJGNfUPkg75wYF5wCTAKgc+0Gly3ICHg8t05FjpiBDaCk/DjHc7/nL7g0QEcLLGUYnOmgCtOwCq157RCY8qG4SIJ1QTzQMDUeYRu+qzDkExuUMyu+EfDk6LgMKCQPq6rbUI76XEbLYH1IfntCrS+i78n1rga8qBcqUGfD9FhF3WQFGc4qhyZ4bBg1hoBOu/ciZ+pi054Glix1sr5T81DakxvF8vESa2vHWYu7f3CEoeNcehLOyn1Q5RiMwgaz3cGrcN9sgyrf1Z+rrER8c0wIDPX1pi+Pj6Xf+NAfp3e+8fvTKBMONP0wd/WRj309fXW+ln72+LF0pF2CR07ZNYASMj7ABMtmBUKXCZHEhdL51dZ0iHW2Hf/gp9MlVmJcZwVB7eJlhomspGBG+sT990WZuWmNS/Ha4DS0W7dI41haYHE9UKTpolkaThjUhFOZo3z+5EufT7/8u7+e7jl6JyNxluOhkL341E1mLlDnuI/1qLXh1DHZiVVkl9i5bI/Z5lXVbzqYHaeOSFvsDRGcSa5HGQyNEqygYhSGTAHIRdKzxhpi2CYAWfkTS7JME5zNHlRpyDZLCtnnFoOpy5RfPRdX6mc77s8SepGjvt3ndnioB+51Nj2DmtLB3uMhprAjAKbAHQ4+DJASiMIBZQKb7wSdOlDzWm8FT0yTX+XvM1eqGMTVP1q5ETD1H/kg7zl4vzEO7iK8uNgIM658b43jU7qFq4sVIoKiQ2E4fzfvViVmMegabpbOUcAztFJWOcKd9burAS9qJ6pVQoJgqNj56dnUq004hj0z17AfRwl1sRqhiYptQ7O9BkfQChfXwmbTWhOWENyR/grqFC5yVw3iPjaqOY2Z9RkIXichbEcE5Vk515PGds/q37/UtQ1CwptGjjRAQ/7SqTMcpzZ9sgeO9MMf+Ww6fuxgeg+6YkPora3Aaa0wqcFe0gALTZFD1YQGQEM0WIANuEmH0H7wQDqM1eclzGM1oXM2L3gwGdDPMFSzVdqRU+1ENQnBqI0h7hzANMX+Gquo5cgtaOFZReSPPvLp9A9+439LezqGWcaHUQNmUS89/Xza2zKfjvzkf4UaCsvNmB3uRKzgon5G2sgCVXomTpRsWkHkZiYtVLdhhBWckXk33gYsM8SyMq4F3TB5hamuZp43ADqucl5mOGf++qjzB46dSE+8cDKGwAESm0ps883t6ieeB1g4+8pYnaG87ulnT6U338nm7kwIryFaEDdaNLoAXcmNG1/Qifnwe96H472Atu54p/N3E1AG8PhGns+PpWl8cURQ/MQ9wOcev8JeBOInON/JKcpZgmuRFjvrAmLxjjh4QOdIhyXn571+ZQ8BwHUZdTzdmT+7HvAkHOvNs411Dt01uubUzRrFSWcxaUyus13gUHm4GzWNNYYlNrgBNvO5hRrFBZaH9Qz1pb1MWMzRALtp4IdY9/lZ1rKOYFZKdRTd1kYikW19tp2/+Phb+HEFyTygN8h+DxranGKiRYVfcAj6xIow6f+f/tXvpUk40r/919+djh7GJh60C67A+cDhyBXAKTSx/nUZIFK2o+n5RYZ7jcyAdrpsDO5oVs6KsltxWE3ZrSK7ajYSwpon78u2bkpYQ51zcAI1yvA6a28//vDH0z9976+m0X62sBzeR4MDHJi4uOv4vnTfHUcZ0g6STjobik9LzIvYHRREXMfbjOyoC7lqC6DZRPjK62jKNL5oyi4UyJwOv+J1VDInh1+uO+XEt4KgHZ2rHRrSEYb9Ah7VEv7jXdWoAyziMXnk2Xb1xuvs4hsyj1BXC8a6J792Kt14y2tQ7bF8WejGkF8Xgv86QCs0IWhFMKRFeSChBfiE5WtBi0RuAjzufeafmcsTHOYzPzE8K174U9cw56fyZz1DD/mb/H3k0XozHo5QfxHoBDaeOyObl6EhOOBbh/A6i9oQdqrb3YBHraxXEMSwiD28RbgcN9Wmbcb2gdMYs3R95xhDQ4dNe+b6UydAqMFIwe7a2M108MQxzLSjhMzSsxFWMMzCIt117Fj6jEu8erO1jtJASmMp999xwoC4p5nEMEPStVO4iqRnbYjIvY4eOJZ++f/5j+kzXz6T/t57fiK95XX3p+HRETg7li8FZkVTcSIOEAH0sD3HglsA34ETXB8YFWs2CW5VuSUTFGtM5AgtKwjk3Y7SJuDOcC6xmmMY/PhTX0x/8MH3p489/mk6BPbxRXFYPbOF2bV0oq81Hb/vSFodHU0zLRhBWGIywoFnGzPkgPbcEuuLmTVeZlbWLS9byZ/skPiaBe5xS+yc3S+CxspnUc8mJQBDuRXXqsto282F+erwHd7Dfhk4yym4FTq1b8e5d4WdQyuzyU9+7evpEtZ09u5HSdoepQraIaIz+uFIk3Qh0GaT61Xsphuu2Jls33lNbYZf/cedieYIICTPscoi1FV4zr3REQzfZG7SZ3HE0yoer/XET4Cn4Snro3BNp52YK2bcqNuRjX4N2Ukho9dVp3yzA393N+BZZzQW6bqRXmp+klUCaMTWMJXUQCOYmmRZEkNbKBTDnCvpNIY/F2YOpEMsrp9C098tGYfQDxtF38rtAttHMUCAzK+TocqJOw5h1RjdMTgeG5yrL6C2OGIIEMTxnScP8xeN37gBPSdYkFpBxAr4mZWDGz1x+O708NNPpod/5sn046+5I/21//Ld6bWvfTDtZaOiFoaANn7X3y6xamT+FjYA2Ty8g1UMTShjC5+tmIYKU+kQ/hqK1jU4P/HUnd0ERfeYnWDm+uSl6+kTX/xc+hf/37+OpnBs5BATJXCQDHdJTihJ79mzJ3VjsXgSbq8fGV0z9SJIqVgbHRGK2410QHMYcmhnfW6TNvqIxEZf/UcjNc98ysG3Nnhew+8ESLQCRAHg1JV7wjYAQB1wjXsqwNNMk5uMuwTPcBlkBgBEBJFysSLX3fYdl+8EHTYggm56UTq+Tj/xwtkL6Z6+o+ixySFRQOQrgrFu+MSJgtDNC/QgZh9bptYX17rgrkifFk38SNP8YdCBZ/qNyQ1AMSY9eKYL8DIiA5SrNW35Bf4M3/zyKnzHi/BjnFl9hfq3k+CBh1x0cHz4crOr2IuDr6O8+byA33pwO+hiVwOeOk+KjyWOVsY9C+hHrDCTGfstMCur8co+5HI1hoKjgwPp1MmT6dmnn03nVr6aDmO66RjDrlsAwfj1m+y73B/m06eWMbvOEqJ5Zng7ICIF9NGBK/MI+stEEz0zxKeTILdvON8apZTG6NcO7bLLwzhnBV1Yrniph0kVRWrjtyYwK8UsLpMN7//TUxz/OP3FO+9I//k7/1K678RRJmXYdhA5ZQMNuKmD2UxNQtHDdwCWzuDKSa0wtFygDKcZ9s9i2HMc0cB1OoUx1lmexUbgk8+xWuKRRyMpQ8jqOjtRAwHoelnv68oLi0aDUe1DLPzn3eqccEy4TXRCyNoaHdoiXujGCHsjy/4UMbj2eZXVIDFE5ftQcCZv/unkM7mNllydopydjYRPYVZXGRWcC17cLL2zlzW4uAW4YCc6NAzhXC+QSVqrsHhfX776r6+78s5vVMOJmWrKRnfqDCtQDg+n/i7AAY51DavSDRhNCCDivZ2Hg1f4pQwoAKATKgF4vperygUVw1nDFL4EPEFfZldaNm98FCBZ0hOqKviG+vBLLNIFhzHCMhKfgJaDz+HyGE+uKdcykLOxMesNmjnD7mZUqi+twhhYe67gsRMx2Nj8J7oXQ9pZbvcCnjVTOYlGI55aLFbBsx1FXXuytj44lAW4CEwPtbH0qRXjoF1ydzevoWuE8QAmKNrkgECNDuy1qQBLc2UfivNp4oVz6Q0P3ZUeYY1m6OpBKDadaIH2tBLa99ApW9K6hftDKJi+hcl1xotYFD4AB8JKq+dOpY/8s1+PFP6Ft3xfOoK+3v6BoTSEPDDkYzQGG5qQPYOxTjexuQlwnr9yLZ27cAX9v7NA02bngvpBDEXOUNY2kl5mvy0HZVFhihwA6uhiJQQzua01Gr4cC63YCUct7rrJt6bcVQSfY3OgQ4f28zUdic2W8g3eJYo1V66cdfAyBfV4bL0WdsnuDg/+Bwc5QN4OcH2BiatudjhbZDY3qqrUG+9erjNMwcXzkkNY6OIU64Kv3TqGeX9GDsiBV+hg3Acic20mjjwaoZ2kstYtkcU9P2bHOnNoa+r5Ivs1CL/n0G/Wx5Pzq/yUALaEm28NpThSbhhR/iV84zJcw7NePCKWSItfW1+63OH4JCKMZzvlZ/cCXlUDVonV5IREbAZDw1H5s0kjnXAcjSw7UtDvQprhw4dCvjXNXqxLDGGbGY4tYs6pDR22Wg925eAMFi7NsdfC8+kEwHEcrumJM6eZ1JhIQyzDElQ33HeGIEqPvhHP9lcSZxs6ePbgEqZDRjmMK1NudNOYDrKqwYmOm1hb+eijKgRnpeDtQ9vuKSaZsDyj0rY285ywmAFQNcIpaHYoB4UrMF45bf3UmAjp6OpFfsgsOJXi8E7uAt6BFLpZNXtO0MFMTWC/Dq47eBlWbtjiGRhn0At2Oto82bKB8tKi1lHZDlC9CLkTAGPda7ABHg9r0GwGfvfhdOGZs4B+T5qnjHwjcAWICJYG8jJc+a6R4bM7YbaxnO9pzH6dZenh6CD7HOMhLBSTAqN3GWJgsTEEkGxEku8jFcQemchpCr85RaYqAM78e1RgVB9U5kRN2YudcdS/WedaeShnafqMybODFZ/l5wK2nZIqR7m8XmYRvTgR34UnuxfwrL+Q/Uj89MLMMobuFRUqZ2BD0AKvUhz3iV3GLpuCdfekbWWlAHN/NFgUjF84E5XdRuMcG59Gx208De4dSf2s0ZxCfeXuQyPpzLmLNGw5wKDsGDpYt+tEteXad9+Kk2i3Npb6cHKv7WypJpu6GMahLsKQPPLHGFfZomsjtes2PqGqB8NWrIr0s0G24CNY2CiCI5HDIL6sysAzCxFHO1BUyNwF8jE4m4lpxARwZs10Iq3o3fUBdNhpRtWni/zb6BsZVgNXAjDy0jasLLfUuhi+wgPSgFx72gjnF2DAkDZmVJm27WentiaW+qk/6NI0sDMDXoCSqSQdpFYwy2ofPrFRE64KvQ4Veef63iUbM/dtcFyHmbBJz5yNNhuNO4CABk96fMjtNyxjYzIFyrSkE5XZOwnbDSLP0Pnde7Cf/LP9pcNm4Vxph9Y2+YeZjfBDdhbYFRC3iVYyd6fP8FwBHR9HAvP38Y5UBJD6irya36CB/DJ+zQ8BEGfm2Ey3h3QUM97ZQ4BbJlxbhkNt4sejfnXOomvXL6fC353pdi/gWR8QIvWMQ08LayIrDrVY6mQdN9Ko2mmgqzF7OIm8SjUGGh9039XRyXBnjkpmI20a7jyL89vRT9OwY/uegdSGEm4rwrJudM1ed9+96Y8/+6UYKqsmomXkiMBov8tOIs4qBqh0dGFKCdWIJbaCVKazTsxQsI1UQT/NgxUW2MYjbxK2K5BMe5CzhVS5vJIEMIwGIFdliTLktREhp2wGuDRl3shYuJ2d1tpR3JYj0DpIM+caHYudjRxfGxZXGlnq1shqCtU3WlkVYXqWmWlexgbfCsv5agxr21CV6cCSdI3OBwkUjS03WGFOJ7chRDfKfShwN3G4mIAhdQweuXOoaV2jHE06epAnHt2nBUOc+SP9yjtdwSAgmKvIXHj4Bj9RPMbhIfj5fXc6c2UMqywYLcAMvxhqssoQ0etYIRNqM0BhlLEdFLPUzHBv25nlbEUcAT/cW2/6rT9K/iuPtz1tCo48RDnKhXNt2fGf00zpOkESHR4sn/6s0/g+8n7bKL6nL3Y14JXK0T7ZPELwGN7RQCVNe35n6VzorjXaJtRc29TL453KrNQuHAsHvdqCQMebXkCkiX0mllDdcMlZK2EdObg/3XX3/elZjGjuHR5h1hahu3BQNcDvVu2b12gwpN2ZtW7SahJiaJJbXXBR6mjljWyELJurzcd2bsMXQvJzH/rcQ6VsD++CE6ve+GS1Giqro9eJNZk2JoEatS2FRzkCVS0EvhU6gg5UV+xAWpBxyRU2qHMHu93Ct25W7aqXFurDqNrQwcMD3DagBFh6HXI8gcUGp34eeVU/L9bY8o3feYQslYsYgMmZ8m+d1pgEOYCMVjcNGsk5rsHZrxK/3wVPxTnCD1/lpzz0XDk/MGi4R2lGqzmN2PU7deFGuuXudryMZIZ3rvTvU9Ifb0wXz8y3YKL/4M4MM+70Xbm6aH2ZQzasfBRvBMhlvefyJj/3u/KnXcfgMvGSn1EW5CWPUnxomqQfuw44bGfMeZbpJX8RHnbYz64GvGUak2oNq6g5TLJ0bAEWppnhkxZRWqMroyqp0FYE+7zhnQ1ariAP/VohAK0dL8NtrLIkqobOWIBdjf1Q8SuI7mVfi7egVybgOZRyAbvrE5U/5b7/5VNEqBpI7Toag2QavbgkWTWY3Ci4h9oDVD3zjZMEwSsxk9rb1huC8+mZaUBemR35ktsF7CRv1TCKy/hRRUojKPH4vjQdydtZSX9NY36ef+3zm+CgWhEL9HcOpL42lubRVpbhkFWoJcjgyVoYUnYjU6yh6qKcrhFuW/UZVr0BppQXZ02bu7Z5meFfH+pAptdZWvEAJjHOqwx7DXcdps18pIhnXLtQXkhRbIFODmEAutx3oK+DqJZOaX96Ha++NHODXc96UwPm56c6USDmJXtRkwaAkgij88CfYYfOXlxv/Bg8xUpZZgXjFTjUXia3rjJ7fQ2TWYvUQxO0tMpWAvpppf5Ca4A0+helCe0ZThgVsDiVFxC/5zBUKsst7uipckEPVf7DJL+hiXzhrF8D8sjOdwYb5EPFBI1GCVFOjnCcheV9WGOhw7FcreMCiFLVInlobUdEQn3kiTkqo0RZItoh510NeNaBxOVwah4zR/meIREzsJAfRJeF2jYfO1zPdPpBQPIH0to+Nt9eZhjbBDGvYolDJdIOVlzMoCdmw+5Gv+u+O45E2C5M10T3KhMFxltPeOHhm/gJ8JNKI105Hy/1ue1e7mGBhtczhF10PlzCVFGATqWUnJuXxG/avrErviIvceOPDcy48lmZWw3OuIfZ105EAU5OmO8WlrLl4RKNnWcOreW42pgI8phnAkgRgABnmaqrJzfh0LgZ7s6GBoMYhj+1Uh2rQChbl8K57CmbUzIhwKboJth5mC6zRuNVDuUKgcxVWeOJyaXBdOL7Xpu+9MSTqaWbwXQUsTXPxW2d7yLUTT7yk+o5aW9h2G3ep5i8UYYY3BG0sIbhWEFTDtqVDHLYDvX1HStWqGe5LenJIWQu23rQjWAjbnPnn+ktnV+8KOknqT6PzlD6iWuArBqr5nfEA2fuyCerpZAmy46ArNvyfRkduHdxG3Vgi+CLHN0O/bVMd62TFCWOJZZfzWOGHQrkCYJwjLitwSl4rba83JpqEXJCYWlWrkPg4q8ddRWHV4twcy4l6sRwpcTjcKiGvMlh8UEA8fV3HU83x67yHG/20oUAufpW3DqnZVC43AjIjRRZ58qdZ4cjbZhW6kIdxMamvCgaHde3+74uqNtebv6WhklkRabTQXloTEBQ0hmfHpwoUfdNsFH2U2OYO4MidwNDP1efarelh28FP0HPzbrxFntzCBw1Jow62Eekk4khZ5Opxipey0C/fAMiagDU2fSWinNsRq4q5rYio62xMJfiYFNrOzKsmDSzpLC/Ix07fNCkii5ZbkkZOzS9vXupd9VXAGup8jHsEs7brwJucn5uaL5AZyi4yGUGdycQyv5SXmteU3eWa0zkCNKkLcq9JKpKQgBdiWgLLRSvBbC2nokk4snPSRuA57VOWvHa9hLviUN6Et60QdjZ2c2VedQHiano0m93ktv1gGd9LmGuaJl9Ul0b6L4DWq0MlQfAyj4rLPUCbsqQHEZl2sqNSoG9OzoJiO00KrmUNeQucjaxvhOurw8500P3nIh6ryGDctNkBwf1rn6YVA8gm6/rvoCYfaczD5lIM8GWsOJM4wjw4awcqRuFahv/Ctel0fh+/XvSVeKMsGlwglTmMHJY+q8/wj+ePefnCrnhzGgIzrz2sXxMJWG5FjkvJzMEO22rhcFVwm+FQ56ZYV8ELEq3A1hdAFMnQMUJro40Uc54AZzg8EKW58wsQ14mjgQ0AS6skOBPI5QejYCde7I2cG6kDhoJzKOZSQ/XB68hvnChLsyjq+xYvkZ47J1xcGSPWUcpCVQCWMJaiIVcQIXr0lHoz7y+HJdXJ6R0fYo9P1iC52QEwQcn5bAxWDhO63VRlX2ErT/f+Uzw4YOo9+ql5W4CQ+4WSaUuSNd2afNZPN+SbuM1X76LNBBHDtc8GnkGufLOPgBTichImWmnc8qOB/INO9Tt6iGtdWhvtISiFOpeWTzivqU0hODkbPwQvZseO9MHGWwQUHBp1irCd1kPCQ6qUG9sFRnTIvIZhwTKB5uxt3Tv8SN6Zgkaw14aoPbW1oOINy/nR0J9sb+Sjxe/MX+mMPuQYGtMDDgUcXhtGtYJvHxsq6pcED4RlijLubxfP+uHQ06tnE2ogOfERIuTPZSP37tRkeb0HU46XPS9jV7T+RZjB+DVzrc2VmV3FhJe6VTkwgAlwK8JGZ9cH8GIAMzo0tEQfgwL5cQFP/Ia6s2Oe4nHbJk+laWtU9MXKWJoaQQujWOePjUjNDxSzdSOkSatFqsyojzOMLa6aPzE5Vln/m/nXM2gO3+VfUAY1i5jRr9JBXYE/gF2IghcHVMVJLYqdyZzov6QMYaFEuwJ5v0rIgsR30acpKP6W0+F6anSFpFzu1Gj8WT9p3CPyxh4iO+rQAw/hq+RfkHRA9DF1yLg24yhjQ7EFZE781CVVfX5evg74cJuYde6XPGqpEB8LHi3wSjoDe4uqlMiFuwENX1zTy2665YNMZbcWM1c++0qXJPKxV5bsKGQSaNdYyXCEOaTfuhNr09jt8aYMGDfW8P6Jp20K/HVH9zEvQ0+Dj29yOVm4PAxNksmbjk89e5MRWmsL/qMBxvh3p5UjFF/WoAO1YQKADIYIBiAc3Z4FENXJyYY4q7A3TmZEd+AeDGBQtl3AcjNfO8EkRs9W/b0D2waBLcHGGbxQu5fYN4CBK0XZZGqpgRnx7XpiZ3ZmGEXVH2eh7qcQUq3qHRf3ibiI2DUj2DzSH9ze0vaixWZNyeWmbFBt9wjBWS139aV+ritB174vTqBLcR7+ubNNI1ZrRgSqgoFkAiG6keqxBg6f4ILh/JeZ6EFmeDqOBfnVXBxnH1vZUY6N7wUr5vOt3udvyWvdTTkpen0T5c529xRmuYF0t+FqbAOLX7zPrepKh3xxc76uT0V76x0fkdSE3IwOlOHtEtwYiurqAsgs6N+Q35CWwO4KCKEyeKajQjco1IhCjzFBt5QhESnXG4J7s6GLRCqTgD6AWwIvhkmdzdMpzfeORr5CM1+wCeTUM5aAR2JLQMFJGZCcKVBheUKdOZcMK6AuxFdvyYOeCGIMpo96XBe1LDzsWLa8dOI1eFOFI072SHM4faCw25ZJsBBwg2Oirgl+q3x50TwPPJpXj2iSOJ7EkhsAA4clBu85NUTLKaCc+libw1gJLUybmzjnmxTNpp04lM6gwbEB6usoDh/8Tz7QLAYzeTKTRO+IEaRR3lnQMscpA/dvMb1rvkgr+TFNZ6gaDZIAGdmOkyXHKbD+LxTG3OysoZ826SMVTAEFN1Q2vpU0bp3tC8de+ORyLabHDkzC49jycRhh2buY6KEb9brx3IRHLY5MleEDDXY0mU2QWLvL6w9Y14WICN+uEiH+It2kNBPQyhZI0uWy9VRZ1nkYkdFucnJWlbxJ43ghyMmYLjJ4go8bHGmbZWOxS+lkGz5hM5IwHTtMPFSqlYSyyd976F3ShLaMo0VFmcCgANt7Wc9NAYS9KZk23LZqe7FJbJTU/pnnK7osSQS6sZJi2UJjLWwIQeCxqJHhTgCAvCjcm5cmw7u4y6ozPt4EIQeRMe9BeshcWhwsZ2GfXzfcDp84EC6fuVm6qQh3c7V97DFTzQqA48hA7FzLn8+M6UeIkq2gCE551QA04D6CjOl6MDx3mV0yrY01GmP7We2mPJX4nzROfzpN/sXLP3OmU6Hqcq6BL0uDS9gYLSmbhZ/WlZxKKuzqPw+Jhps3Ii9x7GN98yFk7Fb2DIdhmtEPWy0DosDrIgjOhzCl1N0GCrIK2gQtKL16wf/qlMEkHF2VjgDkpMXXEd47F0r2OHfsLI+IPmI+mQypL8zHbnjYKQ3h2vJmPD6I79++b8CjVxtbnLjbAcwx6hiBVNiZDkDGiDjjngOKZcBfw87BztRPQX4mIYAXM7Ww7ojjaTfPNk5BA2V95Gv4rHKA2kJ4CasUKwOmrU0HakwgROoxkjAkY+gx2fBbTrEpp5jQiWSgrUcluTFbBxpy+IC49iZLpf+zkzbdzZVVlZFELFRNKAUQwZlKFR27gkl0gIIknsmWhMWBFVSSDgShIej3RAqRzh8AcG4HeGK+9nC5RwfHeYrVhBAhMaxndsg3M3Vs73vF4dgtqTxfHhhe2LrRS2e8OcQM08cKEuj0auCUJcW4y/Hi0PPTyKNlT8j8l6LGZ7rXQvA7lE2Ow9OEpBZVtYJ63CLbTDPXjgfn8wjyLejkUMoh2nfGK4KdnBmfF/ijwZu/IQgOMYQjxvfewh4Ap3flJUdpqUAnvihixDwvwSwtGFF5hhWq3UO/VUlerllHx/d5kfAM3266yxBdAWLNhZjtlz6swNi968lZvzdRzhmZ6VFysSOSfqLyowQDCeHFbfeGXYc0s3md/V+lNXpDDe77FcayHRgfBXtGytx54mS3DYiLTxbAvzm0QXsZW206kJQfi5H494++iq+790pd7vfu/i/5zELes6W2WsFWklUVLbtvzSakKmAZJvrsBCHdcsbvlmHJ4kFwIsZSXLo5MAaDUf7eRO3pngC+w+x1IeX20H9k1w0QcRcSoilUeY3L/4t6d38Jjd8n2mEM7gjrhfZV1awMBHRg5OAAnolTr8pz7ze6iJNfGcjzpxF1ZCiYWd5YQeztDYQ3ws00bhp5M6aTqH4fOrsCxQQez/0DqWz7BjnjmtsrsE3zmBSboRFcQb3JThbTtaNIGherD/XOAsmMTSnnqyvnB5e+p64/caPQzBveuUg+SvqFsbj7Pki/rtQNTqI+S/dFNywK2q03FxcKZP6cirvbnde92s6cDehg1nWb/eRObkpOyFXbiugCGVfZId5RQ9NVLtLRK9dQJ3DVnJJnioQ5HlJE6WDjyqS8O1tvtePB1mMconCLH4iPLxKu3HQ+UDD4dF7aNiKyGKgzG2SbDY77019AB48Nu/0n2OPOOJuZ/2st9GdlazvTmryfgc0EbunbgAAQABJREFUfmVtAJKE4bAherSoPAmEeqZmg1iqZHkdglzP1jrO5lPMX4cyK+/CDLacHrXvNyojj03MpgFMJAmy640gQtieRPSTDz1t+Nl4Ltjkxm/Drn8eX1Rxy9G0A3imQwC2gbnxyrfqDKcMnQQe47YsjMf9fd3Q3EkD3+XJAyYFcFF2+JuYnUwvnD+dJikTt3PswuLMpavn0gQ7wjnsy2FT+LLNcA42I8MXCAPofErZCoI2XEFAl4EuD1Xl6AQ1S62Uy4afzNWWMhO0Y5kb3J37bYyODKY7VSCfGme0tpkDLnnw7PHynXSj75Z05cY4M7Uovggm0FrMwMLhrWDifok9jteQpy0yS+zstfJg48k5yXnhwXrcJQUmJdJTHmxJWEkvX/LGMrOTy9/EWdDzzxve6co3JDA6cIEvgBA/oUjP3r7dPWx3GSECitKb4cbXO+9nVwOelWIFKyNRCTQAK84ZEGJ2ESAslV7OfiWllHvPcQ+IhczFWTUII8CTd4uEMYdy6Rxc1STE3IqSbRCF330DVxqqDVoQKA16/QxxqRUv91Qa78Y3EjX6d4BbJ9Y5ylBG2djGkKVwQN84LfVJjTxL3cRvfMbvDLCHnGQ3O7ypqiD4OWkgWMlNWXTT2M57/gX2eLh1MxSOtQZtGLolQDgrEtt4TBOc8DrohZf4yb4tduqBsEt5+NywYmhrZJWzHIr8DA/xtHRW3kTZAbTEqhgUu33d6f6H7g1/Ah5RrLuS1sIdlvt1Dy9xESKS5s508fwNzGUhpwPw7IDscM37POts3WZgFrNcMwz3lxnibg8fOQ8lr5HfjULZnIIqvznfhW6hdznEOHxGBqO4qkC49n1s5EO9Becn2FWA570Whtp7MQ5LXefiMQDC2hz7jrrb1YAXAwPqd029B4ZCjQDfGuAQDYGGlEGB0QQ1qM4YWBg9dJ4RlTDyIW4t0yI00S3hCJwSqWoqS6xVXWHIBp0whFnGvtw4U/l50iBzMYUeJBMbfm6wEnJpSOVaYMsAUgTxNOyKu6ons+LfkE3HEnLELjTha8zSunWgE7cNTDebboeBcqtGbAoiS563ccGpmmVcAIwgzLUWh7W80sai/3Z0smKyAv020yvHZ7jOYCu3GyP/Zy6c5TwJ54dKCBGSC06GlNKzZ07HMLLGLmJ5qRWlkhNMRJQvYbopkvOMcU/owTWRLjsRlWBRZgmz8k7emM71hm6zBDwdejnjKUgEd0q4rhV1hlkLzivE0QHHeQc7ukU0KIsbV5X1eFZ+NnV6PCx1lt+b8/ojl3eNpWTXmCmdcd9aZmct+TXklwwB0soMkxlMaNwamyDfDGdJE1SZRwmkPf9VQ1lDt944yEz4ibyS1rj3PXUbIhnOkDh5x590bKF5T9lb/flaLtLDezxV3/qM3hsr184Q204ESmb6Kc8O1jS3YxoqhrTxazkZ4M50u1aGZ6UqO9FszwoqCTHVL7I5B2+j4ND5K3ypXmJFhiqFjdP3BgLhBJlAcBKZh+SoiyEYgAfycc2G3pgt162xMgPRNF4VvhOuRAshFaAKAozApTnC951h+y3XwY1U38QzfmKY4Q2uNDr90o7piefZ5hD7cfzNawaLPC6r7kCYET7pFcwk5khDDuZFvwF4EUGVffybxxaWePVjtt00wkcxBNS0OUrW6Jq1YFfLvS3cmvDazRsMWy+ECEHrGjY6LWyo9DvHTPn+fcfSb/zm78D5jaV3veMd6SgrHubn4XIAA1VV1M1T9cTtFqm54MaKGStVfQI6KdNGJk8opJw3qiKXH2BDx6PdPs0a5TVR5F+ctSxNOxl0WmdB5Wi25DxycF+UAUFCJ1a3nDEZi0826mPrM98bZ9CIN3XOdHchm4Qq0jjGVhtQiWpoJ+0E20yHODc7gdiD+hrcCwizTBHAy2nmA9JIEqytOEceTUbkgXMFfD7Xnz5X7eBIc6jomCYOh9FRJpytb+uAcQzvSIvlWPmjVAgGejMc6EUlK537v4QOHktf+qgj9SNjVtdNzslI5pMzBMYHO+jHotq9jsq2wgWQGNLaSnGy6w5nPeqBJAjtNqVlY8jDTiqahkMQEBXkAo24RnKOoclNZuZ0ckSLELezw3nY7JBm49BPEGLFvXltmhx6K3fTbwE9z0WW5ncBYBBsOfuMpg7XhZUWwlkA8LLMjTAlbJzPvxUXYAcH5xDWGVrPKhXb2AzT4a26bgsM5S9euoSgHqVrhrkRX+XH6wLmFlrvHcfTb/37D6V/8Vu/nZ48eYq1yl1sCgTAuVaZcJopyxbyj7k8GhYKzOwJYdlk3LKc6G4EpeocDVugwJldyyoAinJzyBYTSj4nHZalJWI9O0TfP5JNRdkPtvA+yovzVhdxmI9t3r3Yr0xb5jNm3FKAdKqEvQitLZGvsQk2dOd5O8PEBhf90oG4IXwjR4AWYB0b9URnmcsuytD4SX+kIeoVsBLE6WzMcx66St+CnGVX5RSa8pnlZVqKbNq3VqThSb9lWZwTcY5wIF90FzvS0NAewo8QItz4bAf/7F7AoyIlVNuCxJ0JhXpnOJo3IM7cSybIDEbRUOoqE3Ko7iQ2uTU5GZ9xCHZQjRiqrTdt5k2pWCup8c7BoAApgQlg9fHUg6ARmDYbY3H6LcDnM4di5kHnO49onNwL5FomUSAvwKp75/rVwln6jX6Lf++jLKrn3m/nAnBJUyvyORtwCUMwFfi0aOxwVovKl65cDvllPysYHIKr+mEc/kU4Vf7MU0t3X3rN296UPvzIE+kX/pd/lD788GfhPlrYY2KQYR+NFfloE+Wl4jKSQ8oPFRc4QI23KjONtksDDTWKLfmy4TvMto6jbnKrzvmV07aDqbhD03WArSJ1lxhiqjCs91Lj8YKfkm/vS7mVd1vPAmmUM/nVqYs3j7gheCLSDpmkiRk2Jxrcg2ysD0DBijDGUJvZ4yMLD6QB0gkI5vrjHHREeFWYETA/IVph2OxjgQ9qzgc9cNa7k5vLRyjJQzOmqp4OuIl7Ac59jKMALGPiX2R3v5bOPtZJ542P8neGsLPdRiva2en8DqVOlj3rb2UCsYfLgOFzCdiKDACJ2q4DlKj4TGf6ixlBAYze2sZkr72M/t0iulaLELVDYtggQoWwqi4xiKQiqgCAimh9LggW4DPzNkABRGDzve8CwACJRSZEfCbYeOi8N0y5wn6UgP1O/3IyvjO8cnjvUb4r135f7+qf+0q9N+NrR/VEbq4ThWM5PMN11nH8Fvv23rgRQ1onMRwGjU9OxPtSvvoVjOUQe9kkqQ2OboxG38cs6RSg+bd++VfS7/yHP0pXp9Bj7B1meAfIAWj0IiGHU7Jgs8+KsOSLe98LC/6VvJXytS6N057Ic9ERjHIxs4CDQ3DlsQPsyfEQu9WtTWHQFUVtOyddCauUh8/qr73XlfIraZCEooMjDboZZHZzCP690+qyu6U1t3WlkQMHU6MyTIb9LS1wzwwVBbjcmVJvjrHJtZ2pLtJT5bV6ECc9qEgfNEfkweXZ2XgYK2flzN4rk4vOErorzrTGM3xb5KpSWc62mmW2Iu0eGIk6t1i2y38JZyeddzng0SCoDZcWOSwKdj24rTx8dOYsKjLXaFwX4o3hEO8ht/iLre8kCuhIjsOJgligzzONJcrhzcJZsXCTcGzuL1X0hAmieBhfBj9VZzIxOrQJ8IOz0znkkHPzfWlkPvfadApEKuDK2eRJCom2apAkRX82/oiP58bptUe9i2cCQuVfcBtgj48+gME4DEMuzUYyxeZGs8w2Ojni/S22a7zBZuZmPQTtBCxY5jiixUSauuEYa9zewITSCtevuev+9H/8zn9K//g3fzc9eepcWtO4KpNMGv5ESxcuBW6PeDUjb/3ZyF3tIeDZwOVuzIWNt9SdD+T0dPHM96RRYw/MIQQAee8yvAde99rwp02/EPTH3Yt/9O/xclyu/8QeKBMYk8A8lNhDohw2qsTb0cNGRlqXoSNpdkMjuDzXHTsx5BErSQL0cl1EvVgnUV8WsLVrWjiHLJq8h8w53wt2Ur6HQ9s4C45VeeGbsrA8fGa5WZaGa5D5fpnlcIMjByrAswO1PPWws11uMTs7jd+x1Fmxwk4XhGWP7hIz6cit82w8KzSWVQSywoycg7bKYkZMEpGoIFBpzGoWSMqQMc/uClSZ45D2tHA7HUZGBSGJDOePhBQ3PthwhqnLRIw3HrjHAzGtg5PvA3xIhOmKRmvYXHuo69eNzEzzTIvodU2j+Bz6hmQ66F9/pE3giQYLIJLl+HYdHIxEVz2X0zAxcrSDg4PJYaol4HI1lZnDI/dzqN9YuLOcJ6aZeIgZPicf9CIIZZDljjQBxITZycJ97d+tEo5lNIlRhymOAyf2pY9/6Zn0zDPPpr/zt388vf1ND6ZBhr7zcLbuZCaz7YyuFeSMpkJzo3HJmB0Z0cUR5cMbG/8aFcoVvriugErO2/W0ighkaTrYqvFwteKilbW4AQgBEaa6qiEj4tLyMvzgHn19W4c/P0BH8er1m2nWMqOeXH/tCKCnfwRTS1gP1so24KaoJFNLFFzEan5d0y3IxGjBOrHiSL/1HrRJ/JFvzt47fM3pr/LNs5yHfLYtREEKbkTga31aNG5MbsW5T61xhyoNnOfg8LCTyDDblLkJilLnFGfvd56jpHaro/Jo7fZL3chKJJg5iUIiorYFBmdwF0BAxPyx8TTSIziAGjIlTRvZNwoUBWhYFsRMpNZWYlhMI44GAEhhcg2iaYXDEzpV9sUEVUjdiR2wgVoiXuPOh43SPjo3YBuxR8woRqNmuEtcQDL+aCzOjNlYDQtXCF7Ob7B/KBrx9Nwk6hyaVdeqMEu9Ip82HNaOasGExma+fV5cAc44Q8QhRyILbRD78OAwysVsZgQgzc3PomsI8GBGaw3h2gImtpZI39zCDDOurp5QdknLsRVFJ5BnBm0SptW8us+DO8KtsgLj8s3rsb0jrDLrSRd4N516+9rTNCojP/9Lv53+1b//aHr+yhxcawebb5Mggl6F4/Cg2Om46BiYkXVlgsDKi+qgKXLJ2IwOjUkQbrR8E8AgWFijwTUy/GfI1sAeFPsOuhQQr7SUmLnnmwxZ1bfclXBKbWVrOvgzv35rBJXzErMBqR17gKcBuutsKt5IOTVgvGKeNcdNPXvBPUQDcHYdcNANzIQuA9zBk0VCrR8CIUEaUBBx3DdEWszm2aMr4Rq5NPJNV2k0UOYNFIxDV8E11uRaJtJ7UJmcP+/Mikm2SCG2FUxRkYBQ9bHumpGh2pnPUgar3R1Yzh6IXOWyKXk0fR470+1iwLNCciW1QFTNEJfVH//Rw+Xhn7uMyb1JuzG0hGDs4bwvs2IStjK1WA4VDcf2lWUiKv26TZ8LxadRNLUX5+uqERQi+eaII+ieH89B+3Gde/bSuATbdvKk4c1JdN7CRhw5XFDex2fZjFVOh2l3eOpkQ30jredWDFcZTjuKxKNsdNPHDl80sVjvKRdq2bnIX7B3ydjk1ES6xaqJlYqzC+6KcspJNu2lozA1cq+W60qaRCl5GtlWhBmN0s5nKY0BeguENXJiOP3ye383/dw//CfpE59/isbO8A+rIwQQnDkICYdGNQK+WWnWusv5VPHY4a/58ih6kyXPUaDWK3/BhdMJjlbGQDWD1CLHGKnNv3G5pQrNp0eph/Cz6SfLVVuJX2e+FHnYcWqFtJm9eRvQl3SjJSd4gsZMN3FHmim3yAfvNkQCQbakTbrMtGnHQiaqmMlRlD33nGP0QnmHBoJeiLr4jO8jHGnYsic86yHyxT290wLfdtM59aCcrbt9XuP1jvrZ1YAnrVrRzShOtvVgwFBiicqWaKzsMmObG433Prcx5ql+/eTJBZ9LTBJHJvr8vUM1l7CpmDyHAQFXHdgDQsLfNiEEcVaUWp8O07bIbKZDWTnXmzfHouHYoOcRks8jS4zVJYCEMjdnbWOGtFIx2copmlDj6sKq7T723N0zMAQH1h5bW64SzywANYvayMTkJGbsxwC7KbYiZFMkOK3c+AEX4g65YzXxYuON9BO2ftyndXz8Vrp5Y4yZXziXKk7fhTwUfcZrU2PpOmobr7nj3nT20q30np//xfTBzzxB3lgOJvsLNxgaeqzHdXhtZ2PHU8qpvlFXEUTjN46q56D25dxxPBPehtlyU3fj1mSY8g8gJC+3c4bl8VIgQJ9AteT6v0J+pxfpiODEWtuZXALwmqQRwQ4/WU/RYXYGP+OtSK0qv5yrSJH0V710+FqG6lUvw5f4Iu2mLdJXlw0v81A2h1G+j/ID4JyscKZ2Gc7R/UYGGM6qYqSrCybud/LPLga83OtBFmwkhiHKTrYGpDSkl/wjUeTrAEJeeC9BeS/AlMOesjSsMilgpduoJdwlPmQ0kG6hiOvQ0Wl+B4iF8LY2jvrnXhtO6d23vlNO5bP6RmbPbDrb4e60sDw2MUHPTLpJk9Y5VAvxPgMBz2mgAl496OVmlPOQ42c2lvAMYx5VE7k4QU6z8Vo8GWNS4vrYzTTBtUvoXIjvUFWQk3t0hYhAapwFnC0jHsQzZYNz6tpRH26CpIu8AtieLVfPS/gfm15Og0eOpAcfelv6m7/4S+ljn/sShjzztpOgHKw4YVKZAkvMdAt81FfUXQVIkfeqA7NxhyPTkW/iseoTCuK9APEJuLw5AFxRgKAQDj+l/PKD/FvqqdSHfnSmPZz3FIw0pDt//Ua6BpguMhx3hnYNFZQ1ZmUzgwZtkv+Q41afG06AUfU9N6SZsKKcMk3FvXmouMgcr3mrOGzTUpLjU8Pi3vde5zi8q9JtpwHoyd0hwcBCSkr9Q4OZkzbwkreIaGf/7GLAyxUTgIegvNbVEXIy687GUYakEm6+x6fE5RHPKpCjAeQZWwiC50E8QQOZC4RiYxg7Q2OeAShakLnYvmxSEta3cwggTh7kdGXiNDwBpQeBu+ebgJA24jSQIAAJRKbTndqk+XpuTsCbZfG6zsX/xenPhjeNHuEtJj7GWf40waJ/jVVOIb8LE0c0ipi0MR7+HI5plqnoB5oWw5abLGBQgNx7h4tyn/rvQYVlEe7Q97a63PTIHxlQxNAmILJypIE1yXfsO5re/Q9/KX3hmZOocmBlJTIJ97QMlxj+tTlnLXNb6q86m7+Ig5KIOHhe6sPJCy0ud7Fp+L333qFXhuzq/RmS9ffSrp4OyrVfBIgQBkwSE/Zd6eS5y+nKTQwmuIsbcrsVhrJrMVmRdUOlxwx6dHrclCF5SacdRViR2Zoi8xh0mrkz87eZg8sdXabvTLeGaQKtKztNbxwJuIrCSbtlTEHNMUHRzKTKALu7havKI9/s/N9dD3gSASISZsd6YtiZZXEAAj1acAdV5RcArK/SkHFAEFmR1d4zE2RpDtGgFSwjVL6FmoZOgtXZYDaI9sXAl00hbTyPbyDI8k1uqJk4bVDSanH27ALZBJydag9NAHro4JFR9d2MXEDyI781rNIoJXYPubIullf5PN7h1+VHytGmsOAxA/jNIi+bBeBoUsHpCSsRN6ClfMzyc/ZWzi2MjhKGHF80rJJYzhE/Z0FmiuGwjVjOtdRFAKQAAdgtM/wbRDeub6AXmehM6uhyj7OUfvW970uXWX/agAoHIj8KRn29nPbSIQkA0YxtpFFmlqfcc27oOZ9wSZRHlCd+uuBqjx3cH3E4rPxmXclrKd/4Hppz1r6PjclvMIeFoIN89FInTp5RPtBMqJ44sURCcsdGOonfmdk8O5srPIylVjS1bdr4vh7symil1GsendipV0dwuznsoG/agR0+SB9lRRUgvxsK4xBWySvN7WrAi8XlNFelav1dfbSRTho0jSLssDmjBZcBoDm+WKIBOexYFAglDtuMNY5cYw0qaMaPasUurG6ioThLH+ah+H4Bvxcn5ZzQFWtgRQAf5lk1G1cGMQHOhi9x5zW2ngEOJUlyLcqo6o6i96dys+/rG5agKrcmNxXDNRIrR+ekgzIhE+9zuT0nCjwH8ZoWDhuD34uMTmTY+gULZ/lc0bA4z1AWsBM4l5mVJmHBfTnDR46yvIf4/EYn1+aQVn+GKwAWuWHpVARZBfMTyOgsA7eSlMsLCyeEa0hYqU+DrEDY092fFqdn063xG+nK+M1017Hj6QOPfiF9/NEvUZvI8wQFzOo3UFdNzDS6OZl1aL6K+X3XhjqjrsKtnFNsQk4GNJ/fDKjziNl5hpnMSB/cm3cxEwAqbCQegsRPziE32ziB2jhL3eglrplQaW6YZwKJLQVw+/YehjuFY6WTqJHeVgJnUzXyQZoFfo4V3sWaZHWjeB5bhpJeagWaAojJM28oYp5wWNa6PFlB/vgLs/rkgZoPf0or9ev6cOlcKjA8nsa3wSHifxHxwCLnFVSAFrEK3sY63xrD71cieLwS0xyV8Wfxo+4a5BJB9WIdowVBvDIi8SVI2UYBIfAEgoJjwatgF/IwCEAXXr3kPowR0MgkGQFMrtDvZlht8eXzV+kau/GW38fHhpuD4VRdGCYEvHE4ZKl6dcEqYiSGSKSxcxgM6dbZoAROz3HwXs5EgBFUQh5kHvEbX+AvrnMwcS0oyZEJRkUG5xeuYBDwNGPkLO88wBdnzRzFs7z6w3iM229Ni3EHl8eQVeeQVYXlHsq8Ew5KMBQcLDPz4dC3myF5C9xorGABZVy+Nn3rVtqzZ0+Ee/aF07F5eqxRZqZT909/5f9M5y5fZ3iMDhuyxdiTIZCJl4S/DIDaiC0PraUsaWzUOuJZHJahgMEzAdDJJnXhRgbzxMUSdd8K8ES5EWT0Q0EAxv5iZ15KvWx6C1B1oXM4NzWb3v6aB9PonpEAmlXyu0aZqU0S6jKqzEQLhZ7w4YZGAm6uW14EOXjmIK2bnHnRReUKbHiJQxC2w40XeCDv5jny7qUyVvIeRUKd01Eou/NQ/WkJvx0omjsjbxBbo404d/CPRbZrHeRc1RjqFgwvunq74FjsAalLwY6rOKjkAK/qXGR6ueAyoWXiDhoAKPIwwIbViKBb1YO5qVupNxo2X/FJhAxxSXyFEygNJPT4aHTGWZ5tbTjbEZp+bAw6h7Cu9ND5zIbu0C2u4+nmn/rmkhtUlgUajveu1NBFOohHoBP4tP+nQrRKzqa7/ltBMw+PWwPkhvcMxdpLh8sCmUvK3KRbwBMY9au7hZEF7528EHRrvNcidUfnQBrdvy9dR7fvwtXLzGzKoTELDfAeP7Q/nYFz+dijj1G2yA41rRTlS6u0MXMdxM61ZWFXZ0WvuA6XOOTGc6PPdRJcOOELMnuqmdqx6Tk2IkI/z4ZOOpVreX07d7u6E6kakdXp7r/rThSukZeSjzVAfZV9dldZSbJix0j9y222U65uXdlsuq1H61gkrDrCuN+aiFKh5Wy+ObYOaUsaQ2anArHqMVSD5a1KShgopWxIAteAfVNbGkCkoKQmT+CUCLYmYGfe51LfmWn7LqRKyLMZMKxFAN7d35vGX1hK3VAyRm8D7HyX1xkyJIRINUeUiQagwkcMCej1bauxFA2CDMKSMAUYGvX4jCsQGNpBpA4NdJAfP/lakCjOb8vz8syzz2O4CxDUA6Tfeg/SoM6R5WOChSBSJgwEnthbAvAtgFTCjviq8H3nt559Xji18k072v+u2w2A4L1+VLcxKzY6OQNOEYbcmcCmHqDfBzACwM4am97C/flOZ96Mj3aPWbgs8+vv609aFFFONX7tVnrjG94QnMVzp59LbSgia1jV4tRg6FTFPf7f7/9A+is/+LZ0bKAHQJ6KYbLgJshRgVYnDRedPdbGktAMfoFg1JtjVIe5pMdOLXYPQ6QwyBab2k25yjrgfpRtJ5ltd6hN7fNU39u7krf6txRZqqHofo1lZRRR2kd4To7ISSK5Q7kXgCc/7SBKrwrhlPkqdORwvuaOc8S7aCAMYUkE9V6lwGf1jlvrRyCnYPPogzIIYMNfTGBQeNZF0BNnd8DTHqQimtioh0+DAbAf4t2SYFjrSm1dPRETtc9zMlHVYX30O/V61wKe5FF655DjQHBdfczyKQtphNhDRM+1DUVWIDznBg0l0TAzsbhXRciCKuKRyApoSPDLgNwUXITOWUZbaHzL8ECo5Wn+rSOa3FB8vkHEPjPsADe/4r5cC2wChuDitUeRjXnWOUyV4zQMv81xZKDx2jR7lDCNXeG9YflcJwfURgO0TAS++I5vHeJz4z9GBLJKicPYJfxMqzDM9QLxCzwOhQTmEmY0Sr+vnPJH43TC5fjx47F0Td2+vo6+NDI0kq5du8aSrHNpaHg/XKVDPNYVs6pjGsXug/v2pacxQ/XZJ59Kh37kzwUguSWlgBkAJgdqFydYAQQhb7QeQUEnL9xLwnqO1TamlnStIKvshdN8/RsfTB/8wlNRhn5n1Ti8jKWGdekv+fBcyrj+mfmVs5UO3vLQfWmAFQvuaicu1ZDZ9pH3HjqKZoyEXr45kZ458/X03Llz6db8TLrvvrvTD//w2+CwepH/zZGEXJeClwwfMa5HZYkGvciaScOCHnFbR3iPdzG05Zn+5LhXMEj63NeeSz0YcehCsVxwVFZsL4QXOjdELcyON4fhVmOTrl9ZEPLKSu16dX77F5KGRGEjlOAlHqfam+h9V9mfVk19G3aAn8MLGkImqvio/OCXryEmZUIOZePa76AQCUb1g0Uj0tFLRryZhnIC8pv82hTFPx+Fz7qX1ZMYdlWP5eLqOTnBrcjqHIrKcZVIBESBxEZoutxnwmvTK/jIjUUDJX4nLko+SqONe7gP/RqWEwOeBa/oHgjHuOaZkIiJiWo4a5nI7TkUJIIMGBWAVtnYdHK20LRNMykhd3fkyJF05srZ9Nqjr2G7x4705XNPpEZFD8xEUCtwzaSDyaV5vlvD2Kjujx7+THr7Gx9KQ9yvAljahJMfjzIlmVaHR2ySQ5qoaMLKeQtaoO7AUkCSzow8t5Oew4cOpgTgCXaBLQZQubrL8ui2Z7n+LH9NySF+jRl0DR/U3MqS63EsQj/9wrX01MmT6Q8//vH0OGor9e7v/tRPpJ/72f8uHTy8N63MTQXdNbFMLdNLUJeYHbdQbPxF+nxV7+I+v/dxcO0QazM06qjHN4Kd3wZmUm5UJcZesU+IArouL7WLy1fMz64FvI0aknyt5LU0RM/ZgkB2bmyauT4r1Aqvhi6AWFh1ZbghmNEk4ogNkcOqQIyQgjrkKmLIQCNkkEmPLUHSgPgiNovm27LOU7rzCBKD8BXc+0TVg9wsOVVOjqsAjkAb6YAa51DPiFUFAi/PdfqTk3GWV+dznwl6gmGRD8qp+W4W/TpdqD6Qb0FRmZxxFNDLIJ7D91mUD+91Tu4UHbWYcSZu42+lMQqMmQshp6aJI3+Vy1jOV32vaFyYU/dKXbtLV66lQwePYCzg7Qz/4PpmxtN59q8dGN1HfpEtWp6mmT/FBTcBycP7DqQ/fOSx9JM/+nz6SxgZWHMdL2uY11oJl6JtIk95XSnp5+MG41thmI5meCsrbixj7cNFOVIuyrA0WXX00KHI5wofrZEfGPTgmLTEvL0zZb4rNcyZR2HdmfB1+1kJ00VH0II45eL1q+mpR59Nj33uU+nh5y/Ee39c2tZCGdYA9lqtOf3a+/4DlqOvpZ/7uf8hvfa19/CtxmTnouxjLa30QxobY0af+kPjwGWF0oF5cqiq7JHi5l7GTxUsRgE8cIXHsbtOwI2zegZDF66nXWXfXKZ3YkZ6CRmfHWM76TBXybW2srmvILerAS+4Jekj4GYl9XZ3pp69wyxvupAGlPFAPKWXDOpwIoMekJqGkDhomg0SFEfMqiFsXluCSGzsEIINv51zPwSii13SaFAKoyNkGrrk4qHemcAgKOkEEwm0AAsR8z1hkIaYLQXcMhcH5eL8Tr9NpFt5ms0tWli+CODKExCEQbjOUDqY8xtVHAQzne94WsVrOnxavaMhCVbF5ac2JUspA6vh5bAyGKlTFnptvFZuV1zxZxj6jBlzysBzyNgULSC4On3qbHrgnvvZ1rEhPfrkZ1gVg4KuYEMbNZeRWjln0rkIcDU2Zu7jP37ysfSmB+5KQ+i2rc3BqSF/XcWUv52WoKdcLMCcBr9uFRhucI31rIJ3yGZJmwYk1O0bGcyqKcxHM5NKfWKaXdlbVF7J1JZzrgVyKPiYWuq7leHsLdYZK7s7tGcUbnglfebZJ9O//eBH0yk2NdLtGxllbw3N3i/AMTNch4N1WZdy5buOHU7/7sOfieNX//e/n975Yz+YDh89kFopL2fKQ5/O/CGn1GR9dB9cg3SUVigohjEBUB2WDfUb80+cvtUy3zJ1PE8Zoe4IGAr+6l9Cc3iSw+sGnOVK8U7hbNSn6X4luF0NePUVZNNpQzYxsndvuvoVSANicVashdYFhOE1g58EbmMNR6V7bc8a+nU8dliyvCSIZNBrgkPohHPQCZH5S5uCxFiFE2/zzKqN0G+jN+Z6Pa7qe1NCy6m+2JDBrT/wdf1NxGRasiKwPbQaZvpRbpXBKae3fFbi9F1+n9/4fHPY618QVk6WXJ65ysqxqFkQh07OUkDfGnaJI97x5RJyNGcKIzxia6aVL6JTN375Zjpz9jQTCEMx3A44JaLMEedUGcZ1lrwd3Teafu8TH0x/4y+/Jb39gftpqehAwtmsMmQTryNFyMgsKTsQy0bZ4ZItWqAwL9Qbr6gUfzCiijFS3ayyUGRtPt1SfT7Z7KCh7CmfNQig3FE3ijzy+YvX08c+/Uj68FNP86Q1Hd1/CO5qnuH8TBonfsvAtEZKSZ+TFWcvXE3HDx9I1y9dS3/vF/5Jet+//jfp7/zM301v/f43Y5J+mOVvyEiNzg7b1t0IyDUyaYZFlhUs2oSaVSRH2bNiD2eis5UZzTxpnVvQzDup2cETBminwQw7whqqW44CuI0W8Y0Lge93kHsV8KIy7H0BGghheBgb/XARC2sYr4TUanBy9pLw+5vrNiiBWucbG3FwZ/iXK7HxOHMYs7RwYr0dDpDbaSxLqYPOkb4Vn1Kd1JTjVu5lOB4F7GyIBRDwmOPyxPN64IhXto7bOV4pcyvyOpWJ3e/UTyIFdd+WcEuYWwGvvK9Pl8CZ/dPGAtQy2GvLTf0tneWj83uPkhaf+c7wVG1RuEA/A4exBDdzLPWx5+m5S2fS01/7GpabB2loNEo8RLpMNxyJTgA0plm4M5V1dR/41CPp++95IHWxeoHNXkkbcZFWQdJkeTbtK7AzoT9tcExYZTkb4VLtjYCAL/uZmTyIabDzYzPoEA6mGWdzzbZpCFqIKOt+TE140BNxNTNDPUc9tKR9w0fS5ORiet/7P5QmMBV2AFNbi9DXxYlplIPhUgnTVSdRxnxtDvOIghAZAl+8OkkahtIIyyEff/5Ues//+D8n501/6q+/K917z4k0zKxyG2vDW1kjPtDfTSfOhM8Aeo2Y81qZnSK/1L3cKYAHtYHxCF6wOOOstEv3PKwDcC+yRjdB3XiDhWiYArnwqNZc7cT8ynG7GvAkyXUnXfNAHaPeoeG0gKC8RldpL6g8q1GCcFemACh5Nfx72PM5pHWoSWNbpSHQhmjENCwaWDOE0sNO9qP9XenyLCsHOugto2kaVCZqzxJ5AQMJXbArroCM5wo/yqv4Zv1mu4sqXF8Zrml0osMhrel0iBfgwfsSf/HrfQFd0xirMHyJW3/uNX/K4fQvsEY6BQGe6a/+8J2AXr6PRl0BhiIGh93oQqR77jyR2tpr6ez50+n8+XPMGrI2mBIXKEv5hIyR8vfPf+28tdDRqPfYyYz7//WfPpT+1l/9L9JD+4fZBAgBP+KGALsoWr7Cv5MVkTdFAYCM5RGrX+Rn4GxaKKRlhp39bHN530MPpPNPPA7XT36jFDZ+6stw46llYqeFrUXAbmBgDzK5UYbjGDdF17CXBfj9pHeKzs5lei3Eb/qktxKeYVFkVl7kUY7ZpYLjUxpwwDjqgYPUZ3N64cqV9C9/7/c3oq67esuhzvSOH/ux9Bd+5IfSa+67KwxYzE5jfRratL8Izo6ZtTBRRc7kRJ2QWGUoLfC5TaZ4J1fryhPTIB1yesW5V2CS/+zKmLrG5V/PNqBuljTt3b8fbszuPSgNoqDnoyG6SJ5qjq/yTwas0ExXbmKT5GwzorVk0OPcClEPoxeWFrTzVsUngEg0cc5gUa4LQATXWHFzvtsUdV0qXupSIPVDw3RYKSepyztnZWD1XbGx5nVJRzlHekynf1V6IxB/ojhoJHAoqjb4IM9CcuauvuHKmYWMkMZbuFjPhWObJ22rTB7ccfxYzP5+/WtfTadeOJk6Ud0QmPS7Hv86ABCHQEW6nCBqtWEidB/uzLpijzJcXJaDpA6cGAmDrXJtDC3pp4iPZ3A06p7FUhqHsHzvsrRVOPJF9tdopLV3sb/E8YOHzHFMkNjiI38+iDLwIruSRpPofiauVtg7vC/tG92PV9SUJsaJipllPEwZD/5aGFo2CDA8K9+vn/mqBdBpJs4oYeixucmOdTFNTTL8vTmV9rPc7sTRo8g770qvufeedP/dd6V7TtyBQvbB9Llzs+kXf/3/TW/+q/9N+pe/+fvpxvVFzHsNBqBHZ0X4oTIlihHPPGbMFjh0kryTFUxWBzDWGB3YkZcJrZzjV87vqxwela1Tn0sCrTFrN8ws4LOoQMRmzcp6glXDn90c5otDRQXPgpd4EjOQXLj9oqbDl+X4eC6noGpDOz3wgT196U+ff55vemgohIkTQKroNxF5PLYRx0X8hv/yXdx8Ez/REwveROuMXDfyqFbGdzdYi5rt8200MoMVtCP9/kQCTW99WvVlg8cff7EKI2cpgFVgClc13jzEz8PW/KV4I4cFp0ccnicwrjAMdz2Kvb1FVFuefOoZhlGLcEUDiNFsfKYlk6tAkHls4iFe2igt0OEqYXHvZIKrBHSffvzx9O4femsaQva0vMi2iE5c+A3lIBDJ1Rm0dv0MsxlgJFEkEIBkqLuMPSQnXlpbO9dnap1gQgGJ+IjACHEBTgTknWUsTbRBQ73YWdQydDMzoJPYC3Sv3gZkknaPmgzTv8NLJ1IMC7gNuuEUzvfOqspTmr5c6pa715QI7+RKF2ZX0/ws+2NAo8HFMsJwRrkVsD+4b3/qYYh7c2wq/eyv/Fr66ue/lP7+z//36dC+gTQ7yZLHqC9GMMZPugW8RWct5OxIUHQGJgSVrQ5WJKlzYJ8RE01cv5Lcrga8IGzIxj+J1zqViAb37U1N/Zj2vnkZ3a4mTFozDIR4OgQ4Fk8r+G6Cc2uGEgMTJEdmrKDzaLz2w9ELIg8y4M725rSnsuqhVVs5wuaQiGel3mjAEF3p0SUkyA0npBCHDdA7WYE6p//i6jmpTc9pQnbcYfFYvSpuOmmIbRDvOJZJ4iWNzeclHrkQh2IGX1RNjMchp+1bjk/wVS4VrkqW8ZqOOGxE3LcCFgJRCwUSuny8t/HmvGA9lxUSAsRB9oAN2djcdPrqc8+EteYaSq7ztLhQt2AmNjhI02TYxhnpdiLCIZacIg/Jh2A3h9G2drYR/MCjj6SfvvjX0h5mNxsWprFNCCiQtxbULey4LBeuSBPh+kc4mkaPKFC7aEOlyJnUVbjjvXtHI7sBwM3wnERHqmIYb54XMP8lBbWjp9bd1Q3gsZE2z1XAzuuOAUL+HAnoBNuYIIDzdLgu8RUOe73TwJ+0sEpafa/LKku5CLS1qDP/QT9kxHz4VrJxsmGCDeDHmAgR9O6/967020yUXCYJv/a//kwaRg44j+7fylobYImsDhpubelmROOm4BpR5Z5OewEOeA6T+qruhISUcnam23J7JbndDXjrNVVRkkSH62Nbwz3MeM1eOQfI2RxssPxCVLLykBzEZKMFKCAoFUdtIYKGYAaNB/FFQwQdoRl2osrWYeVGlqUSvnOoFMNFvq8HqYgjJwWP2dlwgqCNl2uPl+tsZMW38jvzI6DF5IVm57nPrpy9y9dVe6p7n9MRXESVhpK2kq5IGx/aoKMBV2H5PEwNEZrX7mrWCTgcPXwY4GlMly5dTJdvXIUDzWapHOoWAAhjCpa7ZQ08ZEBgKK7sjSdyUNaHCs6qfnjdydDvzMytdPbi5fR64nAP2xU4twBzKwWnWgaDcUCLBixHE7O0pJNq9rDgVMB1dnWwnwktHl26doMtJfvSTOiqoc6hqAJA95mz4EWJe4Gy1eJLcdZCTn8uwygvnkXdW6+Vxyg/rutpooThub7q12vWdPrNukfC9Y8HhtxCOc1iKmzuyjxD3rvShz/7SProp96UfvKdP0h4sxxCgRyd66IJNfJPOXDhSGfRoX57K3LVvJLG2G6XvvUk7MAL6+9VV5VArkAsBaNntQ8ubwEiWQQYlufZBlGLIDQgh3vhoCSJwW+07uFwxRnKvJqh8kLjdFawCQLay3Id3Y1bE6mTZ3TZcS/X42E46wQERUdjqM569J2NJTeY+PRl/5RGUMJsZnmX6giGJeiV+OsbGtGtp6mkrZxLOkqaTIjfCkL1nEkAS3QUGaSLP7k61/fu3TuUDh46EGk5depkGmMJWQG7EpdnZZlhJooA6uP2XRhoIB/Wi2UvEKvvNzg0lPYMjxhlujnOUBIOBT6dxkvDhhtfYxJqBXNfS6gQLczDnTFqXmJSY2mRNaOL+bzCvXpoq1pP5uhu701/7qE3R5itWCbWNl8rlln2Mgw/DKC6g5tpcLWL21TOQTOWR0mz5+JKWZUyDz8WOq4+79tdl3rceiZTUQ9bn/MYAMsA6O+tMFXWnf7gA5+kg2EDoeZuTH5Bf5aJQ3mwLRTPq/p0Pa1qWjW0DRzS5kRW7SDfvWJ+N2rgFZPk72xCJQ5Z9mEUkFd62tnJDAJE2NIIFThs4M7W7W80LmnUPRwEjbLRSv1kQzsNo4tO/jDqFT/97nel+zAF1MDsWg/P7ZILcdoAvI4GTqPxrPOZYetKg/FdaUTFn+dyhOdtfoguJgPa4EIEBsN1A23DMp6trjwz3PW0AT66ApLlXX36fe/zKAfi8Z3DVkFuEiBoYZbx0OH97Gfbm65i9eTprzOxAGfRjnVhgcv0+H0554LKYZaycCtF35chd5RTFYcd0BQdkHV1cPQu9PjUE4bU2ftibQWRwhL6cKucOVbXasgI2QRbkFtmKLusAVF0FVdRWAYABDvlWctMPjihdf+995k9LEp3pwPIxvait9nNtekSsDVg6kyz6SnL/sy/zjzpBB/Lo+TFZ1v9FL++0xleOXy33bH1ff13qjJZwyZhiQ74EOpXH3/yyXTm4k06AnbiA9gXoXP6QfJvfSnPo+CoD+WtLpFshlZaUHXR0Q1EG4ibV9DPq0Pa21TWIDbQ2lhbO33+bOpjBrKmoBq5m7KoqG6IIOR+EK+23Zrg2CT0PMuWZ0Ql4lWGVw3Ie7ow390JsSjPcbrfjWe0PqwfCV9itQGHkwO0bVQYVBqD70pDKATvdy/HGZxDRMFOk0zGNQMw9LHpcy/c59jYeHBRPjfMEn592OW56TFa7+vjL9eGUQ6fWS7ODvvs4IF9Ydxzge0JT558BlnbAkCSLaqEEQfKVxmmzjTkuCwbG3kuH8MsZRLX+uWZDdOlW/p1De/MDFZiEEnYWOfhXNzdbJWGTUD4BVAZRhuVE0v8hizO/W0jHqKKVQvUbzMmkZrgimEG05AbI+Fake0tLM+lafbwWGCDIdNj/uTwsttcNtZxyU8Wi+TyqzzHqeTJm63l731x9f5eXu1vxGUZL6GA3NKSOTX309B0e8xeA4QCPEkNQFb8YLqXyNsC9D0EsLdAO5ZVJk7PFc2WxO3wc6mdHZ7M72LypCuIvINGOLh/NF04exaCZ8WAvXZ7GVJmYs5ESEOikSnnCICi0eWLzJEtQA/LnbV08cpY+kfv+73ISDfrdcfQg+tm6OWQbAVijpm9+FYvAA6Np3ShNiTjsnF7RGPQ17r/CPalf/heMC7yJUKK72dYmVBDmbQNYbQcmGEaXwk7D9Ez8NjQPEoajLD+vjwvjT7AnbJUVqe5+GPHj0VZnTt3Jt1gPahGAroqeZ1h5SEwcZt30mFJGpZcnw0vq9gYp1yv4oQMDKXJ+V6wc1e2Vvb9ba91BqeyyHB2Ae6lJpjSoDOg5ckNmnjIqwws1GlcpmZaiN+42zDUOcNm4iefP5k+8/Sfpo889tk0SJqvXruI7A5lcXTWGl3dgOxQZ90EuBmKAeEsl3L4jlKMdMYz8hIZyV7DX3W56aTf4jZdl4ecgy4slG3cxjfGZwqyEHMBul0yTdSrS8lC507gI13GaEflCpR5zHb3sg1Ca9hNQyUmotlI0zZR3uaR32yfxtt88Gf6+FXA21Kc8BGyQnBfCKEZfp6DM2sOBVRMHKH35BDIjWIQ74lLcHZcIAuCj4GIuWTmNsv5PKMvFeTdmp48cy1iOsgQ6No02wnCrSwAMA77bFhaFMkNG0KkN9WEkJMhRBWNP4AloqwaDxRXQDACvs1PEHrV4AxqEeB2yCfAaurJZUwObzUt5TPj8dCZtuIMB7yoCH2D87JZxIQC6SlDeQHTsLR952D80NHDYfhzhj1nz527wIbk83B1nRGWM6tyWjrjaLBgSajt23tnL+O91xSNebYxljgFphaMN5RZdkFvCZbOmVSPC+MYRYCra3bdp/nCv1atncBo4CPt+a2Q/xjy8a2zml3cD1Afs8zqPvn819IHH304/fqH/ijS6E9fN9sBAAqtmjn3W/48l4R7HUNtzuaBICM/Kn1LM0QWSZGOyAngaqi+sjOxxAwp12/2LxgLzPimbElm5SNi9CY7Aorw+DanhXP4za+jDuHIGqFXWLl4iBQXemciK9RwNMHvOlrLiMfk0cSvLLnSgiH9AJNJhLcKzWucIK+4qBKfo1j/tZ62deTDwlglH/C88afpefOpGk1ceOL7oAezIHe/HtjGdfZOnquXkTY/5cjd1vpH6xevAt56UdRfUKgU+kD/EHKLzjSPbbZYcA4BrDQuo2qBPTcqJBc4xE4Ry6lpT426gbWzsuTwUF1yKDzLGsir4xHBPLIg50ldlG4FZcscGqTMNuKUb8VsL4DRBNeglRArPuRCQf05nT77Zpz+nYkM81GEHWBJeOZjipUJAp4TGIXLq2IJ4HIGUs6pynC8Ck18wvTsjKhDGycLBD25GMHcMAcxye7uZVeuXE7nmC1tJw5lYTZuiZpiqMDBW8qFdsgpcmqDc6bbPXZbGlpTB5yokxcCXmxGRBEIEBpwUCUkZs1Jk3ldZOXCIkO31aXLqGUgY9WiDWXJSzoSVDCWUDcJP5QF1kgEHy3Y9IWBgeX0+Kmvpz/61EfTr328AjqGc0dYxzvPEHyGvMX2mKTNPGc6MGjBraoXTlqE9i64J8oolxP+pBGc+d0MDOVFDisALgqDcP2esF1Noov6kMCq6OIh16XsynNiyK9Mly9xYo7lrpvDOAFSlpiAEcg0UuDZGo2VQ3SQMMxh+LO7mngTVAkh/kNdhrt6l2OJ1/WPq2tpn46F7016dKmkzbKxQy0qN+VD61rQ1UX+q+/inhBK/sxb9hVeb/vzKuBtWzRUAEU5gBHErj7UD7B0q9019+ZMrbyRi7N4qVlpTtpRiTUqpwrPyonOzNrXBBHcnk7jn0s0UOnP71zxoF+BSM7IIWcrnJfAIZELQDYqgSnCr6ipot0I8xv/5I8cestNCki6GCqTCU1Lzcyw7ypgZPxyZwKsayrL8Darhdi+CvFtjrW+8UZYhDMMN+vetadeOE04lCfqPi48N7+YHImwHZqqWlKGhCsqfvFas+7lmWE3831NwCK9zjArj/S5nE8AG0hpmgVaG495nZhh4oKZxYvjV9P7P/1hLNc00YmhctQ3mvb2HYidt9qwhOIQ2K0s2+H4bl0+lz706KfSL/y7fxMZPHD4kNWX5mcW2Sh8gkIjHaStAFWAmeVpWohXs/rBjfk1+VDwbxlaf8oBdZn7y+UfD9Z/6ASDKvKDnL8Mdl4bjvHpLENljMV5r5/iz7gtZumzvItOmvTnIXXm3sfpzBdUOQGF5W7n2X/FUUDI7zBjtbxMp8E68CZmqLu72VktR07wyPf4xnaiM97iiLZSES9PNs7qQOaWQNrMLe1C8G2ALhKy0KlJVqFAfzIQTqipbqTu6ks60m3bCE5wIxnbfvIq4G1TLIKS1NKFdn4v6g3jVy8ib0OBFqXjPOSQ46GWLGg4DCchJKrNBwFT+JrpsTKKxZTgaGJsRhT+8Z2A5hENlsYn0Ag8xlGAz2QKVu4ytp0LYueFxGaYxfk8GpjPquc2SodGGu9UDiUXKZELhMbh4XcSns/ytQQV7TruSxwRJPmM+PlmZmY2CPXOO++MPXFPvnAmDTEbK5dnfsynXFszHJt23gxTKzW+t5HJwdgw3c/CVSCz7H+rzG0ZmecSi97dP8N8LMfkD42O8lhg6CoImt4CCNL9AvXSw0TRGeRtf/AnHylFEucff8N/lt7w+jeme+6+k8X1w1Fun3/iqfRv3/tb6eHLZ9MhlmQ1I58bn8IY7BzgSntskgZoiB66mNSwV6MDNF6Bjk84kymc+WhBObsAlRxbACRpLrRS0hsfQHfqelp7ci5BY2aEB5avzrPPPW/6Nt5Kb9IkaQKM8GlRhV/9e228igl4GW6SjYQ0eQYVxo58Wnt28sellKEzCf0uQZPqkbplpTmLtNh5RgiCnk2h4kBNuWkzDbjwW3cOcQL3zbxvUOeRzm4NTvvM8y+kP/0ys8ZnzqDwPJs6kZP2s/JmoJ/1xgMj3HeHHLgTPcDg7qt6aG9H/ox4xA61lO96uZmALe5VwNtSIN4GvVLpHTT8/qE96Rw9/wCN0/WOVG1VudKhlSrxZlAQKAStqHAqMxwE2E5jdiWBTmlfM2E7rJH4bKSeBTgPhcQSsnI2w5PLcRgXGwNV3IIg5DeFmCJgf4KoJb+tDr88sqHKGQkOi4CBwwfjMD7jMUw5Tf353GGbOnO+9zAMooh4S/yebejMBkRDdOZ3ZORofD/OAvkeJn/8qHCVlo8WP5phm9oQgNuLO+OZnQrDlCqctBMeGjadDn02rSjPw4nmTYEysJlPDxoY9ZPTsZF3y4aSo9yQ5dFM7zl+Z1pDCfj/Z+/NYzzLrsO8W/vWXdVdvS/T092zbxzuizjSiBRJa7EjGaEDA0EQBLCjOED8n4EkQAD9FySIYSSxEUW0LFuBaEs0aUHUSPKQIjnchhwus+/d0/ve1dW171X5vnPf+dXrmh4uQQIYyNzuX7337nrOueeee+65Wz9a7HUE4Jd+8FT8LPfvffY/Zli6UT73xS/5We69665yHUE7zYTOODbbYbXAHrRH6ttyghbSmn8uVFZjivL1IVw6CYlHLCVc1l/QyQKCiL7oFEyNI5Gdkz7maTltJ07+zDMadRPYFsLIQsLUJMlDE0zDK+aVdsaAmTx0l69NYJ+DLzkYwxvgnJE1SFjtZNapL6/lPLZ/G1dksqcZDXrRLXLMss9TR8NofuM7udTH5SqJCGCTS4dOATdlWaL7hdWYnUBCtS8z16+Xr33tq+XJv/qrMjU5wyQR2qR8CtwKXHfXeMKM2xddXWAbiREPcdz1sZMVEkeOHS0PP/KecviOw9EpBQ8Bf5tGFB3uXYGXlGg9rSAZz358G8OwdYZF3pA1qHIFIaOPbBgmeJcGF9oJHwoRtRDzsOJiKAPjHT96nNMT91DB19gMP8rpGDQOudMsycuhawo4+VzB4LHbHsZoBdvjecrvogLDQhuXvX3DTuFrfrc64pNGX7U5cZOhdjJcV7B6f4RCRGfaFMKW68+4/qpwr4xsXMs2ftUkqrBUa9Sd9R4GGoabzU1rPrposECysDBNOrSIdWxi82iT4OXQWiHi7oR5Zkb9iYq2pGqsFw8y0RN8JIOf3QjJdOavk+nd2dePJqJu4DAAAEAASURBVOli2gWXW6DFLLG2pHf7gXJ0lEXJ5HPl+nT55//2i5HmKMc2bfThx55TDek7SOtQy6Ogbs7eDDzMX7xtiCGYPGoeE0WYG4BdP13AFWBufjdBAJwxhHsTdlNtpq/pjJnOsv0pvLKOHUb7nfVnePCdJ57wT57Sz/gpCBTRdaTQV06cOFVuMFQ/xHC1rx/TBpNY2kzJlB92ZOLqPzl5oXz9K0+UN197o5x88ZVy+cLZMk19HTl6X3mEqyYffOCBcvDQIRZfj5cRbLR9IxwyEDN7CX2lySCdaEFYLk4tlnOnzpQv/9mXy7e/+72yw/WMnCYjOQIH0K+8XSdpFMCLwDM7q8mi0s1lsSffPFG+992ny1f3frX80i+jtX/kI+XQ4UPkIZHtgGp+CQUdm17vujYFJEjtXXrKGY7d+Yu/fKLsXLhZ9vYw/OOW5H6YaBCm96BFtTU3f1shUtKGu0xPaSOXEZdpKIvLXWWqf1/5N099v3zhK1/l8Me9ZXZ6obDeNSo1et9GeAhHv8Z5ejTzMh+1vh0sZXF/pnakWhblUqlqf1mB0RgAwvwExqqNZkM8bNHMLo5h0qIHpcUNsmLenSPXrl4rs9jvOvmIBAxlWhuLgsr8/F5Fi4t8LbEpVP+4OJw8hVUm9d5ZBfiiEwnyHQ0uhbSNUZg89dnDKA0zD53D2hU6lqr91jrYpA1RKSNwMz3pYhgFbHZMISoiY/6QnTO7njngVjN3c9iBDDJE9hDQLvcAu5yEYRAZhvxRG1O7pQbJiw6BRu8F5c4cLkVHw55fYBOv1MLFF5WFrCgQeHQhsHwVhgaRmAEGR2olApqo8fX2PzWft/tbxGaYdMx6Ma5hScfNtNIdgSGvNiMF1xzWE6UHOSV5kKtDh8ovvOfR8oEHH+R4/ENx0vIil6GvczT+zMwEx3OdKC9dOFe++eKPyoWFmrOnO965d1/pp+NeZRH9q5dPF/e0vPcXHi/33Hdfue+B+8udd90ZGte+vXvLGB3rsBNV0OvUyTfLK88/X15+/qXy42d+zML+jbLzwL7o/D25BgJW2gGzcPsh2trnxKWDI56K9OAmwuwkJ29OljuP3lk+82u/Vj780Y+UXQyJdZoeZDHr+12BFyS59Y/EsTHaaK6yFeyJJ/59GZi+WPb3LnC8NVoSzKbAc+a2T02CeqEuICoNhF5vhWFgCD0azdIyyyLQMK7OcB/BE0+Vp156hW1PnAgyxa1TA7WhWIkybDRiGqAzuAoaJxH08xJrbVV72MvpibTxDfMokGR80yvQdL77s4FHvgovWtpO7lbdtWtXpDFsnl52AgPxCoyisKt7gOusaC9lkkUwiAIsuBA/2CbsOxZlHuH46GZWD8sWoSRqODbgQFigGwYOxhUX4Y0f8WRgbzFLLcVG6VIWh1UxMQGOIVRIG0IVAWK+Op8hDANWy6j5G2ZDUcAuLnG8Psf27+Gkmotn3iq7EPiDLLj15JNBZt+FI/M3r6rZ0uhw+ie8Nphl165ZhmHE9bIi60E6Lq7MU98Y952AQfOLe0GIqQaiUM5j8U1fKVTNA1HQz/hHWNpO2NsCrx3mezt+8AHJY6kTGpaCAsoztOSOWQ4LfYmlN0BaHn/Pg+UT7/9oufvAHWXy+kT53nM/Lt/80Q/KOeLvP3AgbLEun5JXHCW4bGoQU498KmEW2Uo3g81z4vTFMrp8oxy6+1g58sBD5djdd5cHH3k4aPbNr3yrnDnFCS0jXEO5dycz5JhN6FC061ZOq+1gKz6V8hUvSSEdFXb1hBzaIPRwomOBNZ9TCOyHHn2kfOZvfKZ86MMfih0964yoYuQFMSoHvb2E/9/6BEUQMNqGvBjmya98raxfOVn2IfA40p+ekTtX6S3CHodAsalr1LbhesrEGkIkFt2iNSxwvd7qRn/5wRuXyj/6gy+UHezecAtTL7Nh6yyVsOdKxpVJ/TnUdYhko1Xr0W4RDRztZJRGu8RdBzPTMyEU1fIUtO53DC2N2gzBC1PKnF7y7PIQf2oxoXkhVKbmp7GlYadrGn0ISGpcYZ4nmyhQdSHcgEWNR3gCRspTKAhXj2qc2kzjqpDkA2M+em4IWfMyvrPSMjZSI2KbXkFjmHEUqq6Nkyb+9LcxKVBDqBJ/mfj94DaEtqqQXcG+p9YSNjNyVRgI4wL7Ag/s3cUBBQPlzddf4prHvex/H2FZEbteMILbqYSxO2hWBaj2WDU5hVfiJ6D13os6WaDZIuoK/zVwXAQeh9/OELvEx5lpqYFxg/yxv4JHTIRZt/zsOmqT5fEzOstL126ybf8Mz2eGBayWDe10zngP9iHwOcF5Nx3hIHxw7erFcoaLhHTvuefeEBpnrl7mEI3dcbqO1WV6c5C+1pUCz9GC73ZWCj5pGkt2rEc7VgTQLLs5plmWtW3XaLnr3nvg4dHoBDxfEktDdKLSmwqvZVBOwi48HX7iPXHR37lFf0FsHsInLPLYxOSNEMC//IlfLr/xG79RHkHgCt+7Njwp9xOcPYcG2VXtdGhCNMNoxOtIuBhSwjz6OmBRs5AZNlirp52hNla0Fsznz54+G6X0IRjmGDop6OxVndHLCs0G5tHotSetw1kFjsb9FI5uDxvYndcqwlgKhTDcV0Ss9GhoNESPmvewySsw7zwN0lINc6JAGRXX8zV+MkwylHho79Nu6J2yrp9z+UIuBzEPf8Zz6JZn0SmkLJOsQgswT2eAbSk2l9UGBntn8a15KLTrcFXbkrOEOsOExzx5Y5iJ+CRsD2fkuR3OMGdxFyjP29eWmEVPIakglw7aPp1QcTfBAnD0sM3PU6wHEf42AMtIm6Xv0ahZdWvefpuf7y5JivuEKX8du13gTXgsZ0GIbhvcHjCr2Ts0nmfCZXpqAtqxrEieIA+19NCkaaWOCHSWp7OMn8dlXb1TmnZ+tQzLUdja16ChQi9kdcCl5jkDvGpx6p5eETmA+eQIByJ4+8kcuPdih44cgDPykCbkY/ywCfPuUF+aRZvBfCCNBjgaf5gL1feSlzAtQYMr2LHpzRF6tC00fGe/rd84fp/0bdjFL2nkuy6/Q0hKP/LNunOEoLPetzGMfuobjKqeeqr85m/+ZvnUpz71rsAL6mz5Y4VauTp79thHSW/EyK36W9n8ZGBUHugNQ9ND4RWVFZVOhappdaFNnLs8VT7/9e/H5usVGxO5eDuUxnZ3Y3TRMO0ZrWgrUwayEfot0+g3R8Pu9ngjtDx7UDU2Nb+YaaUc4XSJidqJQmwBhnZCYpG7HDzjzaUfDh/dJqeTT+LJHxu1zvIUQi4Nscd2VkxtRc1JF8tXEIA64dMFrjwHQluCWYNG4B0dATOlzP4lLZ19VTszH1pLlJv5hFCD2evq/ZpvFMCfgAthtxPt1lm5uMgafzUqF/fa0MRblzS0UQ+BwzYOO7127XKELTLrCKE4vbgn7IueW5eCK3EXDv2isyJVNiSbeRjLZQ5c7ZzUSkCFOlErV7NwiDfE6chjlLuPm8mmmLjxt8CQV01PuriXdZkZ5xAd8gz/fprLRp7xhPfncbW+4TeSVa1WTXmlXL8xwXFo24IHb2C+sWPbu2s3dbNRbk7NBF9ps3Y9nLSR1l3yKu9yTR2NwHN8yZ/uwFABcNZbBWChEYKOPkIzJszOMeBnB0wXdeK7oxlNHNI+6yTx24r7Lf6kq3lXQZm8ZseqG2Pvs3X1r/7lvyp/8cRfvCvwknhvf8pQ2ucgpEIHLWKdXxwyGcKMCoUR6PdjgkP1Pu+HUGB57r9p3Yz9yolzkf24xvxZekv8l9ESvIoP6XbLkM7KtgFYTsxOUqGhpgsDckcBEUNTzmILWxHh9r2YCQFXAVqHoDKn65UUcg7NzcN2hY4RzKXYTcOfDBV2rxBS5ENvno0+F0QrQLRpdqEO1NOhq8AyrQy1QOMRXx0g8ePdF7RVn2oDxo1Gw7tCNXp08tSFVkoahznqy8b1x2ssodkxzGU0+/dHvFmGjdoefapJsQLPaB0nHGqK7t9Vi5uZnabTYraWWDOLrBPkIEvTqznb0UQ5pBa2aHykN8x3f9JcWqpJhx/h0lwaSn3Xk1VQgZ34lm/8bo6OGmBZ0040nBnu/Z0WXgSfJo8+Op646JoypZ/5xp5svv+/dlmCMM6wbnKBQ1cHBzERcM2oax097BSA5BAYDu3Yzo36so7sCBX80kc8pZ07VOKe5XgitGLUAr8Qzh/aAG2HXzUFwJ/m3dBJ2128+82/EKgU20c5P9UJoHl5IETjYpSFn7Q0X/lX+h48dLDWY0Z897lJgdp4sglBTLU8ejiHQmptVrKNMuxnVL69mU0gmirhTuV7jLcVPs0K/RdOIvCY7CBa9PBWj8ZsD5y0UvLn0K8b5qoanxVeJxNsiDpZUKaRE7NC9VNrgKVCOAQDxjoseYHmyDWT0TiFM+JZevPjEaf+KnNs7BqywbUXxndIPY3x18auUHChr4uF83BNV+XbK1tGaAykt+woU/qo/SLAXAvmP2nhLwQbT3d6Jd7iF41DyCS7+TThDqmHEVoKO2fOp1gbZ/xpdr841LZMJGekqcsVpA0IQQ61O+tIm2eaCBwuLzLMHOZAB+1uNmDLdjF2hQEBBOyxA4ZydPpLRbVoYQ4nfPg78+gQ3g4iNHr83InjgvMVztkzH4fX3r7mbwk6zi7OcEzWzViYjS2dDrAKXe2/0alQgOVRQhTVlBjvUcnxZrjOyrs1Rnj/pD8krcNzOl0O9XSx8xKzsnYKHoLh7L0cFbOa5o1aqMlALdoOxEuE1tlzK53s3KvAsxNrOnk7TpKpsWW9mpfvsRRL/8gfPjCiPKRf0NZ3+JbyqpPHEpn6kp+OBgQvXfKTi5vN3+Paop1QhrZr+bCObzLFu8+ggDYNnWuxJKI9HlMAzMjSa294vJPaDswP40hYjfxd6/P42wBYsw7zDK2zLKN/tJyFsb/24uvl+MGDZZLjirxCcNXejrycBAi+piyLjNk8yqu7Bqr24bBV5wyTe0u9s0CY3M+rADOhojbUPwCK/Y9UuLzgntw6xABKe11nVoDYYQ0hhKNZ0Dh7ZHCWavR1czACLXBwpDZABUKvK+GJ5xCni9GstkQvzcE3ek4CAz7/JMPVd76hSzCymiEAVWEskwPLZrJOWAgv8oOa0ZjUIjxrzoM1tYVNw7QKO7eu2TkoZELYiazlK2OpA7VQsMHOt7PMx86P/rIdbcsZxGVO/ZhC4xvmRjR3Usyg3QyxNMO7WW0QHgEmaCGmg4ZWss0fJw2kXeDCt3xAQ3UiRy0i1uYRNyec7JxW2DstnDZ20w0wxB/YNs61jzs5bmlvaJ/TTEDFySsDzMCvsO+XcmysmlBi6Q0g9DJcFKr41V4h3oGIZ0DH82dwkQWpXKQYgm4V88gQJgmuJp1f5ckBASw0toLUwv1n7wSavAEfGrL2sQEEpbPUoQBA7zhQw3aiQuA3uCpI8za7uBQcfzsJ6RDhfK9GPPiJAjoHQuDXTYcRo4QGJdN0fviJBh5vw9w4CkywCy0/vikzeIXY7wo8CfcTXLATBLRdR4PEI3imBkRKmUIRYMOwxzNyN7a9NZjb48UZlIUBdQ5hMsvmc/N5e1VtAlG1hSpQ7Jn89qf2pcAKoUYDs1z9AS8q3so1nPoNwWA5IZwRWtF7ZsSIHSxDfBGi0bouja9tXjqzfaBcvHCh5hu417gKG38uLrZchx829MAnypYHoYQAAFvoR4KE6/hbHN9BywjZhFW/zM93hZ2GZw8GuIl9SU1TTYOgGDKGEI5yKQvPwJ4/c7ML5V5mA8eZgXzttVfKVdZS7mH7WD9auuYETyLWduX2NSd0ZufX4qKdWDQdgqUCJizprC/pnTZHyxKOEEzQRHiljQ08cevgTNzMSz/tvZ46vYOJF4/HUvObmrrJcJdLhuhV1DadZAEpBERgRQ4+dVFyfe34NZ+thzBY1k9zCiyvkNy5gzVr7ILwkiE72UUEW/SPZFA1Z3CDduKooHOtpZ2fdmLLss6lTeLss/MjTG0svhu4Mkz4xBEOJbzCbFjtIGrnnrhkGp9J4zZ+7fCgGuXqhNn81ObfFXhtir3De1W1YXcqC9kQgk0tKQzlML3DgxjeUBG6mGVkwzNrMsvrZxV4XBANU6kJdCPwutDUYhh4C/NGtPgTFUyYjGBl+Qs7EkLUs+t6MYzLqDobPR8Bm++1QcowdZhVe8mGQYintBFM4beHp4UR190I5sXe09HtYVSfmLhOT74tyrYcaWDeafeSgRRAwpYMmIxpWDjKqz19ZfZg0gBXLYCXxumvQMgZYDfnK+zM110gTpw40aE9xjJ1URbpxLNe9g0cNBo1PxviDha73rw5gWB2rd82NL1qYuhGc/FMN2d3JziheA82NvdCz2Fj48hlJmqqdmv+4hYwU551DRad76qp1Mak4G878a+n39QGnHno70/NVyXNmV9HBwMIj+3DI5y7N8sPOy/5TaOFLjAUzzVvFI1raBYquvXvd+U5Q9tO2v00J1zCI+09IXp8517o1Yuwg97UwQojFevdnJIe5isfqGU7cZbfWZbf0i3wNK0/vpMP2v6dNLcReKYzbrrIp8lPvw52+LVdJ55xmvjJo+L5rsBrU6t57zRFGAKqB+GscAWQwsy9gDbOZSuWhmhPjIkbClebhDOhywyRJrkt6kevnY5c3Wa1jmCpJ214KQqNpOnRIu+mcqykYC4EmqyWlW6lqenY89ro80QVmT6WATgbCmz2YsZVMGlsdhgbdhbw8GpGcbPivWLSYYQwa2db5jrC40cPErrO6SYnsNXUG7fMM5lUW43MruBJZhIWy/I7nWnUAJ2oiDLMlfe2y9gh6IQH+EbR5oZoRKa3jJicIG81DvM3D8PSRYcQgr/i4nDKgxceevjuSP/DH/6gfPCDH+SAgAfKCy/8gAWoe5idZbabenRZzrWJq2yDGqHc0bLA/bO9rI/05BbLUnNL3IVRQaANMesjJoEAxLCkReKdcTK93/kTdknVIldohQOckKNQHxpgBwx5jo2MxV5eDx/1zMIlbMLWdWhDwE8O5KFmC7+YKa5dB9Xn9n+Nl3T0Kb/OMfmzfWS52SWzEPXnse+ytXH8p/hJnOQDRx/SwfrP+jVvcfU76ZJw6Z/l+q6LOCHAN+HPdJmHadLvJ+UVGZpn5gssGT9s5sD0rsBLKr3tmWyU2hONDQbz3lmFnYsgNFbToiEqlUcFugvCVey0dHo0FnMyTDl77RoLXndyhppH7dBzOqyCwbrQ1pbW68b8rPwEwW8rKhhNZuOny4XFboj3V6tWZlCjQJgiGBR4CiHfFToAFo1SzccZUIVo+DMBI8/RtmjIPeWB+47HnRKnTp20qGh8Csw2owmXTCijp2BVgFuWDUA4FQA5MaG9UZpli0w8ZEjD1IxcU+jdsxrDzTsEHfdCzLFg1YkGcYEUAYflJ60sJ+hDXlJnEW1IO+XxY0dpgKvl0qWLcf+CBxAcPnyUuzOu8TsXq+5dEmI19TEzeeHihTJ0nMXZXPa9iI1VcMVHHKSTMIU2LRpowzph6ODSalQZZjrhS3ilYa2LmtaFv3YGodGSSJHl5Ae1XgZYxuTdyH08h4fYx00818hNzk3GjLQ7PFacEAuaRGKJA3BS4f+Zs4x+ru2cmLgRuGszdd2mtPcWs2qmgQ4yDM744qSgkw/ETSGtbVa6ZHibd0xnWPptpZ98EqOeVpx23Hz3mXllHvmMgOZPaKbEzfgZ9q7AS0q8w1M2kjG1m8UF2wxtZGQvOJbHYqiDwKnLLpoe3ybIUOXy9RuRq3ebTnuhM3UVvSJa1yB3hGosX1jC8IuG2K4Y321wMk5WZn0q/Gw0cruCCg1KOFCewu7T9LQyYBybg5bmEFgj8x40J+1CkzMcFMDTjNw+d/3yZPnVX/2brL8aKE9/+xvcqnatnmOHbUY8hcVnOt+Fy0kUjfIu9Bwhb/1TECowtO2EsxxfeMbwmy/L9+itPRy9JazmZ/y6zARNCz+PnA+agKc4S7t00iLpYqDasjTezYGtXgZ0gYtpHBIjfsurr71ejtxxV3n00feXJ588TeNFiCvoKVOtbYX4p06fKsePHw8Bucwl1MJk2daLOPpzQXEVAFXQthu1sASsAJiCWFirNlZpaHimCYKIFPmrSSZ9XXYUi7jpDN1LXZHuwq66vYyujrFXlEuCmJ12Kc4iy0dWEPLRoVBW5gG1LBrXIlj1uO3fpGOYLKgXLyHa7IBccykdnNyqGq8dpjUqnuIjnyr0Vqk/v4Uj60ecky4/7T2UCbXVhpYZ32fbTyT0s6x0HbqmB09DN2myGfCuwNukxa1vEDUcTBl3dTLxsMLJHv3OXlHhqsjacarWhWCKxoEg6HZPJbsp4JUzF1lRjnN21U3x2mt6OFHXbVDzi9zehb3IQy1DmLq4lzJjobNlU6FqG/KvkKjFWYnus63iB60BWMIhAPvIt80EKyzUjX28GyweBc7t27cxXMFIzpDJeyyWGb6toNl94tO/wokww+UF9k1eVgNis/cKkyujo+OcojEZzGbjk9E92aQyYu3FzdfveSYBvF9W5td+JhxqfK7zwlDFz9R2Cryihe1gCLljBzsgQM7hmvY0j6FSkxpw3SA41nKy0dpwqqDP8wUV+mqIi6TbzkSLZ9otYR89+cZr5e67Hin79hxku9QFTuWYL5cvXSkPPPBgee+jHyvPPf90GWMyY6PRXNRQNcKfvXCG+3GPxXa7OfAZpM4G+lisjRnCSQavbXW4u+HiboS9M4q62hjrU+FlfYm7QjN4giU+iUv40aBdNhEUQYOyTv0KIUvFqumh+0VaBabO+vYSqKGde8vq9vGA9+bNm7EYfXmdo7M4ONOlNmQDTyqOZBphqZwSmbzDH+GXuKbpZlnCFPurRzjSy05rdoZZW3aRyKu6GteX+Iw/LqUZYNTicNy1jeJCRIC+vaAyj0qzWztSy7edCYtYx+wuefiUAlG2/oa3fgJRw/T3qzrj5AlG6efzXYHXpkbrPciOxJGYCiT+8F5X81uf+l+9dp1TfOl91Z4YYnb30BMyHNlgpT1tuLxx+lzk6HE71oWVWpnS9AzfwgbCuV7Yb0Kjg9ljGMlQWQERiczBCuZR7WG1VuNvfTWCsRBslYmyYYUAVNjA/Cusm5q8MRUzlVPTs1zIsrMcPXo4yn7xpWfLG6+8UMYP7g9NcQ2jtbOjnnRxGhyGhrYDn2fjafjPMhzyOZRmQa7Da2A0jcMc41Wbl0Noe33jcMoMAmTHGGenmRe2yHmM9CnozKsKEXGp+CSTh0aLb8XH1lYFpY3yjsMHo+O5dp1TX9B+dM4gHjhwiCU2y2UOjeXq5Wsc6DmLkK03jqlpVloiWlCr3HExg+br8PbooWOUg9aIMHWpSg+0M65miKrV1gkJYZEP4oh78nByQboHjMAg/mpBkQ/+2TkIX2oeapnpn7P7rttT0MW+YArIobHt3pn0Xva99jMhNiiPoVXNLTH8Z792N/eFrNKROlwPGRGwWdpPdtI4qE39AWaDOzO18CTLpMFPMwKdclipN4VY5EoZsW4P/na92zJLttzlE/hBQ3mi7ZI26ee3gsn4whGwNEIuhBomBJ82m3Thj18+099nxG083un9XYHXplgSy2dwc9KaISZE98Ieh0RqbIi2mHnyuUzYGpVG9dM4NHz3lpsIjR+9cco9VzGUbFdAU0xUkIJgbY1TWGi8Cg+1xmUOFnAYZQPKxkFkBCrMBwNWJ4NkTlUYWEY2IIWE6eOKQRqfzsZHu0QDuqeMoBV5fNMPf/QDzqzrL3vvOILhGrsZZawhKGamJrlz9WC56/hdZdf4Xo6luoEN7EIZY3glLJE38Mq0zkjKrOavsKt+hjmjR3QEwjb2Zo4MuxDY1e9oJcwAmsYGrQvcCYubw/jOxiE+humklbZIwzzLrw5bC/amKyE8PQ2XM0yCBg7pd7DD4crlQTRzDrq8fAHtmdNT9uxj6QXaNUI3do3QsQiDM9ITCM2daFB72Fo1PTUbw0bpOIBWrLYtvOKtEw/h0M+60jabk0P6VS2vwp04Zv2Y3jiJo/41rA6lNVWYRj+dC3ytatM0fUEMIw3vRUMdwtY3TKekeWQSu7HDeu9QdiShy3zi4yf+qQLNDf+7xreFWUFTScyQxyRbhUe4Y7gOLyrXXByuZi/MWf8waoJa4abcFGyCkHwqbIFXA1eu29M/f0QAecr2f8vf97ar31Kqps0wy0r3rsBLSrSeQUaJCZdr6I9Fv2zl2qAH41yoGG448NjhcUs0gEUqus/V8hDa2TRP2r3GPsQZ7Czj+/aUVQRJGnSzcrdWlr21thBtbk7327hlHisv7VkOkWTkzUqvDGCe+ikYtDNlGTYcT20JQQeMQyy2PcTVkzbu8xfOlZPnT5edDHPFt8dJD+7rWEEI9vPuHtXrTLh86AMfgZFLuXDuXGyR8kh7nWWYr+UqFFwsHQ0hvmuPrXag5uY5fs6GGmd+Hk2EZ514qZMiChHzSbjlb52MmmHioY1Q2ijsjOKQ22UrfdjvtFO648WN6NPMiCtwtsfQeWe5OsGExdVLoR3FhJHDPVyWmQ1xACF56uxphsjAyyTG5PWbUX7MgoNjnUCpnUoKMVo+9KuaGgQw044gNH+deBlfXHxPOrXzM57RFROJt/HkCStIfB0hyAM68TPe8CCXL+E1zHFXC0vwEJMPswwvZubRduFfYYgDC+BjyzfPtuvAiL+jDutME8MQ+doJV4HXh/BXsNc6ijSUGXg5UoFPjSusvusvHvFsaGCZWbbpDctw8dD5nXVhnM6P9hQUaMpM/0jEn/w2vc4iN99rfUQAf/6DF3gJeAIscj+LM107bU12q+R/p3zaJdhrO8TpwibWRUPtQtVXw9PI632nLlOJzdBcb2/P6gGTzsJd98IXXD/a1TJxhLsNj2FtXGTGjmAa5AgjmMcV8DKrxnzDtaUJT1Zw+2m4zGJD8GdZfqvJeAjAyAhXCwKva9NOnHi9zCGMdzIcly6W28dOhB6GSr0D3UxkTKAFHiv3339/hL/MfawKKCc23Auq8JZ5k1FreZuCOHHrYTfItmG0D4SRs6VqdWrI5pVLWVJ7E17zVMOrgrJquPqrcag972I2V1xcAzbR2BfVLGKHCvkmPR1WmYcz10MIgrX1S2WNhqjdMuqOIRp7lwQznOks22HZWtdyOXfhfLn7+F1lfDcLgjl2XIGjncpwhZR140RJTacm5inXtfzAAyFQ9xtXQZf5W5jvWTf51F+B6OJcpscijuVIX+MbBmXqu2ML/AyzA5CO2RF6ZJadwQCjCg8lneW2NuGy0xFvcTTt7VyICv4o1MiaIb4mgB21A40yN+1omV4BbG7mmzO25h/lmCGB4vhOzrhBrwau9vutaRTSt4f71nj1y3wSz/a7of/BCLxK8EqchlZyRwfwRMywQAIC3K7uDMt0iXSm9RkCg+ftwjKepM16cohpnh7qaaPLLVohBO1tsbdFp7sEw9toXI5ydaK88frJyG4FIVOdkN/qkgGFxZ9MbFlhm6FRO1uWxyCF1kJBLl7WBQ1I4xBPZtD4nn4KAU+9kA7u/7Vh3LiBvYeh3CrHAA8PbUPYbUN7bTqFhjG9N+DqdXYpHH8QI/+9DKE3yrPPPcMs5pss9ziGDZxJiS4nJeoMnfBXTWeTwcSj0o4tagwFh9j07/pBJwa0cy4jaIkS2qg03OoMc8eDQ6aq4WKwRzt0iOohm1euXAn/2NOJkBeG0EzIyImkAWa+LxPHLWXbGUILix3H0gozm6RfRlNRy3Pygz8dmguHDVgb2Rxa6A2G8Hs9P489t0sL2vPQzpgQsI6ic0GgxmxCCKJ6EZP0FxbkQ+Tm36xb0/guvLqIC/75bb5BmAitAlDgg55RRuURO4isZ4XiCusK1X5XWDSu9t3jRdnw6TYnHob7o7N0J4UTSHZslrdpFmkKaz2E3zskFGBVo2bSAlurLsvtRG9Vn3UlDnYG1nVM6v0cQirz7+Tdekka6RV0aoW97VWYbMCNq/y4CagbCP0fQ2SrIt55qmQ6CSiSZmDCGpdKwsM84UmeVIpxeDqDeDtn3HQ1qnmaX1NiU7FOfZvjZnziYR+wl9KFQZcKt/e2UlfQfuJ+VwjtkeHehKRWoVuB6FbwqjNHVLKawTAzlQ5PTOtR13XzcWAa4GinsY8NAAI+bRQ0bphqEIP/+ih5Wybl0HzZrcmQgr2b/c7odY+UqcW18sIbJ8vX/vpb5cW3rnOy8Z7YStYb9oc69IkGIYJBCCGtLplJZkRmRq9948Z1NplPh2azj6HxNL3uNPtBBxjCWfEu7xhhhb7bk+J8O/L0qGttPq6Wj2Uei3VoYykKoG0D0kDBqk81yMvgPQizKbZk3XP34fLIAw+EwPjGV7/B8VI3OZJpnDbsWi0M99DSNmvDk746YUmmFI/UNvsQHl6842kcyxwDpGYXfEQa69BdD8FffGd6G4wuhknM2IqXgvEmGt00EwtO8Dis1WVatW0Z2HieDjM1OcEw9jza5X3APBzw9DLN2g0MfcyahpAmTdQ/+dgJSo744e8pLtrC+uAll7pwlRALs8GVDkGhHS2AeNKA2m8M9VWYabeMoR/5Ja7CKX5+SxvT+a2/P/3zXf70Ozbmw2uVlvjR2OQ7+UN6G9+ndbkK34mTJgP35IpNHNYKrca301EM1ImkxQ2OqGIUskynF/DQWRuXGg3ke8nL1ue3SvDs3Az2XUYHdDhzaIuJg2Wnq7AzSkBAujsjOmQ62HacjOvT+Lqt4X4nHTLc7xq/phE2obWuhaBKis38Mu8INBNc5lu/qMKAXX6xt/FppBpTEwDvAMK/eOOb4jpxJE/1JyDS1tgmbztFSuYl0czAmbqaL4FKTipsiV5Zwi0xhLk5MVEuXrxYrl25zLlc3OMAfJ5ttXfP3nLs+PFy8MiR0gfj679EGvgA5uguF8+fLs//6Nly8rXXy42r1zltFUEFkrsQGMfuvrs8+v73lbvvvZe0QwDlwZDAwy4FYREbWIm/kpUhVYDKN0d4D0/RkzI86mJ2cQOJtMaFFrFfFlsbtzyXkxcvlS9/45nyr7/xXdJzDhcznKusk+oORlfI2rAsIQgVTzdX69qVL2MbS5r0MROnvesqJ9E6vHC9mwJOu5WNfBwbooZ7e+N5NEJ7ZId7cQE0OMuA/RxpbgNM5oHMUZ4GfGffLNvhjtrPkcOHEXhHy4XLp8p3vvlNLlUZZ/W958+5Xg346cWdfbQDyhlL6Z/GccG2fm2kCi5nMBcXp2Pjv42xusAu4jUe0ViFwzR5UMEOjh63c3BjvTjZsJ340K/NxBW3hrYwQWX6jTI5e5k6vIehej8wMJGSR0hB82g0Njx+Coqkf9R805GI5yz82N8zU0awq9pxKixkZGd2o2NCYGjv7OHQhTqklbZqjbW+xS/pnmXoJ42SThmuv7O2ayxG1y869wZGGaJq0qRteCbiQGdn2700Rx6IvKhrZ3g9lWUJmONATLRTdwS55Gm1B9sf5/F5gox4SA3/yncuZbGd2l50QIM9kLtcuL/CUYNLYWod1XDjVKWh4imvqkn6S3jEO+tL+Nou/ZM2GZ7fGXdzj231sf4EEV0bDzuL2plkemNtzaOmVODJCCTWLqMIMoNwHeBEzpavYKi9X41DsTKLksYfTrl7K0rhLQUrgBC1G0ZKtwwjTl2/znKAi+X0qVPlEk8b8xRC6uYN1hmxRsueSuK53kckhsljFxfavJez6j/68Y8i/I6VoR3MHCKtn37mx+Vzv/d75dnvPF1GR0ZhRrRBGsoq4C09v1Qu/++/W+55z0Pl8U/9Svn0pz5dHnn/g3GyK4XAaEAFA69a6YGHeCt80JroNde4v5NrrNhvyayVV/etcgkKdwKsg893X32t/NN/8i/LRVLsp6H2YDheIMMltAH6YMhGntBO+BUulX48fMM/f9Wn/jVubUTOEnLSB8sO5jhufjda49GjR4MmXoOoFufkgpqBEx79aDgOddK5VCGG31GO9WyZVSNzeOvwbhtawK7xPTGL+vprr5VXX/hh2cFwLiZawN+V9zL7IlpOzIwCm3kEU92mwrNx+gyNsyVUEq5Iy4dPBao0yEbi8ha1xxvsdSUgGptxjItMMFVkw2c4olRnOP/6uWXuPLz0wLE5hIE00ZDvQl2adtDBumjSbHlEPQkLI4uRgeGYAOkb4+4GTARqneLk7K7DW+9w2GCiR83ZdGpcKRCMl/WX9WtHkK6tpemnAMx4EUdcGiDFO+hFGS4DCRibMDtU83IpTubjcww/eUIY7AidiPDOYHekTHM8lR3mEhqvQs8Rmh2X0k4BZv464fWgBRcja7/cOhTOeBGZP9aZvCe/Wu7P6wLH2yQSVUHKX0ZRWKuPpuvQKT14boURXD2Ri4rA6LtMTzrL7KL2Ks/qX2JB43QzE2bl2kPs4hq2/Wgve1jn1IstSGHmpSsxRIFgmwVUIScQDhGgVvDpLDNo2lhOnz7FItET5cybJ8ulCxfDbqW9zMqrB266ANUhQA6/FAAwET3gmnAx88b0QfmFxx4rv/j4YwwdV8r/9rk/BP6pspvbilwsKmwy3iL2jVgnJeEQOCe++yzDlJnyD//7f1Q++9m/U+5/4GH2GZkbyhxwSthe0lLF5RrbwT7/R79fBv/dX5fhY6OlG5QHu9Cc+sfKSu9I+fYrr5Z/8kdfCBIf5sy2qVmYiGpwIfDKirYP9WDPmasNNoeBJlAR0F/GkuGzwn2KezaKDBP/RRruHUfuDLuU2o9ErWu+3NBddyuYn0JDV+9TUNApeKVl1S66OdNsjI5j9649MOgQjXeJ7VhXylVuMdu/ewxaY8OhgR8AJzWIl19+GZwRjGiV0QE1DO27Wlm6qG/Kd9gp3Nojfeo2eaPGzrg2EhtlTEAQ5N222oH8TiEhLcwnadHOq66FUxhWGto4pxCWH3rfY+XokWPl9PnT5eKl8+CzwP0TalDyZtXsMo0QwR628uAbhd0ulqig58O/XdzDoHZZZ6Z9VtidFHJ2u97lYPLMz6eNPuMKv3j67Xvi41OXfoany7jimv6OjBRO0l2nvzPUasA3J6sGljTzqaCWx3TCpMY3z2yuh6JembhabrD8yDWWaq/+TNMuz/z1k58UfCoeoQ2Sn/Ha9WBchZ2jkFkWtwujeOmf8TJN+zuA2/KHrC2hU8bt4tNCIk7EbGDJePqla/t1Td64tnHuzNny0osvllMnTpYr5y+ygJNpfTSDSWwhNzk1o2pXTpEPsM1ltBzm2rv3f+gj5WOP/SLC4qHSz/onkVMNF7nYNE4FVHsZkh9N7sL58+XNN94or77ySnmd5xWO7FH1HiKta5iyIZpejYST0OMZWiSQ1x6IvFDJhW1AQYgK7fqqq6deZinBoXLs3keC4A7pbED1CHAqMnoCyEe+HkXuei0r7+nnflgexLD93/0v/1P5j/72b5XR/QfiBiX3DPYhHDy5dQL1/48//wel+18/UYaPMMziQuZtNIRVTuD46x+9WD73V1+pFxFjLJ7kzkxPXx1Cy3JHxcLSFBWG9oL9SKLb+yuAq4GX6kKjlCEMC8Gh8GqGQzJpTvXLqMZzJ8Ey56sJu4xsr55Pmd6hn07cL1++Qr40JOxOIfTII+ws4O8m/dGdHO+DYdvV8a45m0CD68VmNQzDdiMMHJ4I6/Hjx9EsZ8srL73E2r0dUaZwiUM2aCcxHLIKo7AKu7imRpQM32Y8/YxvYzKfnJy5jsZvHk5cyD/GqTxRhaZhW50CTNcO0wa2MrNcPvH4p5iIGCivvPY6jd0Thxk1aOB30gJnSvk1nH0y9U4zw9Y5wpo8Zik1qNJJujRInOywEk/hslFq68sOJnGtGdahqPiJu3RJXMxDP3++t8PSP/GRRjrbS+zm4N04hvvtsh954urVq0FH89PZZjJvFQfbr3UHyMxY00bYnTE1O1VeY3eKJo04445OwbyNFLZRXuUD8RP2WAbUCO6EMwpr/uhnXSoztD8n7DXPGinT5bOdPt/b8TMPw25JkyaiJpFg26m307bz07+HBvo7//h//Mfln33u/2Qoc7JcZL/eJD2sRz/bWLft3FXGGN7sYMHmdgy4feyB9Kz7Z779nfLtb3wtGsyh/XvKKEO5LireniZsGBB7lhX9ryHgnvzLvypf+OM/KV/7ylfLW2+dioarMdqTfZeYxZyjgc7RmOcZMs2jXXoOvttlNHQ7tPDdp/seY4aQClh1GQiHOY5ykOL+w/eX7WN7yhzl3UTrWfJGMHjRxh6wEHcNQeFJGgvk7wJbOKwco/dfQKj93uf/r7LOlpq7jt/JuWm7Qq13C1QPBF2mMb3y4vOl/PhlLheGYVgat4oh/Ok33yr/B9c37tu7G42uu0yx4r2P04W7aRx92MbkuSUalkq3QyCZTKaW6DYAPawgmcifzqdMbAN0aUXYMxEsftdKrMM7mU8mUEjK6DKhQ1sFnQytELRxGr4E7jZg1wvu3rWb2dmdEa62c30CjY4OzXLsBMzTAz+NK73djqZGd57OyjqxY1KIWYYNKWFXuABk0Fo4/YmHv2g0gSvItpxxEgcFt7S5dOlSpBV+iWP6tsvyKi02Q4gaLunoUNBRxRr8ozlibMduYB6GTtMY7LVDGn2T5jV140Nmys8BNH5PLrET8FRe807cMr7wSVv/KRQinHdzlj7ZUI23CXsNi7TAmG4zvCJj+sTTZ+bhU2c7M403t6k5Wv8uJbHe/e6l4xyA/33aGOI+EfhDepiFw1Ntwq45HMdk4TKbi9cuxCnR8mddntJMRgGSO4CiXihbvmrDFgA1f4RJ2IXDfPzWZfx89zt/EWHLn3Z889vqzFfhFg2rCcz82mkzXYb1vPXDk78zfmh3ue+++8veg07Do3EhjCSaBXmUt8ZP9yx6TpenXLgebIyGoD3u6088Uc6eOlGOHT0adqAZrmQ7dfJkeeb73y9f+uIXy7/5oz8qTz/9vRAyPeYJt9lLxvCL4dk87xpYJahahXtOfXe1v8MqZ8VsfO6zU4tYB44NhFe3dhR+SwvEYUlIXKID/tr8HA556Y1DMsQJAqjOjBmWt2J5F+Y8SxSs9CMIuT/5y39fXvnu18tDjzyMBnsM7kdwI/AWMRK/+uJzZe37z5b+MYYOzMa+cfFK+Z+/zOXce3aGsHM43ccdFS5LQebRSNAKaCTLwBzNgTqX4HWq3oZVtWC8bmGIZJZ2hckuMphDQ5/+pJMM6YykjKWR2BlbhdHFSxfC7jRCPe5g0sG69MglNUDr1F7Xwy8nEfCgFwtXzaMyEB7A5mzdDPbCOxk6O+v28gvPodXWXRJVW6kMHcs7YLzcs2ge7R9IBx3MM97F1yL49jBOz7lT2I3xO4tQVegl3xlLl7S4Jd+Wv3m16RiJ+KNgsIwb4FqYhR4f57pG7qhVk3H2MYWRIwsqiR/CC5qG4Z7PQfB2Ma8X0/Sq5VGOQkaXsPiuGUYXAszaBhjhST+ftiPTGMcO2LJ995n+PnU1fc3HdP4UpjVdbeCRH2BrynC5jkqA/OEwUidfBFQAYlwXY6vdySfmb31Zjy4XUp/12kR3l7hdbXL6Zthy7TzlUzsO01Qh2M3wHS0XPmvDGYUSF+jjVXi1JyuQXDIjDNKvuqRRha3xfNvD/NNlWfndeRJnMxa+fJisJvWl+hk//XuPffCuECQeOBgBAGdgNVBWoGrkmlP3Cg2NSluRIZjpvPv9HyonLk+Xf/rP/kV55L57y/lz58rzP362XLl4mYume8rO/QhRZxKp4EW0RrWBZBhJ0HlvKjy/hbXzLgAyTDBN1SYarMCp9r4ei21j8adqLpwKgKnpemqH/mouPSxLsPLUoNZs2A5XwOfD731v+epzz5W/9dhnyheefKJ8nCvdaPrBmIP08gvYDNfuPVQuLqyXv3j6ecpw439/mfAyHWDt5u5ZG82G00BKPZkbgaxg8iSI2KEAI7i412OltCm6hCErVlw771k75Bt+fNs4fNfI7HAhNosTrr8/tS7zHuvbEd8TUzfKGHFdGB0zdtDChq5TU/O8O4UZwYGjeTtfJx2X6UBGsM+ODI+x7s2pGODgSPDas9th1ZNDwA4+cdjpvtHNo67EJdIIr4yuIKk+UaeBB7TQ9HDw4EG2emFMR/i5sNiUCgNdNOxWXm2/5A2ftifjmm8IHp66FYTZ0NhoOXHmNRYUr3JqylH22B4OwTo9cyPwcKjnYugQfOTThRBZo1Ppw0ThpI77VuH4gNs44po2Q/kIaBuhJ51ZWN3Ya+ME6RCUVbOPfbNBY3dJaPfUxlc19wp7FdziUAVEHUoqZK1fO2A7GGqog6vLk0RVODxKS010Efvc0DKmE3haoUN1Yv4xHflDI+11YR4KCkEj6nqRXRm25XvvvAcB11NePPkGS3o4NJX1iEFKyrD9qEj00TkNoIH77gRZ0K3JCyBrfKjg4RU9HLzQzWEaNY51Kr6q16FiR6qtddbJqvWSdZp1nEHmK78kvSxffJUJ7bihYBBPVuqd5jQJwiOChOiisboAFV04hN4acxqJVB+9hBut+2ywMOUCw1DPLbNnfvmN18sX/sXvl31Hj5XdB/eV0TsPUvgGt1khWNAQbXjZENrMKsD5LfL5zksnvggKbIWjwmP5gXDGQ3VQczQPnTD508kQqvy15+GgRSrPoZa3Tbkeb53vFYTPh9/zvvLMC8+Wxz7zG+Xpp75aPvrYJwv9FBcRs0YNobdIWS9cOlueu3GuHMSYfwmbmQzisMFiYzYUpkOURbmJT3zwR9yEQQa2Qvy+nUscMqzzLcx4+l3fyJN/CiJ7ZP0zb5nk/Mx5ZiWlFyxGg7ABREcWmdTcTSMcxhcaj726xpKgD773Q2jy3LjGLosRZsHVrs3H9GoGuro31gZpJ1LziIDOn3fGz90TO5k0UfOcwG6ntmJs6SKNkjbtp+/+kh5BB+AnSdRp4NDgIgihYVD3Tn5cuHie6xqvIWDviDJdHyhfmB8YUGM8EVBr8IETPGqeU6wUGBjBPMDwtq4RFS6Fnl3cZkOrNKz8KewVB3iAtmT+wmW9GM8yU9P3O/mAaLxv4ifvmpfxM23mbRrD7bhcWqWGZ15qdnHx0rZqwoFSaKmsw6NdmMafi82VCqb3O7V7l+5wnTKTVAfYFnmDw0dnEIIjXNbDSMsJHvAVFwWdQ1t5rsJT21sQpPkjLNqG+0ec0PGyJA9dNdBcbnXCYHxp9LM4YfhpzjgZz7zbrnf78I5AXKlX1zTZ09eGFAZRtDNPmZAhndqeRuX1XC6JaKYJrOry/b/48RCEcxBjFY3CfKwMG0kbCAFIBGucWwVE5CsM5N+J17wLf+IgsWQGDf32XnXJRyWIlSFsVqw/G5Z+Ov1NO4AQc5p/md6oV3sN26se//iny1Pf+Ur5L//uZ8ufPvH1cvx9j7IWjdN/Wc92k8r+4dkz5cihoywyrhMECogutLVYQ9WUaRnmv9UJowxs+QpdmeZ2LqookbxdBPyo0shHwScNxFGC25ikmeUPY5eDONGY9bNcotd0zVAlNNBKMurJ5Rhr2EWZvd2zG5ua2h2TENS9/vU2LrQfYHcRcVwyTaPT7rfKtq12XQXY1BmFvQ0D4wmz8F7D0O5QzEYknwijvza/tN8DzyZHcazxK59k+fk0WuAM0gMDLpReYdvYKQS1OzdcwOxRWdZj7UBcgN3FEPbIHQcRghvl0uVLpe8Q8eCdbhaYy2fWs3latjhYn7o2r1aeV8DVrWjJg6aTBx1pCGO1NdbG7rfD1szPPCsP+ySMtDrbpPQPOuBlfPe7ml5FRe1fDXw7d/g6weWyEmH1ZzoFnFkJr7Zb8+3gIQzQaYz91RPM3o4yqbVOujVOXdaObJm2ezsQRwhzYRqoEzEBXOuP8Ai/tnrP7tPGK53bLCEMtf5+NoFn/LbLtG2/fN8aN/17Hr730d/RYO2VdhpAtXsMIZU9E2vX7l0whRvZmXHh6B17SJ/0O8HIXuSr7cje0U32s2HncyV3HRp5dLhaTyIvAfIXfg1RBC7jWFb+FAj6G26FSXArLSvOijIsbH9UdDud75bV9ostOOSpTdAZz0Uamid3rACnF0Q7Q7fBkpOH7ru7vP7iy2Ud++DHP/VL6P1r5cUvfqWcZYb4h+ytHEYATJJ2RCEJXBqEXXyrEBJOnbAG7MBvxQQODdP6HgxLPN8z3Kfp29WalZr55rfP27nMI+LL2E20jF/TV4HcntESDuk5wRrIu48ci1m551/4cQyh3IVhPSr8otimbOvHRmpZemVdZVmUHnxioPnrfEZZML/CQ83bdGqJ2tB8z3wiQZPGPKVZbbCVTpZr/Spgsr7Nu+JYEVdYVHCtG/08adkN7oKmAAIe2qJanBM8+ziU1INJz587g7DgrD52iYyx6NuLzEVHGumynMRHWDIseF48wSXjGVbpBC3wt2yFjeHVSZcKk/jrEo+An4oUfxULtSY7IYWPnc5q005sF/op5DwgQgFY86809902ESM5MpUa5qnNfB5+dtWANt5L169EG3H4q+knOmbwE35/lpHD2YQ1AG5g9t0JT/4CqyaAOoyvnasdWnZUFSfzTLiSXuKebuv7Jl024xi3Hc/vTdr6VV3vjevXAomYrsbPm92d5mbHTKzXmWB4M8WSBZE0Q++k9LgYJbfDJBlNgjhBsEijsBJjiEdemrJs/nGaKYxWG00lvsVHBTSVm8DJGPGDCFaGlWi52QhCs8DuIIEsNwgVTCPymz1FO43vGS/L0c8hRBwoiX0EzMra9auU2Y8Rd6jc/4EPlm/94ZPlTz/95dIPXjNsyTozMVm2dQ9yCORSGeVgRPddrjCDvEpD8npGnZUnTSzHMvhTnxFaw8XFOMY1XgemJs47Pcwv475THP0zTmjWt4loudLK4ZnkN75xw7bEEViHDt3BQmOGNaxlG9vFXapoRkrOXP5R192JGxvY6f0VOAoi6yoahzCQsc327XpuBUhqGce6tvzEzXqSTySdTljzZxz50FNgAL+TRnTkFV3i7ns2umWEgpNe7g2mxgnx5rJ6jJT13cfxWL129NicD3Ik1vTNSWyXVxlyb48VCecuny0PHX8IWQnN+JcwB90oXK3ad/11wht4KEzDPlgFjTQyTsWn4qJADrsaBLE+pKGCIZZ0kae8YjpteDoFnXEST8mU/GS4CoqdiPi5M8W0xpV2wiTfYXA2aiedYRLUNAo8zQ0KJfNVCfL0lVxiZrpY8kPbU2bMsSA+l6MZls4yTS9+TphoBpEW3WjR6SzXnzQRp5AxVuxPcBXWnxBhS1Dint69i0tIdipodm4Kg+7+AGpm9iZGz7Vy+drlIJCqt7a9ICxa3ByGe9NITJF2YaozgYtoQjG7g8bjrKnIxkQDeoK2JF0imU8RzZ95ZhxnkixPIqRQ9d0emtoHzoja+rPpJ5L+wkE/88nyOmH4a5mAh3HkSXyHZl0bLteYL5MTM+XwgZHyn//2PyyfevjRcufgaLl+damMuA0Nvh7c3s8RPNPRwG3aWZ7lWJ4/8fGp0z/LzjhWtL+OkDBexL79nyzj9qG3+r5TPpUOChEbp7GqcLHRXZ24XO479hBG6aFy7qUzkWHYSUO7s1PQSdeKSxWA3nGxEHXtEFF+cPZVYVZnNRtIrA9ooIu/WT9Rl7WuEj8bvHAmP+hvY7Vsn+mf9eqC7KRtFGBM0vQg4ITHNXRrDEmdhIgtbgAgfHEyC8JvkNNp5uaXy/133xlxn376qThF2YW47tSYYkHvdZbvuK92nYmGbKAVJuyH8IQu61zYAxdgUHgbzzA7hpgw4jQTcdGvz0utefptOjtgJ0YAEL+qARHE/zqznYJdnnHEEisXApean23S3TAKLJ2TGcKQHaywhNAzd+jgsFeBbQknDAgAAABAAElEQVR2eAt0YIN0AK7N8Qj5PkZ/rmSYoU5dw2oiNUfNA06aOIFhu7ROAmcLbZz4Cp/Le+qSJs05lX8yjmls/5rMxEkadOiXkVpP4xv+s7qtMdnX7k3sS2Gz6YcxZuamMX72x2XF9aQPb26vd6MqvBzCSvxK8GosF2AZyyN0BtlorIpdZ4KIaWPZUqrp9Xe4FQKRCkvBlhXiELEuOiYeWag5OuQJzUEPXJvAhIaf+Vl5tdCa1karl/H9F67zXWNaOZ19iqj2GxiDL7Hxfhfnos3y/sbKZFlE6Pcj7bo4uTc0uyY3s68VVfExf5lY5rxd5VU4HCkzfQ+tZbeobOEjnba+rNR8tnEN+Lf8SSHQ9o5yxBNP3wPGjBBkoDxmL73BDJnBuGOYRaM70G7OlwtnT5dRjkIXrmBmcllH++s484XkUl0BtYqmO8/9rtpKPSR0lp7foVJvNDzK5p/9mdXDW5hFkm9tBImfdeXwVqjrvlo7K78VUPKejajiU+2VZEivlTTLfIRzncvQHREooGycQ1wyvbzs2W5O1DmrzCJcNCeXNh3BWL+b0c0rr79ASdQddaztSXh7EQBvnH2TbYisW+M0lg1OTxF5gnB2HvIlX0S23qVXCC2UhjiyHd7Sb8kJMniJ2o7v6GBDAIijydG+yMMFxuva/9A+LSQ0P+D3Cske9kC7cNp1lO6HNc2mAIMOZKTQ86nwXGG1Qq0luYw3yvNklRXWqtZjpIAG7Uu4hS34YYPFpqRfhk7LayMI/x0oRNrxwI/salyEJWakPkwBCs1ahmXpNMtoauCbzsA6qVpencmv9V3jhjbPagiHvuyDIQ30oS+mtslGvsHJaJXYfpFfTStfSNdsIxHIn+BzCdq4dniv23jclD/K6mjv6bRH8PZ2hzEuUbAXsdKd4dM2EHcUkJeZiIjIqwq7Gl+owvAcFV6JH4wOw5lJnVmtjTqIZvomDwXdJrOCKDyegAu7YUFwytuMlyhZcqVIxCPuVpfDjrZ/xm3H1k8VXZsenXnpYzR3/solLksei4YAb7OgGTsGa++sFFV9Z7KErZ7L1oJDmKQTMLeJLgxWhzhbjiYCy5VxE+c2nD/tfWve7fjCFYIJODJvn5VewBfSmiEes7yHDx0odnovPPf90kPjkhkrpPVvMlonf5NLA+pb+F0GpH10JycNK/jkC5deJFPKCzrLV0jobMx+K+SC9s3Td3kkNRo7RBu6/umqpgXtEMSJW80TqFrxbESOPBQEahJqG87SWj0Oz5x0OnjwAMP4yfIWSzK2M3usfbpL2yV1YppVpjDPsT3t3juOAZOTO+wsoqO3SUrCiqM0q/wZuJDeIbPLb6xrK8JVD25vM1GcLkLeKgsgEPF82u5cuuRhE64FrcK8CtZsb04gyi92AuYt/umkmX7G9RmwyKd864yr5rXCdqZ+Jik8VDauKEDLH0KwrqzORZxBZIGjtKFBFBpoZwfmJJgwWtyCph3qWfit+wrDJhxWtzBadwq8vj7P73OG3zpsRj/gZ32oNTp/4P7e5AmVMfMAvC0uecB6DnC2hN/62eYFJifZH4mRdpLKnkedHe0bDcTsPax0YfNyZpnFGa2oUKfPozEQTImRYRDcyqLCIRK+4d8mcpDCeKZpYJJIps8Ki/wIU0i0XYZH+a347TgJS8BDAZYRYPHMsK3x89v8k3GcMVxHuNtD6u/WuIVutiTReAfQ+CruMCXDQnvawDELijIrTgIQOGchW57mrTbsrJ1asuXbcP7fdEELyrGs2iizR2zqzd4YLWeRHn8/aybVzKZZjrGd1fd2dqb7aS7rWAFkeW5xcjdIvYzaOsiy23Vt3E3hYB7C57PzTl42JPO0w3LWU1rxQtyKE3/fJtCN36ZlCH0qI4dM0YjISyE7PXmlfPADri5YLs/84HscPFDv4xWGhFuBOeBpITeulctoeAf3Haiw0z66mel36J6w+wyaQzTtwvKA4Wuu0QQunfZE2Xt+jsMbesU3jfcKUOvFuNoBa+dbF5hXG6VtMBehi6OCMesoaee3gibrw3h+t2FTSFmOM7zSxzS5/9wTYBCj8DcC32EmMLtmU4EX7RIcjW9nYd4K2E2BFyhGeMQh3KcmE4fGU9P1fl1jVXhqO1cDt925bdQNArXtilvlH+vZ/+LYdoZvddI5ab01rPfAoYNs6VooV65dDTucOx08T0DkVK11anc6kQvCNBVnpglAvAeY1nGAGwB2Tl8Asqhu05BXxFFoNnlFAfrzHcCGqp++FdHwb7za7xkr/fKpfzt7YU94M41+6WQQBbvpZRDvd1Dbc3W+G8j7WISq0VjYbczrnvNG7xUVRyappQSNwM2yDGvTLem3WaGVOWWaFHrCk3AJS9CKBOnXDvf9VnyDyrfENVyGEZYsn1QBXy84eZLI0cN3xiTMi6y76wubV617cWiXa3lbXZYvnGr4Nqa6LtDhZMXLNLfSQXwUDsJfhZz5GMen9M98rRf/+S0OfgfNTYxrw5dx9E/Yg4JNWv3dbSNcc9Nz5cChI4xwtpdz504xRJuLrYpqb+aT5VMCQGLOQDk4e+kswm+w7N6xi6VXCAOWsWgPNW4KGN+jgSK0LLvSoOKqZqXMdtxmPO2P2s1kQ4VqTA6EMAc3+j6bvlp3NwJTjdkJCQW3dKrlVbqaY9ZtmiGMI52kQ9JCv4wbKwsQMM7OVphFk3JDqFBypKsThLFoH8BdjRFx0czkd8uyvrM+EoYsI+sx6rDhcW2FIlfxb/aGI2OccFGB8FpI+TPMzLxFCw0+qfVt3rqsd/NpO2F5J9c7j6pvj1zVc+1KqrpVkpuR0+BmYMMGBksJohiWBfmUoLBqjRKl1fAaJ6q/+kLQ8AMLEQlkIoTsmzxrmluR0C8rrY1ojdtkYH6NANvqvxlj8y3zzAZkWpcsLLInUWoPomLHmineLVvbh43T3s4ey15NegR90Ib6te8AZ2gSMK3v5pkwtd8JDEAyzPyTaTKdz3C3kqJ6NXnXCJV2W9875TWEzrKMh2hBmNsYhLer3HPPfeUqQ/cllh2NYsuK+m4y7MCRBbzD01o2bsJvNBk+T9cIukCPmt9mT61ZI9JBA2FMOtgJ+F6ZBCQQIAQTt7bJKlYkziaBko6Je+anv85yYvZaPqSxHjjAUJY1Z6+9/jL2S46l0oRDPNNlmpqQ9HTCXQwB3zzzZtT/ru076y2U5JkdVpThH/J3W1YKQWmjphdLSLrgI+gfuFGYMFmutvQVNE3x5JI51v9ti4M5UEaxM7JTBmEnPXWJX9gPFazkkbhGBP6Yf+JgWMbRr+ZThZdCV/jiIF/pBOwuO1llyLuM8kMmgV/MxiIf4jAKMLDDcriuwFM7U/O0nHRZnvWukxau39PWa6ValPGFxdGEy+O2s+DbeQQXOztRansLvmrVcWTGH1D2b3528Mty89mGqdfTKUwiEXy6wNTe2aGpfo6r1XrsXXRm0v7ZYASKv80/QRDp/CZXITPzdDIt78rhTfIYzbzqL9K0AvXX5TPf29/p13763nHklxUfQyRKFzcZQ6LbyF13JPyrvPexx1BGVtM1zOPdq2MLD8NcTQCeBqvgMw97KIcc0sOTl5PZkvF8VuJLm4pcYNXgbJjagAySFW000+m24lph+cl/o7wG73ZM+dKwKdZfPXjvwzT2nVxgfbYd5Wd7BwEFmv90UevwhK5OMuEjj7hGCaewia7RKCbx2TC12o24ppCIk2OAkexxpEOr2KTBZolwrxHCiZNxfCZcfpunLvicfFz9P75vfxj+z505TaNV46oN0bqxSLLAz1QKSTQpn56YzPPNUydKDxd8j3F4RdSmkUmloBAHJ9wcCyQ81UTDjCT2vyWGtCscYrC25G4l7FrYy21z82g37r/WbuaBrjt37invefRR8O6J8xCNV2na1rqBifIsp2pvlbBJp6SFWIi7cf3pxE3YNV+5jzYmWOB10wS81htmHOPIlw7tEx8p5ESiJ47Lry5Gznwj8+aP8cM8Zvvh3TkCfyvc/RLxgUF/8+jZxjFU2AQ9Am7OmX+0T9spm+baWbbegYy6FAtdG+f2t/mn6/WYGJ0nl7jf010HjqPRpyAgU8ocpqg248kl9nBSScQlQhYQBQZnwHhRdrJMjb8ZL4uVNaLU+FvBNemm4KwB7TLCJ8q8XX6mVkhsdVGpEEWkvQLOWWaZxluZHKLa48biaewlMkQXuPaQaHQbl1azAT9W4oO3No0+Kt07E6wE1ya6IV2a2CONcUnOQM9gmcXg28fBoDTd6KW6FZIga2/o/sqAByB7GKLYgwmXtBT+OB1Z4cFFOsJkZGH1Kc6dS5bNJDKtwySNWDkJIP7iaZ6Bc8MsCo9Y6Eq5wUQI5DWY7tDOg2UPDculFWNoLLrIPRqF5aaH/nw0vBPwALtMy8AsIlU5B/wIBUAgKrYbToPWYL1thGsEsYvK2L3ssYTYFSfyyI4hGJOZTddHKuA6Qy3K8NQSG0k4gm2y5h+drXWr9iWENlL4U1xDSCI89FcoCnNAC88PsRxkz/gohwtcLtOzXD49xqGVpGM+FyN5RTJmJBt8ySTYXy1IswbSAU3vDQ6euJMzIjlhh+Ox+/tZ4kIdL7ALx0mFZc5SnGFdm3RRgNQRAbObzIxPz93kVzWfwKn9h7LsiC9eu1i2nd3GmX7H49gyh5MYuAIPEGZCA5ziNrHUfBmJNNgqIpyMMZ5LwsKOKF3gJ0aw0Bw/eHMNVbIf84z9gSsPED2Rg1of0x4sT6urJbwMyvWPLkNRsKqVWz9djBJcY+chBgoycYzORcah7GyrprF+FZyDg9tQItxXj2Ig/4BHzhnELD9pPQ1pmQpgQB2TKh3yAH/kaZVaBuFtZ1h4B4fUkITBL454r40OWIjozA6ImCkeIuSpGwoih3quS7KxKBhrJhYoO9V/oRJHgRVZsqxAVQj8im9ThZPwpN90hlSmDkHQRGwD3H6PBtJJvJm24wVcChqHCC4M9p8LKVW/nflaW6QyUdvVLBRA3i27Ae59PAcxotb1ZdX4uwot1ODigmIuwxmkgr3b9frk9WAmezg1QUgTQkC60GT5S6/fGHy19VDlwQgAJT9EuHCF46EG5FCzmyUC1oWuQi7zkgZ04JPwNXUklaGB39hBTf5YT0nDYDT8aItRr8JkZAW+Z+N104uPAP84h7vqNIQrPiw+ZE9kDBdE5hElcIx8zHcdvKCZ304seJy4p+xEWnrrkW1D5fDhQwzJ5suZM+fRpljyQWdqtpoMuuEPhZ4NoMs1beSlkwe1awosA2M4Qzwpg4SCYok2pEofIA7iSxwbgb504kYmpf/sMDxqbB0hfHjfHXFPxQ0W1g9xiorCxLz7jB4pgtxMNtRva1P87AxtM2G3ozLeunqq3Fy6GSeOjDEiUEuaYNHy5PQER8w2mdVRqGa7oLs5DoD3CJfsVMFsIxZ3G7/vaFTQYAB+eeONN+hMx8rYwI4yw3l+Kh8irxYIqxLPPMWXD+CPWWfSBrQKZpy46+pEBXzFTOkoHb7a2yw869mNPdBmw4vk7XCksWnBBRKGsjNAJy4pDItdHtSfAtAlTcLukFSB5+6UsGVbIHhUHqy22eiUaYtDCLzlJcoN/jY9dAKZsA/iN8Zp5c5OX7sxSafMrK6wxT8h8Fdxkm+sk60uFBfgTCUglqo1sPQKUP4sV+f3KpqeB/k52+awV5VbJ3ICuCl46vvmd0TrhL/NP/KoBVm5DW938uw08gaY7P3NNYnnu/mqXehXnc/aUDa/pSMqNxVnr+MOEme8TKsm4DDWnm+QvbL2yJhkw0BsTobZy4YgI30cVOo2GRazKvCd2V7FpkerrFcRjnqoKAceDtZTWpxmt4F5iH7/MMOcFWGDEVlpHnA74Flr1ulRmTHUg7Y631EWak8a0s0yrXKL4ykDZD34HRpW7ZmTISoj2KPCFDBTrPlCkCkA4gYu8nL4pc3ItVfDnPU3zEZ5XRcNQKmiVhJGbD/xt7HX7o13BFtdTwW84ORJLW6wXwP2qs3a5Gg8DOE0RM9y8sYIAmEXVx+6FGfdmUBwyDqVeeO6y3XoxrIo8bVqHXmIuMzrwaQhIAzDz5/SP2CSThrg8dpwhII2Q2xOryGUdygYwmCRW9yOHjhIpJ5y+eJ1OrZRQmqddgmPa+HIOGrLb/KrjrziS7ikLvBanwjvCRbqX+O4Lbzi1ye9ocV2fqHtsOokXJNZXCQD/8mHmw2WEsUpkCb3wJ8EoH/93IUyvB/Nkx1GanhRn/Bd1GnR5sh6R3sz3BodpXkiiqAdE3CUM8RaOTuWiSs3yvzpK2U3grZ311IZP7ir7OaqzmVwXoGn4DoOybBTRhmgHgEi8FDb61UY8s92YSfk8Wq2TZUi+VnNXe1ME5Cwy+u6rF9NQi5M91Qc7Xi2K9NEXOPzcx+wNsFB2osHF/Rjbpnj9BdlhKST0zuu9drxa73YPtqnERlkWSHwUnDo4c9vkdm3b188L3EwYzrD20IoM9I/KguPRNJ46Z9+fvurzrw2WSr9M01+N5FvKTfLyjCzrD1kZi2L27PQmFnp7b0MpnFY5RR4H+vMBjgsQG1Pe4FMNMwpt66xcwH1dggeU/FUivQQFqfpewZ7yg6Od3crkhvfx+KyZ45kYoikhueq8mrTszvX1e05wmebVKX3SKXQPBumqJVDBRmJn6d2VOZiuK3WaEXj70kXNmPzlG4uqvVoI53aTJtethudw0NvD5NJPRBVmqiNqUXaSLpQYXoQfB6rP6gGu39XMOPABktzHBI1rCYIsnDNF+jIX7r4M0poeDTwEBEKPd6N09XlXQtd5abblTAH7Ni7h84TuIlj/h2YiWz9xH0RoChNzCBoT6N1MZYdiAIvlk808Ggr04VwZgRCMPlCE9LbRJELQfh1wlYZ/t255yB10Me+cG9jo76pd9PG8V1AbzlkLQCF6yp8aShAPL6qkOVZY8VVAHu6hiNOJCeOot5/6lniF7za5OVjhU5wnXIFzV/9Y5E1rjjwGm57YQM/O0SWOXm7d6heB2A8Bdk6HZUXqPew3dFO0hEW1cg39kixp2p81z43dXWyPP74Y+Uzv/PJMs4kw+nXXyk/+MZXyYOz9OggZihjkTJiosX0CFbxcPSj5m1bUAFYRJMb4j3qyrqnJOvItq5f3VHRDGsNbXBSUMr7a2sLtEGOsHJERN1FPtYpcZ0dV0MNZQMYPcRglkuz1tZZmhTU2PoHGkosnOW0Xebrsx3W0fDS0wjui/VGLIdi5y9ciAasOixS2u/4CylqQVlYps9C8zuf+m8VlJm2naYdv+3vu+mjgWUAz4wf8MDdCrjaUKsdZMc4i6o528u1RR4yoL3Chb4Stx+hpsCbQjPTbzuzdDNoem+dOBklIPrYgbITAdkXQ1iXcFy8dDkWaq+x8vxHz75KRcyV9z7wvnLqzDkWbm92DC0QoVRvGR3yVBpOkGaSo49V/C5e7emrGovMGsMI+EcNV81Igah25OEE4mh9eg2lk2a1uUF/GJkULADFNka7r5VbGS/Ll/Fhe5gXwc59Gw4kHXJ4JZsMPUBjXUPbmZ1bwo7CIaJoARe3ME/m9TM/vU4j5f2KQ1Rsdmiz50emORl7Rwi1ITVeBRlOrVun4OnGZtTlin/poFCw1Yaj0aH2esCDi4GFPRoZTxu6Wt2ayx18cqXghpMCNNbgVXh2ZW617GKdYff8JEtQrpRZiqSPCroKhoJMi9qa2i15krmkrU4wO3Do1cSRTmg4qA01XvzNd+GueIV3CAfD2O5GlfRXeS70EVz/WBDkog3WmPV9mvY4ykLpXQxtFQbOkgqwsda5UIpVnPA9HRsw9oGzx/T3MxPcxbWMPXTqc1y/+cAD95V/8Pd/u9xxx51c67hUHn7wfhYN95Un/+0fx+1/jkDcNhd14LQwuCn8NCtoX1MWxDq6q9MxNJbX6iSGQrpO+smnanjavRVukifwAXeFW9hvGfZ6QrfC07YX+FifClbixGkv3axPpDzzMo58qUlN1xFgQaDaLiLglj/6N4Xj77vp/IXA08PCdD4do3st4HXsGy5ZETg1DSsrtJB4qxmaSbrbCbTNsE0ghCUr1PDMQjjqDz6SkRqXADs8yDgZFuUTVYXAQwe1D/Uw42YPooHV/X9mpZYzwoZ/8avDc2wJxFHz2c5Qaw1NyV7e/cS/9NjHm/1/ViQZI0ilQbQK+BhRVRZgouN3HiF/1HOOD79+/Vo0QOGq0/O+0UOSvBcG8ughzQTaE2UG2iDqO3SHrv6knU+1n3mOrtcGtjLPqS4zzOghtNhRXJis52mz9FDTi/wqExw6dAxBgZ2VBi9s6aRVX6+2xcKJwm+WnccOl12ju6Ehmh2tbpiDUncM7GLyZQ9pYXY6g4/96q9iN2F5QaOByAuVWcCG4bEV57d5W3HRAYEbHEsaBQzmAFmjaSyVa6wg7Ut6u2WK7UgrdjqGynMIcvA3zyXosxJxwQe/ZfxIXeagx7oZm7dlm9a6UVqJoEIA7SMYYTvv+rHvG9WIJzTb11duEH/1nIegjhDOEpDITJq5AgENCvqOL1qehVSZ7UDR8tWNFWG+S2Gf/sSgYgEJeDfMZ41bzUB8dlzN69Y89EuXZegHFpGP04o7p18q+x54oCxwQXhdpybKCBF4vXeQjQF0WgNcF9nHFX3r05xYhPbaxWVMo9tZ7HvqSvnof/pY2X/oULlCR72AIDnMbpJ7mQF+4gufhy8tCUxBJIb1fNVFyOCs8MM5iebOEHk0zAvUr/zmcVW6bPvVTlirKHgkQsma9I58XPXhPlyFoqMu219MDEY8Ri3EUwhGG4UY8t9S8JkCti3g5MHKMyYNGnYECeVDPQVxTGalP/HAslauiQRQwGz0jrUvc9GORlL9NILLaPnP+G1h5/c7uQpYzT/jbJYa2eKdPlUaZzzLCDsIHtHQQER+DxR56ue/JYg0xCZw7Y4afD2mXGJ6OrMGeSdfjBuXDe8cCzx6EFYeVz/KbN0CqrM92YMPPVz+q9/+bdIgHGkz2kmo7mhXnr5B6cGJzoTKkQ7BaPbROwpV0BBGVEOJCqfnXYehoo3CLJXGGnldC1VtIi7EjFkx6KzmuUqeVm6o+NKexixzKwTrsih7y+U4r+7H3MH71DNPca0iy2IQvM60RR2RRvw99ugc+0D//t/7b8v7P/AxwoAXlHqwzgeNutAGerAPqfWp3SA4e9H+pHlMsiD4FGp+x50lwURVJMhkUSfaFBWQ0NqqsQzTuvVWi4UUkvmi3qQbcdUcQps1E13UKfjBkpReaRf+m/xg+sirSaCW59ALXSIEQ9AbPiX7yNBvIfXo/bA/Qr/oR7UFEiN+xiGNFzz55CiH+k1ZYEwcS+RDmdCUE/UeeROGTRDuI8x34AgYjQt+iZtf4JsOtgr804dk4WIrlfB24maAJAMaIsp/QYOMg71T8Jw8EB95SUXlzZeeKy985+tse1woY3Siuzii/9Lpk+XPvvLX5ZN/89fLxt7xOFZ/GUG5Qd1qZ42JJGfvKcGhqyhbprzhgRCuyQ0BB+DKBaw9xujAa31qLqpDXKVnxdBhKtGCn1VCBjmL0LbmUjc1OM8ndCtrbRtV1miq8Ja8bdj7VuiA18Grmh2kSf35N8nguwxW/Zp6kyAWrG8EKPDCKGFCFt3SI45zxaH2nfMXztPAGiBswE0i421WiGVEUbf4WUz6W2Bs+n6HeOaVArGdd/t9My/hpzx/EFcbyQobl9Wg9o7vY18g94MCp0Zj1fthhrFqZr0QzuGkJ1P0YD8RHiullxXsMtAIQ4DxXaMYSkc5/PEu7Fr054usPYz1xzQGDLZqZhswR/A9aSoNIGaDFyIhSFtxbxqswfzWo0xgVkMibTew9w3S+Pj06Cnxa//ErfNdM4xv91iqyIQxlqp76P73l4984BPlox/9xfInf/qHDBWuMjEwjPa0AJ51f+KZs6+X/+zv/jflVx77LYbzbht0O5RDQnAQOEGiBWrL62IBssIwhtTQp+IoDvhEvQOXzSHD8BNpSBPptBdmvdGGaIXQgQxDcBoXV8NhPGiqpqAgjCGc+YcgJLPwr4LWeso01nvttTMf0vAP8sYz4JWWgRR0skhBNBx/+V/zAbVZViivCjQ+DCOOpMjzEUJwRb6RBXtpaYjiF3nV/Hw3f10U1cTPvCwHgCP/ePqNs1+R9A2Y4Vf/kIF5bnGZt3BGSXjop6vREfIh6MVjvexGML3ngx8qv/C+95RvPfnnhSsDy8Vnf1SOMEE1+sb3y49+9/lyYt/h8vKrJ8oas7UTbifkNrfrLGyeR9t2S+Ws2jKw21bEY4MhdTfEUTYoVKkiYKjw1GPb8XcEM0S9UfmxFCbqk7R2KLy73M2faxklgIcP9NPxKkR7IVr8I0tPR3eSwyH1Ntr0yhKz6ApEWh+1QFLL1VjBMwgpJQRXiGo9G1exRwTwsRMEYBi1Tu3grbrpLItHW6vZKfxkNtVLEwQzmTyIzsvP5WTsd07w82RpL2LFa3BfAkbXy+0e341gY+gWwsAe2qEcslx8aXjr2FimkF4LE7P4QWC6eWeMmLMlArNYDO3iuHFOf3YGSeN2P1Pnr7x1GvsHJ+J2u93FzJhuqzUdMARGgRd/lESBiB5WSDp1BNO2HdViFIWoceOjSeW7OBrCe5vuUd0MvY1inq583zE2zlWEv1LGGML8/h/8c445ugZuO6IHPn36cvk7v/lflw++75Nl4hrMzNovdagNbDuWYJNXc6yTJcJHmeCRPWkIXYWv/yi0dlxV5EdsATGndToa7vQIevMZeVPhjA0Q6nXBaTBjg0/V9qruZEOIBOQkv6Fq8SLzKuh8KgjxiPIrH4bAJX6ENYwVoo+82n4CpLDWWQMudXAmeIUGtkzDDYFn/oSFIOPN+PGNnw3OdMK3hNFtFc3XTkKBVtNAEzTkDZdsAJ8YObowXKfAbV6rR/PXNno7/z5Q72urhbekan+Qmkxs+AsD7OXG7uk9yu7E7QOObWhQ991xuNz7oV8rI7sPMVv7B+XEM98qgxj/99/3cHnt5GvluW99p8z3DpYr3PI3yUzoHCejTHqvDbRR81LoWAGxrMeOCzmQdVg7IeBpIWGYNnKfDlsX0CxzZJbRlCVqe6ElgqfKiCMh61Z7XWw5kzZ8y5M+nXRxmDy0hq0Zrc8ygvhtcjTvwaMBFml5tuWWuOjChmdGIqHdzu0r1ehYz2kzkRnpfDTp4vt2f0Q4XU232Wj1z7wyjs8kZNtv67vpjCcLqk57o9T+PduZJWXGlHG+9jv2CgWR7VGC6xy/IOxuTE3E5IsLQg8dPIxAqIcDjHKjfExIcPyPs0sSXPubja7PdSE4j0RyityS11i/Vfu7CnMQhDhShz7K6DgrqoUn6W0kSRfx0DzgkhzzlL4pxIU73gFf+el7Lv0wnss47G3tgZ14gA/KxQvnyi6OY3/04Q+Xz/7t6fK7/+vvlbFjI+X1k0+Xxz/6n5T3P/p4WZjjcIBFlsxQx2sIoHUYP7WpaqoIwCvs5p+fYhbVyR+FhwI/PCozGk3cu2NYR8fgR9Y/eC6SZgU4q0CN/pjU5mWvy9PsfehlZmC3qkC352p89DVNpanxa8zq34RGJwQ1m7CgIUHeqhcii8QhjAj3abwqzHxX8aaEBlUtGCmwPNoq/Z0YMC8Fm0Cbj7J5vZdhQF+zJAU/oZUMuroYur63/xruLzHpxI+A6tsUU1kMr5CDBhFHHvKfdNm+ap1gT6NjX4YF5/vp3PuWy1uX3ipn77mjPP7Ae8snfv23yvSVU+XHP3ymzPWzXxWVmCM9ub1uEs2O2Vnqb4qZ0wW0ut4NhrSRv3zQQMa3wirbaRV44lnDs02HMEO7C7tccwVChgEkdQ7/ko9DVYfI21nhoKBzgsIwebIzgUf8BVZPxLIxTFLLzCK7dEwThnhvde1ygoxESHiNa7jf0UpFRmGnxw2OiPKpX2biU4DSJcJ+G9dfOqV62Pya+IZlPhk/vzNdPtvhW+P4bd4uDfFGpd279pQRbHYxswQRvFtCZjVOrI+DAZz9czLhxddfbRaGjkFsGJchsCdVOBxW4NmjKeTXGNb19nEdoavLPZuLw0B7+1bLI4/ejxYII0ACKNFwasU58avDQ+lUyS28UYkuykXoJU30U6uKy5HorJxRDlsd9r3ag2nH00an8bZuEg9/DO7r6wplbV+rZYIDKaduLpcDLB26OeGN80Plfe/5UPnIYz8sT37rz8s/+C/+h/IQzK6BnqpEe9cmB8yu08JO102nQcVFD2qPKx4OPX3v5sYu61haqinr73qr0suwhmT2ujJnTaOmVO1mfvuTQNqUVrANzvdyr4YNI9qG4QY7RK5MKO8qPCIYmmkL5BGdgp4R3xykfUf7ISASENCO5GcEZKCFkIc/QjqCTH7R+I5fhFEgkIUwc8Db0eCiLmucofV5tCeNVlXYCTMVgSDC3MNw1/yDNQDU9BUCu6fqpKc80eHrxt9yE8nQapqUBgc9eYZ/0Jt8zds/OP86Ey1EWl0UyfM3Z8v1CxfLtd7x8sKJC2V820D5wP3vKw9wgverX/izcpODa69zoClG3DIPYyzCiyvgsOThqOCjHZMKJ+/6L8qJQmu58q8CTfkQy4oQnikb1NYMU4jlkqNoA00lSgPv0VDgCb3DVpeGiZQ8HrSNsn3TeWTWShlmjau7dUwjvYKOvpNv0iNpkvwXdDVFQytzE5ZeCxJAFxir3ekpYIEQ7363E2VC4+gMi1kbGwvEt8EnkrVwC9qsaNOkv++3cwGjf8A6yuZVQloFO9jzOb5jnKvlEEjsRRzjspIBbHFEBOa6G2R4lFvS4brT586UN998s+zg4MZBNn1vY3eEVye6u2KYns5p8pkZBDsCRDoMcoz72Khn21E09joXp3r94Bxbx+z1gibAlLiLR8XVxlSrSHwSv6AlAq+bWVFAj0YcGhVR41gfjV8IEkwu5GODsOFr/4NhgGFzuFnpR3WRB3Gg5/Hjd5RXX32tXMH8sG//oTLJkU6HDu0pDzKTd/DgnvLrf+NvAScnvSDUY0go9YQBBpew1llowgGwPhV+z0bb6NUIX5nLTiB4kba+4cSGWg9Rc8jpB9ND9Ud4zQU/tKsBlkbsLNcaetQStO9YtjZB+aXSynf0J3lqjWEOeIZdj3j6Gcctf8QK/1oIfpYtLXmmM29ADPj9GyHQSyFkXGfNlziSaYmOTGHXEW5qeYGz/uJOWvmgyWOhbxw7XpMP6UyrEyYIVtMSXyIHFSR26OPGsmxyMjPT6pHp4yP+kJSGb/sTLzVj4E5ekvcjbQtXh7QzA5gnAHSQ2dkhzG6H0MLHDx0q8y+8WnZgk33xzPVy36G7yrFHuIXu330pbJfu//ZQgH7aQrfbybTV+5Te1EkdadD2gaeydei2wf+hkSEvnEVtUBCbgD06SNqpMFctPYI6f/SPw4HxkSe9GL2PGX6sAmGesZQ49BclIE5XJp5tNOx50MNR2DxDb+G8pfCmBOmX9KoRKl07APDS68pm19wJrEjIYKnd2WD96W7NSAT1h0DEjwW5MGTVRDZtfiGsiJVP89Ft5vX2sBrOX5AKBCjD+zMsx9mcPWh29gqT1yfLLuxXXj7k2h0X4Xr669AwNhUY/vTZM+W1E2+Wce4ldfJiFPV5G8PgfpamKAhCONOSl8AD1Dn88SZ4zJf9B46QD8J1nV5oA+0ENG30Hnv9/R/8uJw5ezEqwfV+4qt2KGPELJ+4AWcuhpV5mCemUuvVkJZpY9C/ly1UfayhkoZJY/HlPxpqZXZpnLO9MnzscYa5Z1kSc/fdDzBp8XD5ATAtcpLGAMN04x+781h56lunyp/9+Ze4cIl7RcHNgbB7Hd3Ss8IyDZe+wJHxSxrbwGSiVYa7a73S0gYGXuDj09p2sTDE69Sf9RgaobYthLar+YMZxYq4zp72k1ZbY9CbBmxv4llvS+yo6GMJUTRsvCsfgTcLnkNXsRx/fOkULF12HOSpaLIcQVRI9cijwgo8pnE9nmHdrOfaoMMKOxFxws5GC15DEK91a+s1O/5EmCVJZeLxGiUDbywBIc4G+UYA75A01kcGVJZDKl0VyTUfYtuXBXz+1ZmvMJp3R2BGnAiOobX7qR3WubXRdr2IhrOduutHoZDfpGPNVTowRxBJq11yirjjR+8sH/vkJ8rRmZ1l+qWr5dL/XdybBml6Xfd9d6a7Z7pn6dn3FYOVBAmRgMxFEkWmHIssJXaVo1J5SapcJdsfUsmHfMuHfEpVquSKKq6KXa44URQnsRZalsRoo8VNIq2FgEAQIAEC4GCfAWbfetae7ume/H7/89x+3xkOCLhkle7M289yt3POPffcc8899z43traz88tt8+5DbS227hsXOPBiFud4bGx+phRX4DoFiP7joK6G59RUwauw41XeufikXHAmKAxON+PPWaAHL29tR01M9wrirg1OO7GCU/9Rdyct0X/jd8fIL07OKoy3nRV2wqAdL6eDXyEv/dc4348Hy18J4/crL2m3SZhoE6uTbiTXz0l/sRvZM2tpNn4vtRgqTGFnsXnpTVMYPvV9y15bT5Gl8bv2YEe+A4ixin1fAHu1OznCD+8Yhuc5Zlon4ai8TEG2b9zG5xI38rk8UMUu51Ey03ZyRt2bjE6TazwunQ9rY3g9+trr7RwHmu7kNAx9vrayfah/kc1N6MK1gG/WpSvnMeHjxc6S/L49+yiTEYQVK/cTuq/wNp1CgzCV8hlHDgZge9T3jz4feMvex0dPLg/ftQAFO3lX9xUYNtKGCT4JyC8HHKKW22hraMw1HDSAt6BSBNzBCVpKD7/0dmsB5mJTd996E0EIzApC18vPoNWtydfVHm3b2eJ2GQHotMo9rGsRar/1B19MO0jT8tmbabNtf/vABw9w4OW19vLJs5TyBnFO0TbxM900aabx9cMmte4Uy8cIY0br1TDhBhylJ7Coz02/BmMyPcZ2sH7NNkZhDmBwNXiNp//CiDhme8JvVmWpYWH1TDuFsD9+8ZWGEanN7PxYOzy9uV1mD/PtNZtR5iiMFbt5Osll8ee3AYFHicCjuKRjYTedl924NrRlhVMIJUOXjYErHQy6xZNYnzsFOrnxQAZFtFX9zPTH88wl03lyt0vwJfGqPPPhv9aW/Gwj5+LBF4cmsRMf2cHqNbjx4e6pyUttagMD1PW32zncICmtbeann3VBLNRZ2gLyoqqtG+E39gwEK8E4f77D0zP5LWPjDsoHDb4y0CY+uAmH6M0Ibw324s0UOoOL3oGb4ntnOy2cuNhOfu6n2vyP/RjHLB1g2g6Ot521YZqZ4DQT8FlYPMPiBWYO6LCIguA//R1vQkvX7v0Cn3EZJJS4AsbFmYmCWEGkENIfT4nsB841ESEe4VcEF07mukKFOGYkhH9hbvu8/zwAVW3tKgiypRbTO7xL+26c1KUM7BWu1JvTnuUD6O9iYskCZERkvsoWpdmkCGj7TmSKWrHvHRis3noDRYE0uY6ClMh+Y1JiRjsZEiqJg6+A8lN6cwHgEmQ67srkjjw6Ezo+Gl9UGmq561JliDSNlnKrySWKvJzysVetY7ncovzY95E9h9ktwceg2UvoCOy0bB1+dSbwaOo106jYGFzffOutdvTVN3Pqx749B4F3Mg7ElqX24ah1nempCxMebX8BbprkZBK3ruzlmwbiIxwhDZTUBUObl1MHtTin/I899lj7G//p3wj8K4Qmhz5oZOC/+SlBZAhM9JlGOfaTRo1B2nmvGsq3XPWQLzMAtdHK+uNpc9OOVye5qL36zhUupmP4Ly3yrYb9rMLB0fQ0HEKRmwrpLHBAn//25/7rfKPE9lOQWn6MwTIBeNgGHte0ChUksEB0R+0wG9M9nZJNk3e8l8nVxG67M4TBxkEjmh1pko53ou+92mu1K2XDeKJ5HR/Ht4690b76p19rzxx7sX32Rz7Tfuazf48BhjaVYjC4E0ELuUUHqqUZBCB086d5gdlZvikCpsFB3EJwnrttz/ozJcoAKu3RIMm7ChpLezerK+OmyLsG4UFOfpRjWZnqqz2g9bMB/sypd9orL73QXnvxpUE7lp/YgnWRTxjO720//bOfaQ8/9BgnpWxG+1IYgC/1KpTU7Eo3pVzpjaqUfcK2O7+sgHI1SKtRAKJiH9pCLb/6n7snIpsH3hql904xFVHVDlDPlkMfbDNbdrWTx99pN/Sx1AmfvbPXrtxsc3x1T01Kf84FeOomfUZY3Nu8KI8wkKVOgRCuARZrsV/oh5dppYsH0pNZndNphaF45GADYOjOyncUMJRhutju0GAncRPT3j7BoK+2qC3b78pIL/nV6a71LrKwsoxXhau/DqaCJyHlT+lum8vjspDUDP/Bewbv5QvlTTTL9Z4UAcIKAYlshxJRmVVztBWaIYWQ2eAovhb/GDU7p3ROscwLjCGY1Q5Jk378TwmUASgzBMRKYZyAz2KX8zj1W9ifPnTkoZyesMwo4LRpGU3iFsbjGZDX81tN68rclUxfL2IT2LFzTxY1Zpnquq91DY20iBuGXxi7iovJRRZlriDcxWeKKfIkRJ3BdnflCp+bQxs5sO8IwAAXPbXEAfXyb4nFgq2b97WHHnyU9DsYBR2aFPDQxB80i8Af8JEJbJii2NABbJR0riTmPkWkw9r1XIGKrx2ZZHVpYSNZVho001DEAc+3kH7nOayTsz8wId1mRFfqLbJ1aF87fPggICFEUr5MTH2Eor33dnOFuAkSZWzgtWetjmNb4WSa3v5wV/AtXhjxRAzd1OFxQ3HEpm5HX4N+Wzs2rWkPfOLR9vhHPtH+ze/+Snv+5Zfa1oktbXY1Z8nJ7EzvO385nV522xvtUnuKXTTRpkf5dgZpDfxJLzz8g/XgvaG9iO5lFXuRDzSdzqZjkV+lWrEq90kkWjfCCkigAk7Yeb3cLv7kufbMt59qX/nyF9sNTj+Zh96HHn60/e2f+TvtkYc+jNYxCy9KN4QnmWglaMogRCmBK1Nw4JNPoHMJLaJzYy1D4NYnOIoSxt6PxQ9NWLFUZlv683QXtftFfCtxgaNjT7VXT1xor5041S6B4G76g99jeemFk+3od55pm//apxBuuiLJn5RBHe6Y8D5KQe4VYKFOIDDORQi/huZszD4fLUo4gEgh6SAo3T0d3PSQsq4dh7GrwkeMdUu5gtnFgzZURuYZGHX490NFLpJ5+soCsGqyUrlwETLCKzNMWo086RLgHUyk8V2yKjgCj/kMk0pNAfZnsHN4b5vUHL2YK5H8EZe1GPydoimptft5IofN1cuw+mpCyjODvyH0zlNXOuUQJbEUvGpZfiR7I8z0wQ89TF1sQ8JHMKMP2DGjpypWexhJr7AidZXTiU/xhfhrCMcDR45gp+OzcnpzgxcUQZBfbWevnOYI+9OM3DAmeLuP1frBNI0isdRiXKnVH7E3tqOXhJAmNE/buf0QI+d8O4Z/nnnSsB0x8YDwYdeBIWX6jICUIz2VAXZLDeVkzx/r6loYMb6kM0LLgfU7fVIXNpeMaIyAeuG4W2PxlnscmbKyD9g2lSEvQZcb2PUsz2btcPZr2psy7ES++4HfwAu+H7UpuC074lSb2l6G5JWOY/QwzvcmdsvbLHbU3Qd2tt0PbWv/4O/+4/Y7v/8Fjv6B0Xdtb899+3mm2VdjjmA+Bb3IRv4IDAWdIzpPa4Bpmva37E7juiJc0WR6mwlTT5PFF7Sy+M6ROGUSv4Bmcp2pdGx6lK75srouNIG3NINs376DhaGD7a9/9j9v2/bsar/yi/9bu+/AwfaP+Gznfq5nz91ozx19rV2ew4ar+gmeUsGG9vsVBu20cUni3jYPvImRr3Jzx59oNndH2EakVVOWogbxkN7+n6RNsHSAE4JWMG4g/M5da3ML19rM7k3tww8eYGZ0tf3Z03/aLpB3J6v5bt5PmdBSQaJmlUUhGFTBNg5cb0u/wdz7iP00i4jyhwMGPGx/kleMM48hMFra8JyyeGudCj3LM03N9jwqvs7d1OSjJ8Atvizn4h5KIGmshyGJegIvsHo+JYyWQXZcrii3Uld4MKCEH9UIJwWQ2NiWPH3VkMwA4qjakTevU6Y1zJ82ooGJjgJCAWIyjfjk5FehGJ77XqlICxxX1dU0jiN0plwlePza1WVscJ5A8jhTRx2Lj594C8mOaZXVGqevixD1OjYYNTuFrWfUbeKAgK3YxLayoKFAMO7CpXPtPC4pXhetl7omKEcwFGCFmfVDUJ6dim2Z3QLudlZxGOAlZRFaAc9RPWfnciiqjSuOlleFJZMZ7whOhw0ms4MpMEKl3BpXNChhV3WXodxOUTBktcy6SO0qrSfg0vxccTLF7WD37i3YBV14mWsXzqP1YfTSzw0QCdo3CtYIJ6rM1bL8DXj4rt+nvrwngSD0NGSoMtS0HDD4B+3s6P68zz/x5L/2nXl2fSy/frvtP7W7Xb9yuO3/0J72n33mb7Ubp3BJgNaXgfnV105wqADfwVi8insFozg2OcuxY3f6svW23cgWBWAi2M5SzyBd+n1pgPW86rb+kwx80k5e45/lZt+p2hfvPQfOLXZqYbcRjrfWeuYci0yvn2vPv/h6+/RPfpRThx9v1//e3297d+5te/cfbC8fPde+9a3n+PDVHIIj7r6URYvQsJPUU5QVdgQx7eUbD4FwsJMd1Mg6XxC1EqawT08xk1gJw624qZXeK/g5UctSyMpXLm6spZ22H97cHv7IQ+0AdH2aLWa/+gs/3/Z/5GPwMGmBVS3PY9Q95knlwdN+evvL7+PBZxUj+5sf6VZwGOSFIMe9WJpNPzvTp4yhUXpbmt731qPccVuZZRVPkQp4iOKHYoPtVTPAWuyBCkTlizs0IlilNXQVprVM18+zlc4yjKtQ8Ae+4Y0XnydVK/2IT16EbWACgJBxAI3KC0jjteP4NfMNCCQPx4yxMoIu7N5xr7IG5EZA+HogBPBQPL+SxM79VUWvccChq0CPf+RxprML7Ytf+t1Yg6c9ATjdE+0SweYILNHsdJevcPAgqu5WfHUWEMAXOZfszFk0PtxWtCRPTTNiswsgjr5hRuod7E1yqJ3bEUU1ff0MowyNYNrAyl+7ssHpjj5BW3eubo8+ev/QcJ02Nrxqui1s3qGlvZPhKcK3VIYK7vTJB0dX4ysNbTg0Ng2nzx2R1dBlv9Oet8hQ7sKFp1Jr52ItgZN6aWRGwkvn5yOMl+k0mr/d5hOVH8rZGcXTyuoCVgHKDi/tCz6njnBNtAnbzZ+jsO3kSOtU16mGo2xWXk0Dr3jvfkvbI7zjPf9usZB0m/MBz7xyun33D1/IgpMr7Rt30oYq4Ojrnr03vXWm/eTnPtVmOOJb2xJQgUN1AJlUMbWEPWORX6gLKuVeU3TE+zf0JEf4IkiSUv9HkfF9mtTkhAghJIjlyuPOixyMYgNlseo6ixcXT2LrZQr79a99s/3UT328feyTP0HaqfbG8YvtqSefwZn7ejuwewcf5+YkHoSm03otAW7tqnMDofkEqol1+F54Urdv7gphjnu8t7GG0HeM1GN/j6ZPm2njnHQxT35GcG3atbVtPbI3GtALaHb/6p/9Qlt7Hwt+zJZcm9EXTi1LnlBz8l7Fo5SWXqOsUALEqwLKPte1pxJoHY7KYxpnfbHtwxNqf56baD6RT1va8QkuyOVAXRb2vDdYPxDlKh/ZxvVTDmlfZSBMO5VmquyaxqxWPDIQMSXVH2E0bjxgw2Slh4P2JIIjtAwOePZNqpaIMHk6LXN4HH13syo4z6hwhUMPFziN1AJTJGnqdNkq3neCEJLRuQpP3tBhaqM59fDontfpCc784oSQ3dv2tvsfuT+d+clvfZPz01bhd8fHoKnPMV+WWIaBXVEKEU0JIW4h6E6fPh8nZDU0z7rzlF2da2t3Ap26KB7GU+4VAXlPp5jiPLEJVpfOnDkXIypmUuqCHmgopSGwM4NOsWU7x6DjCrN2xo6lgKuQxu8PRY2BJtCAuvifDuVdfL3tfcNP+sl0Pqdt+GMHgVd4hqZoO9plbrN6SUsM72QOVqelP3De5ISPK+dQPyHohlm3yW2DrutoN2wjqzhPDJunNYtztZXACj/Ptl9e+k7B4OBSQNv2wh6AuHiopUJCjSIDYhCzYziCiBPp6fz2E2cHrMm01bjzHPmxJ9oMq/nf+NKftd1ndsDoB0pAQscJFozWMw3bwYru1FrKZoBagy1VWNK5eqej45Stz0FSwecPeKh2wmkrV9thpS3AaQK7Vg5hFQXK6XFOD/UDhCDBR6xCcK5LCn0WSl599XR7+tk329y5ORYuztbBpUy5X37x7XaRweXBB3e3j3/sMabr8AaLSJSQsopmg5BDEIWmNKbNLb296EajRmkO43sQJs8CCK8mxraR1ulFuQ8OvcHIrmanAJ+Ej90ZYt+aB85zJ95szz31Z+23/89/3S6yx3rbrg9lAVA4nPEswHMuVKgXOsjEzgg9FW7yifVYd786+BqUDytpAF3IVuhKeoWctnUP5biFSxDqc1C0rIQBZdcKvNWTQTOS8ZpoFJBXmcFNw9+TOEnfZD67iEY8jycGc9xqxzTgEuar2ZSRj61TT2isgIWmRd+qcqVuHidVU506CnTm5fR1p0A2jQb0KQqQ4GsYtffu4EPNIHISDerKFY5ftqNa5YDLqOl4C+FDiBXCQRzm3FnFg0wSRKOkitEiDH8fRxwdxNh+e3Kp/fmzT7WTJ063rdu3sCePPb0pw6poDOGCOL0uGdkvrq1G61sjsxKE37rzD/CiQZqdTDaQ2tIknWaaRQ33DztSrEOYX7qpi4k2PDLZGjCTPmN2rmW2ZL1z8pX2wveuMNph92CFy5GpMwKpzVD1Wnd+vJFZLQuIo9EKATR1gcLu0EfR7rtnWo3zISotGG1TGChHFd+2cGX8xg2M+zib/viPfzoO2As3aKv1HPe0dQM4TbZjr77Rzp28xKABvjIeocObURPjug7X8Ysa6JkFEtI5zkoCO6hpRUF5lhsJ7zQKGgcnCWowjagpJEnMAB3Yt23f3T780U8wkN3H+YHPtXdOn2oH9h+AD5giUf4tVoXpee36HMfmb1zdnnv56XbhzHlMLIOmDe7OMhRIBZPtUYdeehy8beyWQsGQF8aDK+fSt9qi2qTHBx3yWlo0U5B0sLyFvevhhw63+z74I+0En3E8j0P3OQbTm6zMzi9OtNMncJYFtiPYxmbRTI/yWcvjR1+GBxmYoKdM5uBoJ5t0RLcvSSuZT37i31raXpve3UHoFb7Fu+jp9BG16ZptSc8SQOZTKMX0IC+Zh3d6AGj6uXD2XHv1u99ux7//bJvhG7pL6/aioNyAz3U50xUE/oWmHsnlaeBSwbwqCBm8hvKtr9cpTNKy86vvqbHQEqtBSHrqiZ949TOmntzzA2HAOzMY8qjJGSwuZOJRJcY5jB8s18uB84OA2YNHsc8zQ9CU5gLZFEpKnZMHHPKb/YZ2HEmHO2sX5klVUDvCJCOxyK5yiqowBwCJL7GFZjdfZl/PcdAnTr6Tb9hadjQG4jpD3Vn86MlyJVTcHujE8dPhOn8NGxzMc9+Rw23fbk6ipXO+wAre913F4/iafDhIShSnB47Aw7N0S0fgLo3Bc1fJe+MUBKBPY5qejcNpQFeC9Idbi0vOLCtYLq+rXqvhxhOc0dLpy2rtM260Rzho15mbu9R+4zd/GZV9Xb7w9faxV9tlj6b7DwpqL/gNtt3tsUf3B3aN+pdZYbahZV13g1RHtP7qmroDKLhdxFmPScFvAjz40MMIDkZGhPFtpoZLdKq1HBF19vS59rUvfo3v5iK80PJuMr1dYBHj+lVsMHPz7dKZa+0U/nZ8RgZY1GbtatpgbXjtuKf5GfQuM9DYOYMPpzBD9cxyOHPnmL8ZcGKYBwAAPY5JREFUOG7djraJgWM9nX8Wxrx0Ya79zBM/2+5/EFcJzmzbxBFFCxHU+mvBykzdnT0oYJdZzZ1iR8wb1060f/H9P2wPTm9tl/GdO4+snr8ObHQkejg/+VHuBjaf9cFbjSec76HfSrDBb3Hunc7dSuvOQyYQVQaLaB9MARl5MeZPtH0Y9G++faP99GfOtX/44MPsYGGWsOoiVXuqDnAAwzUOF53iIIENaHZnzp9ov/1rv9wWvvn9tmYLp3qcw+/tCl/8O8uvXSTP92lNqubnUExNuffag2D2YJpOcdNsps/N4EsanpB3wbcLdY9L0hfuJjYuHcJ81p1mgVNPFvAXvcw3MK4zoJ988hvtecp6ZM+DbcO+vQgIBjlXPRF0DmZe7S/CYX9S/vjcw3hf6u+7ICxzl5Sp2YPCS/u5g+E0fHoNOO4OygxlgbA7BVbJMtR77XnCRHOrHKq1YWtVmApnzuJD8TKPrk4OrJqzzBsELChNjawBFt/763AbzfH6IokNAO0rc26vILyskyZUEPXdu3dzHPZWVkNPt7dPngiz6vX/w4KV9J+2P5GUQBtn2KuKFL58+Wo7vO9gBN0MPnV+C+KNY6+1p595qm3Zxlfvke41igCGQo8QwCnX0dF3Pjs6qzUqIMKVA1BqbaZRg3VaIx6OPI6aO9hZIjwKE7Umz8yb1lmSI5uktvYv6bGWlYBLDACueLbbs+2zP/XT7fHHPwJZmIbSYBYqE3b4hqqL6KlRoGu0z/Yj7VAw3Dp2g+jp/m9//dfb00/9OZ0H9xkEhqq9cOmjp8izIKdtJWEYKJhO2NjT+B1O0EH9HsUthJ2+hI5wauQLtNvGDZvbE3/tI3WAqFqcthDxAn8HBbU6baL1UWXaubeVMFOthvCy1VF/tDWgsQ1hQOtx0Jmkfs8KVANh9QF1hHeYK2RS/av8MdNs61dthPkVwufbVbS4nZgEFHYekWU7iqXBbrMIs68Gtp/dc1/73F//m6TjC1m3EAPY6GSBsiI4aHEv2LSfvHrTUZ2roT6zKUoMAEyBdHvxPqM++cSnBCUdT94xU+AgHXSfQBA+cmgz9lx8O3FfWkarm97gTiQGRMwDOr2jF8X0ARrtsR//sbb+xz8JLmgrAJXpqsCByy20AqdWvvM7FhOkqamjfYdKhxD+kfRky4dtBlzkTekbPie5OQrLntPZDh0bOjjYLYGbQ7uuMmrPHgZgP13Hd4bfOPZ2+43/79+hUYOxJAAm6WjdEQrSZQipz3YlGO+zMiJ8rzQa3udmgKj3gT5bTP+jDvPeO1S98rNlm2yVGrDwQCf9UG8ugI+n8NCGCunyoKAf0LcVeCpq3mdnh9Xw61S1nA6T1w4Hi0fY0DDUayoW8UhSmE57wCJq5LadO/Ft25GVkNffejMMX8QaFWJh9Ruh1isUIePcDL8R52H9dRzlH3vk0bZn+x4YDiZbu6qdPHeyff2Pv97WbfAzcHRMGGY8rNQRAoNMCElHBP4wrlc6m8/Cp62hrwKZ1066BAzT2Aw8rtoZRoz/EJYZBl+w4lsXjBaXWPG5eOF8u+/wMlothyQeO8n3D/iyFe4yW1gN3rsbxucfGK8QcRzOH7gfGjEaCYyJvKXT3Wx/9I2vtGeeezqOtmfOn47GeQkNMosIdkM6X00vZDxb0hUrzADg5ZacNaxYvHUcGxOfGNy2eU9bxwrWTQxA59lyt2fXzvbExz/OJ/iY9urICy2lycrCBcIm9iJKtp2MM0gnRZBb6UIgMU07yLhMpdluJx2dtioQTe69e0xdH5iw04Cv750emtZx8TJa5StMsW/eWGw7H2CwoTNG2FYBSQcQDLK30LJ2t//kRz/eDm1/EAGtQKVO9R7TDjDGNMAzNVAR7Rq/QZMoHJKq6ida+OwEnX+ESd4R3tGwAuwkkgrMrtsG4s6dOd3efOkdzAVr+bbLnhzxfwuBLV1Ky1rDsWTb2qc+u8uCSrBBy75oYXstMzqQPIsYigvjYlvyZaCqS+cn6dgXaQtq24cqhd8sPfhieI7vI7yigistuCWKQRx6Ti3A0xzjfoG+9a3v/ks0fL4/u52PFtH+CRQerTE0s67ihXEBYbr+LMXdnRGgeF/8YlnyAnVzq2ASdgWRE4bOW5ZjsH8aXOhSgHkcnf68fuqx3OCMFQ5mJcDvfR2+wfa4ic2ZiV28eBFUV2eh0WPeptlYcGPxGn2+tEXhVY55HQ/CyICsGlpf/ja6uyBop9rAtMQvs19nReoNdjGAVUlfJKuhEM5tPftOwcOvCADgVkrj+xV1v+XgkekPHD7CEv8eZnas0CGAzl08077x5FfaJNt2PKTTFdp4ow8NYVnlLiLT2JwGiCzteI53PY2Yxjae9Ep/Rw6FnhqFBLjBxmMF2zxL625NU2Myv+k9/09B6HTwlVdfag889FDbt39nu+9+jNZHT7Mqh7bCQsgENsaVQF7DOFkHkMfe0YNIsIQw0oayvOpy+9Mnv9h+4X/5efbDPoi9zePhL8SpU2P8NWCDymksp/71sR5tHZ4XxgnGwOyqmridPXW2vXT0e+2zn76v7cJV6BRO1QvsRjmG06mfAEQpi1Y0gAkY/OOhftQiaP25Y2LnoffEnjcIuzjTknbytufeERfRQDlqjtoC0UJpGe6lDQmHeAWQq8p+bu8ie5UP7D3Ydu3YRVu6dZAOiXC0oyqEVmN2mGTk2Ty9q517m6nsO0fR0Ixz9MfWa4+PMK3O5bPtVr/ixf7My7z3sNfiEeMBy3r4ZQYDbSLweFaTomj4B3ih6+0r19upY3z7gqnp3oOb2gMf5vOLE/VxejU84Tl69K329jEWuWQ6NL2s8kKF4gZpYIV2wHrnWBCpBb1dEa1444wYhTufeM+LoG7SewR3zKQU/qQKcaEOtf214L9w+UT7g9/9fPujX/udtvtHP8QxUGxD7G0+XC02gkghDVNIxx56X/a9PEHmHsUVXIannkXeTN9D+TDS/t/T9IzWL//qGWHwOy/u9NL7ImVSmAJNfrVv206amjzJSednzU/ueprHX1d547azawuaZ0rgWaZE6XhYXw+Ty4zU8+xtc3tJHQWEwAJoDZr79u8Lkm+xEV8103+3UJPHidILTYESW4FHT+MuxFHd9CtRuktsxga4b9deTi/hiHWYe4oTTOZZ4Xr2uecQKEjwzXwyTmFqOQVz/jp9jNIhVWmUdBCEmJ3P4Gs7RmxwYjoEXWe0femvY0obQsG3jAa3uJHdGgj0CZjXniXbuNVmBjvTN/79H7aHH/5A+/CHHmcr2QMRjsc4deIC2lP1jKECCUnBQjuqtdfO1TiAU8jnWCpWDf/oG7/f/p9f+6ftR5/4KDahJdxqrmXAuXBxDvw3RZVfwGlUHPU3VONzcUgaLjK9ckp+0wEB2aI2/NU//HL78P0/wvc1PsBBCAvtPJux5xHeF3EulS6e4efhpWkngBROGSAw+8y9uHvtPzGoe+0pjpQ1Wt7GjicDZ9ED1a3eK+QwgyC51MxjoCd9rtTrlNBtgEcOHWoHDu9s01sm0ExfZ/DYxXSX/aFCBKDmZ4cxbkW32rPfPIZNGdjhuUCMTKELUx+rzfCXWaI5gJ9n2U1TR4waxJVdyUFXjUNBDKYSIsEpInxjqZQhjY2jRAZSYOBmmdmGlo1pBucjD+5rn/iJh9v2XRy7xGqhW7Ku0SbuAHn2O8fY8oRQYVVINxSFvMLVXQKFE506Uo44BbUyTsCFiH2tCj2fUn/AKzjcDWIQZDv98FRZE1N/fG9+HY5dNVco1rl+tA9q6obZKfZ+n2mf/z9+qd0+/mp76FMfZTaA36zGDOgqjP5NO/HWsqwsqHhPEDbp7TX2vrRHYhKfDAHQchjywNNSFU7T7EtXDnjuYA2ElaXXY5n2R8fILZg5zrPQIs+JuJd0bZpfJ3xfOPhfZROB7b5xdiOLMFeiFUp3Z5HuzGIEpX7+yX+0aswt4maBhWGbvMAm6gX3szG3l9Zqe54xd2D/Phh1pr355ptssp8L0qaTsiGExAhwQQEAeUa4Oa0cyo7h0tWYCfT0Q3v2s0F/b/xmFFSr0eSW8Hl6+sVvtTdOvtk2Y7dTxaWZC2hBBNAgn5YI3jwz7QbOTA1MrYC1E4AiPXulgQpGpnkcDOBo4IjiNNei5pj/X2U1dpp9tWp17i90MWAGJ1m/iXEJH6zf+o1/E+Hy0EOcSsLiwsGD21i0YA8htAFVgkxg+wx0yDvfF9xejXMhYorjq1Zxcse//uV/FWH3xOMfxVXgAlNTmJVOZCO6tc+TXmY4EOHipfOZEixDb2kg7B7ho4B0s/5aOqMbtTdxoML101fb53/zV9p/9V/+XDtIB11/dgq3CT73w9FZ2iL9VI3i3EMJ4nPFft3c4wPnPkZQSB1OMUUs9PZWBAzcdBy9V5AADlcWdRDCZZ8FPgRJVhS19Q1tIp10HN2I+4C7QdrMfHvp5LPtj5/+Wvs7n/5HdNC0GtM4ptFqSjjqCvMuDnb9ic88ka2EiDn4spjYr5lFO1ILBVBtbvLCNbYbmk4UtMvWD3zpgOnavLetagFI2y1lmjhYFv9mys6bGdrED2Dv27WlPXx4X9uEbfX1V17mpBEOS0AY7oMPJlYzUIK7QQHiVLVreNE8fSYumqNwAkW23wGjfDuLfdqdI8akM0pXaKDj8218Ks0bAUZfsFyFeJk3jKlnbiqomhIKi3q1Ds+DixyM8YWv/FbbOHG67fgUgyH8fpsBcZnvQ8QHj6IcUMwt6WNC4sa2hpISCzwRyqTz2XSpiWeh6EEcEoZBcRVtscgHkmbyNTXkgTiSIDUNSaW1fK956wYfZ9+5lTWC2W0M1mdZ3PJkY23N4uwAZttBF/6p2V1hIcRDYmdRnq5euoZNnJVcvDMchNLu1GR98mkgB0dlBugkTGrk9XiWOuEAJuF5B9tq9jKVPY0d4yy7FWRktQo7RNlJQDP3hYH3ApemRSCsY04usRYRYJuYox/edzhHOdloagzO1f0W6isc3/TSd17Ev40VWZggxO6QFXz56/seUk+YIOQHERlAcgID6RQOplG46ePjlFZCZNrOCpLUiA2PtOZ1T6yLHl0Vv8gpK5uZHj7znT/HH+hq+9zn/mb70KOPtS2bt+HyoW+bnZu8NFgP3ul4K306ZW0g07glTmb60pe+3H7hn/6PTQE6xwkrfh+XsQC4GI2AX/hU2f0WsKvAqvviUOYGOhU48R/6sWrMyJRN9Vcu5Yj353GN+N9/6Z+3v/23/ov2AHuPD2/aQzzTMwRkmBoAwzgwkZ2H9ode1uv4yTNwKwA0I2T0H3DjkVB4pg2ipoiZtFf4wFjMEHLDgzDCIckRYzt0Mp/nD85dPd1effmF9tvf+Hzb4qk3xJX2aHYQI9cip5uwQ6499Mkj7cjBrcDjnJZ4y+GXe3U54ChNz3yDAE4ZjupOf4nn3xK2UoUIKUgnbNAweXkemkocxn8O+qJkc169dKX93pefZC/tV9p//z/8dxy9tQtTjALP3RUVFGYe6ST89oChFyCoKMAVZBLSbamu4qS8/p1eE6zcILEVBDy7mGN6hZ3JFH6W04Mt0J+rvoq07eTtc+dOt6/9X/+uvfL8022G7/AqFFSAllnZXs7+XhYEaeMVW14veAClP/a+5dWfQbq+V5BnTa+5LO5WNtMQLMY4FyiM9+Rjn7cyoJy/ytmJ/oMOnSz2DXko2iDpPLfzPDM07adqevJQeCMZCkar6jLDsv314NIs2kOgiLDbtmUr04/DzKmvYrd7M4SVkDLYiu8VhVtgdULfUwbxTg/1fBa4NRzVdODgEfaf4miK1LbhdCB2e8gUXxZ/46032h8/+Sdtyw4OVkSijwAbASeQHfAOsM+97lEeGxOhR4eW2MYr+ITD6xRahv524/lKm4Sxife9hO1EncPHcBbCvnj0O+07Lz7TPvmxT7cj9z8YIq9lrqXgVsUPpANBIzgGIMv+BUMh0TzJ5bXXX2n/5Of/J6ZGO8EV9xCPvyazwk7Gs9EUbqrpapie5nz69JnAZGe1rnQbOF/BvIpjqzzrzY/uzHFs0abZzRxh/3r7X//5/9w+wjaoD/Ldgk2zrIYygqp5OVra5nZ4r9U/EXDiAP8qFON9T2R8yAAuUxglMmFlhAzjWpbvO8Y8518S2mDpEr4zOBRdOH+hHX3llfba20c59eIq31d9hPKHqRUSxn+0HO/YMrhqrr2JD+ZbZ+oYLgmVshRodgRwCK8h2BzIFA7rUfMUcca7WyQdhnQNOrn0mViFMfyZaSI08Sgqy7btwxfyAL8FXGpcrDt58mR79tnn26//6jfbEz9xqD311JN8x1Xto3g9DE3+CJygikZEiZH/vPd/jrSi9ghF6wrdcPDRHqsQNw11GuRf29ifbyLseKcjbk7z5p0hqStL6sjujlTGYzUycH+7/fE3WABkr7JeCpPMXnTYX/b0mQg8sxYvJU8VXTAPZUsTg/2i97P+rid/t2v4GRxduPDbFjEd0FbFE0Ub723Lcosr+7mHCIhgr2e8Xt/ZZ52++skFF/g28e0WXcqsz2Aay5Wswt2Vn0QOfyYXOTusG+89M+4QG6OVyq+/8TrOlhALIMychYEBGEfnLuysxFFFWxlmeeDlVJGtmzN9nWUbmsgusfqWtsC+sZaj0k+cOdG++vWvsQd2YwmqgRGEKRoIiS3X392hv/faCeK1iFqNbpzTt7ikpJybua9DBD0yZ01WXS1bYklICW+QSPzn4z2XEZIYSPHZ+/Zzf9Z+6f/+xbZz54Z2cN9DEU7W6UhjvgVsf6fPndH/9V3D/Q8fQaDeanPXsANCKVHuWqK0jKCGdnMY99fv3dR2YNx3j6BTp/JtQkBqUjAtMM/jHyhzaC7wXD/9CddiN3nu+W+3F777PFNIaI82OgWz24Zq3NoS5Q2fXbhxhFUzPfba2zgoM9rip/fKhZPApwaiEVi/O9nnLx7WH9zfjuze2+aYMl7HJSnlhvdtR9sdzwAGyRfffK79y3/yz9ruTx5sc+wkucF2Q4w3ytcCRXC81//RJlNOsCCY+2pCHt5P2EgiDIXJXILmTh/EzW3t3gfaj3xiFzDMtX/4c/8NaU+9n4LfM82hoVYNOK5DegKf1+q23AxBqPbye4QfS3zwOGaq7RwSgZtPCXdXzl35hQwoE55nucQsYeYDH2r7d25vR8+cwgSCKYGMOW4MjRnxVf0mGt7Qr7l34OttYv+RJ9PvKd8+7buksLHuCsb5s094jfJBPhk0iw6DKalYiXL4bz93u6L9x5OPd6A5b2Yv+xzms2whI3Ev0+qER4VE04/vNUHNsfVvG+5y6bPERx6YryrKs3lN3wNHXDFFgOldkT247wB2tzXtzTdwd2Dp15FSG5QFGazUTdBx5SHOqalnzatS2pm3b9yCS8SeTGNdGXXfqPJWSa5W4AkrF/nq+Ff+/Zfa2k2MxEG47FQdoPdzjQwHJBERJq/+ywbtAXEbSyFicIojsRRsvndUcDRRqxK38REiCzfgNc/vBoJ6GvubGtcTP/p4hIaHkJrPcrSVqKVZz36+6K7G5HPKo9w6I7AYQO1tQc9z60OTsaN6+khvDPFwIJFaLrt7WocfKnb6K/nLVUe7CtNzhPkERygt4Yd3g2krlOXIKz7qg21vK9vKpvFI9yBGSoypwpE2O0ZCJ6fvrIbqDiDTsMixi6mae5i933aNgzmZcilkxcNfGJ/2Q++jHH+2q1MN+cLW4F3uwSkUrz+JwVCnUuHe3as47b5z6UQ7sO4gwp6y1VaBkQJwAveDzJcYOI639R/d2vZu5HQV8LzNFHdpk3BQTgr3Dz80FuninywacB8bndP9fk8a+QLOBVZ/6mA+c3WXhvTIj1d5T32DFIVE0dDnLp+L9vvwow9A0wdJ5wyC1JS1mi1w1uCU1Sm82l0dYxWOByCFRXVANTY1PZ+zk4AKpKv8VwJieCbegXBKfqAiy59hkW+aD6h7OogoZ8vdALtCkYKoWz5j4Ke93Pp5/uLZLKp4Urfvb+mzyW/JgZJCxnleOEISakugrMDle4Mke79hKNv8FDPQlxveyw8VpLtgY9+mHx5/6zjmotm2Df/Y07ho+a0a26XKGF19p6lHLU83sVVsQyxhpy+iGvYYoOO3Q1mWN+lq1Ax2rl342+kicvLEiXYMFxQdGW0IGSYGYjJZoe4Rdjo7vZUpoTfS8Q/uOdi2b9oZfzJ3NthhrDMuISDm8TLaAZ/59jPE3cbgPpOzszy2W0D4k/LfD11d9OgEMb3CwvwGGdsOKdx2aOF0NJTWMbBzr+bnQkbOAAQHCWgZNoBTu1WsbHpiKo8849/DlDjNxQsdh02vkLPDmsepaz9M0RUqHZyd1nqF/4BHNldACF/BqV3P7W0FMyM3GrJlahKwDOGbZQnepfd4mAO39HYeZFkWZp12Mt97oOkSe1EnJhCs7ASIeYG2VVBoL9TXSW1RQSOp1uOFP8/7S2ydcgC4fu1G/CM9gxAMYn7QpyqCTxz98b4Lu5rWigudVudqYSKkLXNnDEIZwZzv8gL6Ro7XX8IXzBU1p9E5/48xaT0HP8zjMvTV3/rN9oUvf6E9svuhNnf2LLNRZg98CEhbpOYQT7cGcSqBJxEKFJFa/V6sAkq8ADPvjcvqqPSO4IMHwgdead+B9oIqLxkUSUvylgUJH1qn01CFw00085yE7SIF/L8Ke9jqVXV4LmpB9QneZ/ZDSZHO8hG3CjqFolyQ/07nwzvgQPn2r2y1QtjiK5BFQwdvhQHQcuDoZXRR9klj26UENPMSfOYNSiAtD9hf5SH55woeCkseHcXa9wLwOzu4pckAkwqYkQ+oaIcc/IBppGyigBd4pSOpeAhlBvpIo/cK5jGvNE2/pIDQl/aoPttLUK4AnQMHGtSrmDwOPXCo3X/4fnxfjyWt/ay3jYSrQcvZm59WuI6bFIuNKCTXsnpLnxdYCVTN2StKGeFf4JrczVnSHgK6DmKeOoNf12uvtAUOknQvTHZTwCxOh6boLI6Udt4Zpkt26HmmGru27mj3Hzqc/DfpXLdYEpcvHZmymVlPTk7K1bf/xe9/vx07frxt4TSH6yxSuGF/tSO3cAKtQPGH97LHKITwxIv8yj/g0B4TosLtE+xLkxFkHPfY5fwuytHeNr6n0vQzqPmz6zbBCGhIMIadJcwCEy7KRNgUp7i/hc0jzD5d7i0RkE4TaQhhlbmELSM2jVACEHwi8GFq3sX+BqyugrsMbl1qXzRbdXqYbj1fYVvPDhSFzezMxjDfJdT1aerZjpZ3GWZW68uqJmXniiaZQJzH+9i5nVKvuskCE0ftT7sXFTcYDdZT0EY7+W0dOYHBgcC28lDUm7cu46/ljga5hF0pHK1vG7CSRQanQKzs0XZACz1c6aODGj8E+SB7GGlFaWEoxh46s4sGi3ADxS8LJzN66X7L9ub9NI7F51edav/2d//f9vlf+xft4Af2M+VlQQfapi3xe7TNHFgzANPmcox8YNvUYNwFQHU2NaSCpWt00socQ3+gjFFHEuIe1CZIw58IdK7VURBoJIkg5Co8qyDoqlV8NCo8SPvKa8wK5ElDBB1k8lohBQd2hZqHPkBK4GewGOCVN/IOmroivXYoe5F2W8+3Y5dVMuhZq9lNM6GrFX3S71KYZ4nZg2YBMbxJ+quYA24ykC0wIiLbYp8UF/f7ekDBIszSWzGasS8dhOEniqCskcaUZpV49widjtIs/VOhL9zIDcuRb6R8uc4Qx78IXMpT6DrwTbJLx4/zvPPOOyheu9rhw4ez1fIMZiKDCpY0p7j0KYW7M6nVzBgt/Sa8qj9o9TXKhbeykEH6u+GbnGWlww/AnMNe9OLLL+KxrJHTU4JpEP6Vqk5lEMDprtMj9+Mtsa/wQQz5e7bvTAd0FwPNxD/xVHiRG2K78uex4G4b++73XmDnxjamYRhbSGgDF3uYyVwSgTfe3CMEkYzAJOC/hFUYG7xKTomTc7IQFk4JJI4uFDa2WoILJJaj5jmB4JOQamKLvvc4cTUg7u3INa3j5Fs+a+e3IzyI9DJAaws0mMYOZ2OrbaWTAIXPvaMkjWUiKA15b+cIY2AKoMEdyTUNrGdxR9hlArVtp+Auxc9unI02usz+2ZyVJ/wwf+qxfmGh6TW2eyCodPH7GyRgxZyVLOrXsXOavaLaJNXSFtCa5jhKSzci8zooeBVnGTKLCk6B8lPYOcVVwyuBl/a1bn7RWmkPcQM0QtGAUmD0Ynjf3nIgJdxEAyEpNFAQXWpf/9Pfad968vfaATbk38SmfBP+KlrSMdkovo4ZiHRW40wnQdDZbtbHa1q9Bh5hMXitn513hcOMSbzwFZz12DuFT9a7kj/PvKOeSflOhpXLaLvkCRtyPzx3DSTxpgOOkKOXE7ikrvwwVs8AL8kSisZOQ2ln3Ld087iA5/skg9haF2VYpFGhkIiTcUuhfaBJlUlb44p1hZ0LazG/3IS39c/TDKJvrUJOfojGTL0GL6WJggvP0rpeduiT7D3/hG7SONltA7JQRISP9wyyeR4jvrRSGKqpXWWh9Ppb19v+vfvziQKdjD0o4Cq8m0MCKNBBRdrfghd1J1NeaEP3+Hnxp8enXgfDriEKV29jlI2J+Nkdfe0oS8ScPDvDFALmlolFPx8sVmLzz6mvU6wNOpI+/AjuG3igI+gUImQgtcIKBPwHovrtWd7xk2+1p771LIZ4Vo04FiYNMxBGHpKhpEdsFiCgxhSq8Xc8WG6aZGiHjPgwhUSo9AhoOrA/kQwsXExHxnSSUXnFjBnRfJnWqU6bGNJr5BeuPgWWuB4FLzEtX+GvllfZFRKmtqFL4CWCP75W2wvY/DFeOxoIZyqrYJteiyP0eo8aQtgxAPXpsnUrtLWxTd2YxM52KQwpDMEZQpsngosypZ27RhyoFOQ3tO6n/mKqRbQ/FExGUE6Lhpl27NgRRlOAKrTtCNmXCUPZrtYTrYBO0h2LS9AUng6EpcbUsziLX2ig9kKHVDgJxNIyBnSC3+7QGXl+4UL7kye/EGF36IH7+WD6HLhoCrGukUCYg+ecgaj1ZcCSkhKTqm1jadXr7O/rudrGOu8I4dW0Bq+BdSzSjgH4/OAZbxJq4Kai1Ncd3rs210uwRHnEMvKTNkMIPNzL60hO77iH00grDr0P5D31qt16QOe0vomkv8QAtp7dSh6Z5uCk9p3BD9x18ah8NahfpF2Xme1kdZYYfRvViJxs5QBZy3aGYL1dBRWM0HUES6cQRbyvUDhW23caWGR/b/9O+wyl9TReTZOpOtfX33gttmht2B6s4Q4nNXx50asD3wI+s/Y/Bxmn8MULFDwGtHzaQx8gJ68yGrx49MUYlGdwDvUoIfphmNT21hi6Fg1EYnj+vB7zOhA7LVLLsyMbqsGqAoWdxHT11qOkvvn0k23zFs7/j+pJGgq2C9SoUmnNUh1DOQABeA6hSLtCmAEb3/sugYRpKB58Z8cNI5Im/xxJEYrGKTgM5jfYgR21HS2tW+O3thOdYGU4Q/DivcvgG1l1tsMpoDpsprHsEgaUZX6FBL8Op0LVTimcwmRDRFOB6fzuhnEpx7KEA4Z2j6HC1cWWpBd+BLmjVq9bYWt9nXaaHbw33nQyglN2j9RZj6YIyzOd9Cima+0kB0FsQoj6zi13M3j/3+CkjXxYGpo41XKKoDaYaZdThpV3xdTUBMAIMnDNdEIMAWCF0byX/sCz0l7A58raPCufX/nqV9vv/94XOP59Vzt1/hg0Z+ueZaYzF53UNizvxhIfwkb7vY1PX6ZHwVPaiy8PQwhtgN9/xPKvD4ZSZhSixfBo/g6b5fTBtsocFZy70WMKMl/l7RE8w2srwUKMsg7/JEg7B9IeVzG9TVfemxa6avcW76tobNeYqjobcC5jiS5Eye8ZkNS+0d/mafMr8Od6vkRo9QVfmVJ02xIc+U3eyaGt8I88ZP21P7rDKQA9VL6Ow3h7em+wHvudtulO0/CBaJImA+MKDarc1DnUb/6kA0L9UF3ku3DxQvzucowcYBkvr4n7ItN6edz+4Xc0NF2Jh3GGlEV6y10pm+fJV4+9DjGv5YjnpWh2tpFCCWJiUPSrZnbAGxi177/vgXbf/oPwIx2aqYdksGCDyJnPjpxVRFTM8+wm+JOnv4kNr7Q2gQ1hkqP+9Pw+jd+PJVm5DRIwMxUlpLOLkExGvWHtAR6Fm6g7AvAn9ZopZZDGq/GKC+8j9EgXuyNXxZ2wGry6cOC3NmxUR5m8Ax8dm0No0kRQU1bv8MLQ61vRBoSfkDppIBvNZXhdRWRCv7OrluXope9g32+Yhiarq1OGrvlFiIO7JzVHrWa0EWpXzbUlegQ243lOk55x4QJj/Tsn3qEuTsFBk7zMbhMFyCIdRtsa2GYQi4ZDzvDCMAWjlYnnXejn1LboCBuSLRSTIyIYSUhJ0r5wJRPCt87S8vDYX/7VX2x/8AdfaBs241PF1HoRWKGyvREZWqaClAE+zi4W5+nQwCy9HXA0QcScAd0Vyj1Ew+KB6vzLbxTnmx6qZQu23hmFfUzhCZ49/b2u1lH1jGKlzSj0WkZv6u7ONEklnYz0z5CN4Ya2QONFqPl9Xzu3WrufZOxKQdiJvloLY9jCOOlbXppESC4i4PJtF8uhXCmRk1WgsQN5ThmKkLDiUjg673beT0QH9x7oiO9KWuNJa59TW7P7KGT7rqgiDVQe0ll2r88+JC/7z3fpF846aGs/7iOvxQyUPuPAh1gBTxUTz6bURh4wB/pbt0HYhLHXMzl3Db8Xdj3c0mWC1nYq62fhSgTUXNkPWD9w+AFWVtEIHBmY6knwTMsoNB1AojpyoD5bni4O38IBUquBwPsZRfNodA2BhA6gVog1AMcloQuPcYKO3/d0/Wo55ulC0LQUThXVIMb7U6gEXuK7jUXaKB6zqZw0TgdvQ4MeJGq+f8t03AHAMgy+V/ilsWicdHYaq9fV83sNPOMvxt45SutqoBDzGPkFmNwprF7lLpTYWNaRKTQdX03PZ+nqNbZJhGRfjZTZPO/PDhKNne1o1uEi1PF3jrer+MHt23soQkO3F+2TrgqrTch0tmNpdQ58Crj68XAHBpCKwB9ei7t/xV1c0lYI4lVxBKazQbNF6LcGTfO7fD3LnxrmTeZZntfnSb1tlYsqiLd04FFd4WHeOZXxq3XaO11bGdUrHBUEaZRTIVyht7lP4+0jf3Rtb0j6npfC2876g0l7XFFjBMkdKXuivIRylbiShKZDaiKMc/q57KEVSi35y4qzYg2u9MXgTLR8eQv+0cUs2jC2a+QNgi5DSe5pyaF96ZfwTgbMXh1XaWNI+90Bpy0ttQT23iHxQQbw4AF5847kFG107wv92kszff/5Tr6Xb1VLxuEJjJQT/qcewTSt9ZvW0PHoV/NbNgoN4z+MZHDLjFqAEfOckLp7x+50vM18XMcTaGVal+31/q5tSFZkowwNQwdToXLJ+HsvvciUbI4VYKaBdEY1KJHvBBO0AAi0AtV/wmH9Kcg0xFX5feo0YlC1HqcgtUanJqCqC2KcoutR5VktZjRUiFtGt7EFCqdnlN8bQKb33qCPlYsfDkVVN6tiwCFDuQImk6jJOl1zS5zCpduRhL3qKncGyws+XH1vSCNIAELsd7iPZFRURcf+5hTlKiq902RHNe1ZBvEVB7/P644CO8IUIxtsi3lBG4hlUx+LRWptE2jWqvueUbfIgsFZVuE9tcRVeQ5ew7H5TNIvYRT3BGs1Jafs+sy5cAJ1uY6m5iSgAoQahC2tSHwGnKB90WqEY9GhFioUmuK9yKLYFA7SdkoN0tm5IG+IY9cSqUfyVJtUeeIvsObR/1FN7wbO06WpFG1D1yQ0qfDI/CN4+n2QHtKRElqa3xedR1Yi73kzNGOKCUmGtiz8R1lsi3uGMZQSv/J87wyajRYwOzhg5UQXeGACwaZ99DaDm9ltE22w8pGLdLVqrFJiG7o665S32tNPH4q0PFIry6aD/tIdoMfpGPg6fpTQebhfje/3Kjfey7MeMpKZEALJgZjWNKVcYrdK+9Zfoa98HiBhGmEPcUklv9sfY16xDJJXP0bb5/CRJWx59ktnOGq/tGDkgN/5iNYb2opTKTCTrrw5NVCIwenws4dhrmsHjxzinLUtkaJAQSeDcYFHsL1KWDu8XykPURV2TJ006L72xmt8SOd024Cwu2mnrSzmXCFOIZQXed/jilFBEkA74e1cdnaJ2TtB1FsEj1oMQMQpU0GhRqJvmmLAerOgQWNC5hDLeroAtJHtMF49JNMN9I4UVBdiCaPCKsclWS4FS1Tx1wnUr6lleoVAn0K4GHrjC3sXdIm460/SwRhqpdbpKtQUQsxRaw22OHHxtBdXaUmSNNJggXaw7NhySFv1cfwWDW455tdZOoMBwkptUN/CM/i1nT9/LlNiV/50XVGoukp/ae48082rlAuusgz1SRcZawUfkPa+tL3xazgK7MhE6Olzb1nQLcEybQOuaqSX2LMs7j7zv3IPDK8d0XcVhvKHFw40Dqjamz1oQYGuu8v4QNNz1nVUUuen8XhQCk4VZ8cYxY7jMnp75914esu4I08nzZ1ZeHrXCOLGABjyuTjh92Ou45oyu7SFGZSDqh3b7k2LBYgyS8S9a4BDbwMSQh8HHfoULOpuDL9U1vd+25+EO0KGuuWhdwt34HZXIuOgXvjGGYZ8V5gIpVj5xB2Xuufq4BnYq7DirUCaclKm6Yc0GTTB2oF+45Yd4fMzZ07yxrKpm4vC3fmaK9MG29fQ2wYXmLIdIRn48teWtpMtTbMcIe4pwGZRespMMpohGgYdz+Dc2ficwgFxdcw8ffp0e/3tYxj4Oc5bgr+P0BHqxBZRkbMxhHhEaBtPIoGSvmXAtKwAopEiEIWTEUUbok6j2XmB86cEUSsr4UVcJwKwDbchiCKyDOJDnT0dFSoMqIgyiiYlXDygoPYOq8VqOxEO8bEuf4YR/HkcnsHF0Ys0wRMYFbyuimunu44bQqak4Gd+bXkKowhw4OofJXYUjXCjXoWjdTo9FQbdZ3RFuIRWd5Ez6dbwrOO40wSdNZ1G+rm+vvIcgSfDV1OvwG79ffHB+7vxKazu/bfTIe1j2WOh2nfsRVoDmoFfb5fx2PF7z2iUTjpqeyJO59MOm9cSqGPIjBcw3MtL6Sykz129yH0vKw9/hX+EzD52DR5QA3cwkvfDb8JLAnlHE0sGTAY9bcYRYr7nV7g4W0BxMD/5fNev/zFwtawELr1O26De9hYd0pBQkvcs5uuwCGMP1e9GeRSmcwzU9x3eTxJPTp8Ln1t6ylth3qpvBaahwEmdXbdxEoiCbgub0N1wjmKQ6atpzKAG18Eu5sAeg9bglEtpm6kXAuUClX/v1aMIzI3pSEKQfKprY2GcuB3JsejcRkCJwRAUDmp1OESlTOMtZy3GWYlrxycBz3RONAR6KI6JnPevAEJIlp2shN7dRLAKOyZdOf9koKjlTrMoyvQ2TAjKjfVVnWp2bIvSZ44php0u092kHzWS5Zu+yqn8YmaZmXpwk7wwqdOOucva0mq1Vw1SBkg803NhM/gs/sLdF058VjBaj3BoE/S7Ago0O4jvuiuN3xedZcvSdbSlfEGK+FosoHNAL//1uiw3z7Yj/zv9fN/D3e9W8pAg6UwrwmN5et47r5Z5J+3ujK8n6xNXtyuKv7j2jmJc4LG+dwnGC5dX8/fBpSfvZfQ0waFH/hVcpco12kolQkVYkaA+7qEADpq3MHMYFHjyuoN8mhDFQbqENuDb+Ub8Ol95Lx/14LMhuFNO2r5H3nW1fxvf6WWd0fDgNXleM1h2c6RNxaLCSnoex+vr8aPrmIICXNblN3Rd0POw3Gssuk3zvZQFp/vgp8ISxMdxGO6tZ/KR+x9mMWJTBJ1U9KtH6oYa6WMHcv6sxmRh/GqkLwHTiSexLmH8fvmNV/Ahw81CrKFZX5l8NwaWIBQZ4dIRtKyM/MR578961a4EuKbfZWz12Tgbzm8h6HHt9E03ENOpT0RYk6aX0wWSdVu57ylYlHmUgWi8TOUKfhmrcO8QVgOZ37wKWu89dVXhL01kut6IPpuu128pMkni1UaJ56uSEUTL5Jd0wqWgi8EWuCzf3yKd2mhxMN6rwTjrvEwbWJ4Om8LlcVM3OJnFeLWB0I88LoTEBoZd6NqgDYZYlBW4qKRoLiMDuzYCaGTnqvepdgWnoo+Q2ZYjrbZrhdZv/j59D3tQZA/jZfZ37+cqrH5DwQFX/K1b/C3POH/vVnbwpBJhM580ky7SNXGgM55//P6HwdbLvTvNu8Fxd7p3fQ6u89lbvRGXkzUMfu4u0MYqxeWFzmOpi/QyU/dntFxbqPdln4U1beMDwXz+Og79WrHv8lfWsLMbvPhMuf6KIxKz8kewqGIlTU9rgvG6ewYVnRLvBZf9OeYchLqafYQ77Ze+M5RB4aFF58VxHCc3MX1VywNVaiShYwPXJbQkjdduCVMIRBjAHE5j62ifgTDEzc1dyZYxz7ufyjTKvYV9Dl8I8jc4VDnmLQRFXhtZR9x4oRAxO8xEjI89L3CosdG4LiJk5ABZ75m/0phM0egApja/mosaFJO41G0dCscIEt+QsKaIGnxZ8ldjZaQoQ7qCF9zBuRihrtWqKS7vJaplakx39dCOZx5/3suI5k91w1W8DJ5DuJp9unbS+LElHlwIugxEKA0am/XoaqLTqXiIg9c0G/mEwXr0j1TzsczSwuvQBstUuzON5Xr1YFenNwb9mLK6Ct3yHWKKtnyVatuE5NEkOg27sLWcXrflGO8vGjl588FvWpTbhN4pIe7wZpTHFwM4K3HvdWNdegZYn6dKi6O0j8YPcWpKdHcpxc/Vdh7ygN8aGoPaoqYJIdNu7K/DK55/ZUHiSVf6hYdv7Ni6o82AKxAGP2GzvW0Tf9KkBhfxFIcaGE3jT5x6Gu8NpiNb3luTZY+CAIw/j2LG71IX9dv3Qn/LHMofT1f3Bbtw+DOYv4c77+23mKjo437ca5btsLbzhfMckKCCw8p9tbPqScFu/l5GcAWO9P05bDtOYyOgrA9hp8BzwzfdNpl8LUgykt7fan7aEvTod7p04uSJ+Ab5AV4By7HOpC00iohgnmfQBDhKTKRP3DqdspHSENUA2frFs3VKfAWAnTMCkfcaZ7VbhCEFGy1Uv8FJbDpKewnhaCYsCu9yiFQzNK8dnDr5aeTUiO72FBcuJIp9UXiqo4u9Qe2m6FHP9Vf4AjePdaQ8G5oR+hJb5jJYVsfP8vNOzAEkUyn2vLrrwe/qelSXdLfzRWABk3zgoOPPY7SdaZtd5pa5vIZG4KPA1uFYAWznVegal2PugUPYFIgXLl2o3RmWCw4GW8hW190o9AE+dFbgLBz8bKVBXDoexVjml05Fq85soRflGWzpmCQsq5LlvX8srwdvs7dzKKu//2FX21SB57Y0nVS1b3rUmbTJIEGh43UUfFWvNk23Skrrdexp9mBVBZ1O8ranFDH41zLM+xcPI3zfX1khSvj1BicW6zu5jpVu3UoM+ojaN5xRRYABogujcDJwj9pGvlIp6eQex0QekI6GPiB7H1p5HegwTkfjB8rkUuO4ig59Zag76YXHyuCn6vHmsz8VTRVW8koPnX/6cxgGErj67Ddptuzj9BgWDBdYxPHU7cCu7KBAaw4Xp59xD7KREUEW05bHQ+mOIHOsBAq3D0DGCBIBkMFlCufK11gKvsJUSG9o33sOWzGDQgeiFSYrxUX0KWXSboDEVeIq1MwnwGEkW2J4du/iJAh6nLOwRfOkY9/C41C4RCo0zJV7HiZp5WhsMLy7DhxlhM8vd3lCh3WpMXq8fEhDJpnbBvaoqnR46U6PzL9BwFl2rdSKmnWFeiP8ZDYJDvhqCwp9Deq6gzilsDMaZ76ugsfIDEzZukdeteYsIvhOQYY2p97tfsF58FigjVYxwrnPWUGeE6LRaFMmOLmrxU6qbU6c3WGhcOvBMl3UkNZnzpxB2NEO1CUq1Ul0bNXxmGfe9d0p0gFxkTZ1gUgaVlsXHazfMkmQvP7xXR8cyDkE3mEb7MEy7hV6+dLs/Qb7SmAkg6fZLLJP2JXq+OsR092uStMRtipZsKWLdV25chUh6SEO7lDQpMDJImiOSzhjy2vjCyDGv5/w7unujfu7lkl1DhK3PWoLrrh0/VLbusz5h1MztKHtAx72JfasK/Ts+ComHnGvcrEUrZWBDCEkV9mXhE0+6fxYGmIJvA6HaaJk8MI+28Oo7aSlvE2+uH2YX1sxh4KQXl/O9CUzp19VvWSoPCGjBcvH/L2LJ3wOb7EYmpkTBxxMrp7hEwA7KQ9ZtHA1Co78G960PH4ZWGViHqpMeZT+Q3mTl9iw69RPo28EjzlgAMVf/HfovNqmyrkVInYBRCUCoQuFAqMQH6hCwelElFGhCJF7bgWojpmCAPzzO5pxYuZqWTKX5Ukwy7Fh/PUpogJFWINoOlsJUDUDGdhGNL2hHHdpatJ1AqoOe69A9OrPsrwmkFdtLw1uS6yEShfYhnp7lDRSiEdYIZDUsBR6djpbu9ffy+wd1EZx47cCK2lsfGBR41ylSwkdOPY6FyxIm9EcmIR3Bc8BF3E2rT/3IVqX905h1wGLA9apU6fSOewlHSavhtgvyXP3NNA2qlAM7n3Hw+t46M+9bfrzeJoffj+0wQ9P9K6xtqF1xombjq5/lkJAHDtMpvHZgb54sdybIvTWsl8VfOU12w/ywUs16L5rpX/pEWM0BrdLHJh5cwfTcPw3u0mi87A4OhtSm+u092ozeXJO3tkdefbefOLqbC1mFaJ8txK8N/M9g+kqTn62bgdK+7A83Usx+x1lDmU5wyrYRoLp7mqSDxjkyascynuEDRCeeHzixHH6Fr6Y8HSvp+eVX3u5Hcfe9pMvvflqQBbgAAAjRCuhlMIbRKwQ4KJh8JUmv7tMbJhG7Uug/DmCjiPmvRWqxSDm+HFPY/gLcXjOWW+CTNp0vKERrMGRV4a0YxtXTFoaxXg9liVBupAzr/E2pCN97I42wFBHBMgAg3mEseexLMFxcOpE6kQDBGAoQdpxS8ahPunm+67Z6TqhIFToiXNwsC5x4Wq5KjJxaSFezVWXGg/wlWk1yHsKhNM0SuateUors97Q1nIHQecobblb2auqUHfqqrCLLZABbQ77j7Q0RENEQAcG4BHuHtR601z9xcq16NQf76ZBf9/p1eP7tceP1+W7O+PFsaf8D79adw+hBwsRaskRAuBpO8gXfVXX9ndXgmTxO6gzaz1NWFpoVuBwW/hKbW8Zv0Xbfrz8Xs9f+lWUAElBbMMsMZVzsWmWHVBuq8w/YO6w5eosBVrIk3FPQbt2EJW4pic2YEt7ecLnTrq724fk7xJGtJY36wfloKn9Wl4MLYeCx7VEYev11P0PVpFs4p32qLrcFWTbXWN26ULcanjeNrRvmS64U9Tdz70uttzRvUgoTib25/c8R+CP3tPV5ANfBLpeuMLQj6P00AsfCQxjivARTj5SRKYJCkn+QaIqV+E4INnhSR5gFLGu3ZnIeOsy3nsZfPyd7109VWBIpHQACKPAk+nT0OSz3IDE/YpQ4kUvuxOv4xXgh/hkzJ+iiXGWFwEHKu6/VeipLfiu7JAdbmAHD6eowqY3eOcttc8pTpoRzmXgVcO2w3mCrQNL33Imvh5blV0w1OupsebpvnjWq7Z5kRVbHcG1vbp9TVyExWvgohyDz06fcjXN8D6Rd/15tzjzGnrZ3pt2nI4+9zqMN1Q7mLdTIa/f84/l3itoMBcraSmOHU/rdtue+bqtU16Qxh5E6qlAtZrJQg+LSrbL4jVnA/LJD6fJOBydDuPvvP8hJL07aT1DDnnZcSiB9r+A7X0rWz3XcfhEH+zFx7Z3ehsH3JAxjRmNSz4Upt5uKZM8XsfbosNteUk71hw+9/zCQtYKlGs5i5hJsq0Nyi9iEpjgJGun16Fb2rUjUUJJuluf/TpT0aE46wgbJTnx8P4GvEnEzw//2LbM2JN3yJJLh3383Th/TKZhwxbFlOMIjWcW5/7rhRk/ItadDdkZzMrkE4Gzo7qwICI2uuU53dB2pe1vmXg1GBtWo6vl3wFDKFC1m045Zf1dwPR7r+Lh1Z82BeHJNAcVWJjUfnxn6HWYJ40sPcbqqhpHf2UwILyj4Y0dL0cBlroHO571qXVZZ6bsYG8VCntvAq92TeItR0ZwlBS3OutM+9/IJmh6p6iWZ7yd1BNWrLPjZhkuKumu4nYs82jPsnwHqZgPBloF5QxciuBwWWgxwtq7ej/+rnC2Je8drLOH4Di0ifQZBek+Sjd6/xe9s8zioRKm8t3QxlzVfKWZg0MNOHyjmSPSJrHn+jV7lfmb7GzRr8zPY/pdCMu7E/a/KIzvnT88YqsIEDwyzWkil5ne+aEtT9sBqRVeD/+Ko/0ImuYHf/QBEea7o8LePrajaeUxQy8n8cS9Z4DU5jGpPJjDK8hUqlPPXYNcEvHKdL1+6Tq67+m5Wh6FzvOZyS18QsI0fmunpvIFl+/uztvL9r33Bu8ndfPoYSViiCRFRVFuEZ3HqqNnSSG9Mvd33iukXMpy9RSSpJOqZldnGeWQYP5i0FfgkSbCgby9DgnqfX82dzowQkiBohCQIRUE9V6hXHU4RXGEMI0/BWAvy7QRRsJ1F2yjuqrz+Gz60fuCoWNinFMJf+Kubc+0apaZJgGb2nJpdJQpgAPDLIK/eZyG2Ukd2TI1oAwFbdwmKMu4zpQeNDADbj53zU9Y1F4UdvqYKfzGp7S1am2rWj/MLkSUa0fR6O29v84ThdvADwOinb4/wBRDvPl76PT1XbdD9rgSdqO0/f1/zGu1SfG6ONkW8oDtIX2ES9ouuljB1eCUCQlD2lr9RTEOP1rWOG5J/Jf4R8pkOg2TyKMxOfDOg2ln18/yDkfj8FmZTcSpa3NqTeZ3ULQMeY2WTbsLsjwTLUseII1H34vb+C8rFnf1e/PeHaSLs6nw7EDDotMos/xGJYHX9AbTeFtp7yzVFPJ9NMdhNqriJE7mN278tBxzW454rfTnsXr+fztakEiY/8WHAAAAAElFTkSuQmCC;" vertex="1" parent="1">
          <mxGeometry x="1050" y="400" width="316" height="316" as="geometry" />
        </mxCell>
      </root>
    </mxGraphModel>
  </diagram>
</mxfile>
